<?xml version="1.0" standalone="no"?>
<!DOCTYPE svg PUBLIC "-//W3C//DTD SVG 20010904//EN"
 "http://www.w3.org/TR/2001/REC-SVG-20010904/DTD/svg10.dtd">
<svg version="1.0" xmlns="http://www.w3.org/2000/svg"
 width="1500.000000pt" height="330.000000pt" viewBox="0 0 1500.000000 330.000000"
 preserveAspectRatio="xMidYMid meet">
<metadata>
Created by potrace 1.13, written by Peter Selinger 2001-2015
</metadata>
<g transform="translate(0.000000,330.000000) scale(0.100000,-0.100000)"
fill="#000000" stroke="none">
<path d="M1468 2786 c-10 -7 -18 -18 -18 -24 0 -6 -13 -13 -30 -17 l-30 -7 0
-204 0 -204 -25 -6 c-21 -5 -25 -12 -25 -44 0 -21 6 -41 13 -43 9 -4 9 -6 0
-6 -17 -1 -7 -322 10 -333 9 -6 9 -8 0 -8 -8 0 -13 -22 -15 -62 -3 -60 -4 -63
-30 -66 -27 -3 -28 -5 -28 -67 0 -52 3 -64 18 -68 16 -4 16 -5 0 -6 -17 -1
-18 -21 -18 -266 0 -258 -1 -265 -20 -265 -11 0 -20 -7 -20 -15 0 -11 -13 -15
-52 -16 -29 -1 -56 -1 -60 0 -5 0 -8 -3 -8 -9 0 -5 5 -10 10 -10 6 0 10 -9 10
-21 0 -12 8 -23 20 -26 11 -3 20 -11 20 -18 0 -18 -28 -26 -65 -20 -16 3 -44
7 -62 10 -17 3 -34 13 -37 22 -5 13 0 15 34 10 30 -4 40 -2 40 9 0 8 -10 14
-25 14 -14 0 -25 5 -25 10 0 6 7 10 15 10 8 0 15 5 15 11 0 5 -5 7 -11 3 -23
-14 -29 27 -29 214 l0 192 -37 1 c-21 1 -44 1 -50 0 -8 -1 -13 11 -13 34 0 21
-5 35 -12 35 -9 0 -8 4 2 10 13 9 13 10 0 10 -12 0 -12 2 -2 9 9 5 12 26 10
67 -3 57 -4 59 -33 65 -27 5 -28 7 -10 14 36 16 45 33 45 89 0 59 -9 71 -25
34 -6 -13 -16 -23 -22 -22 -7 1 -29 2 -48 3 -30 1 -35 4 -35 27 0 15 -4 23
-10 19 -6 -4 -8 -15 -5 -26 6 -19 2 -20 -52 -19 -4 0 -6 16 -4 35 1 20 -2 35
-8 35 -6 0 -11 -16 -11 -35 0 -28 -4 -36 -24 -41 -24 -6 -24 -6 -25 -162 0
-154 0 -157 18 -135 18 22 19 22 24 3 5 -19 -6 -33 -28 -36 -5 0 -21 -2 -34
-2 -22 -2 -23 -5 -19 -61 l4 -59 -65 -16 c-36 -8 -83 -18 -103 -22 l-38 -6 0
-68 0 -67 -31 -7 c-17 -3 -43 -6 -58 -7 -20 0 -22 -2 -8 -7 16 -7 16 -8 -3
-24 -11 -10 -17 -24 -14 -33 8 -19 -26 -21 -45 -2 -11 10 -14 10 -18 0 -5 -14
-83 -18 -83 -5 0 15 25 40 45 45 11 2 -14 3 -55 2 -41 -1 -87 -6 -103 -10 -17
-5 -33 -3 -42 5 -13 11 -15 -28 -15 -329 0 -233 3 -341 11 -341 5 0 7 -5 3
-11 -11 -19 -15 -91 -5 -84 5 3 12 1 16 -5 3 -5 -1 -10 -9 -10 -12 0 -14 -16
-14 -86 l1 -86 771 6 c424 4 1176 8 1671 11 495 3 1139 7 1430 10 1503 14
5892 30 5883 21 -6 -8 -326 -11 -2208 -21 -1151 -6 -1949 -13 -2430 -21 -179
-2 -356 -5 -395 -5 -38 0 -299 0 -580 1 -280 0 -640 -3 -800 -6 -159 -3 -361
-5 -449 -4 -110 1 -156 -2 -151 -9 3 -6 -1 -11 -9 -11 -8 0 -17 4 -21 10 -7
12 -463 12 -470 -1 -4 -5 -12 -9 -18 -9 -9 0 -9 2 1 8 6 5 -207 7 -475 6 -833
-3 -813 -2 -813 -19 0 -9 -6 -12 -16 -8 -13 5 -13 7 -2 14 11 7 11 9 0 9 -7 0
-20 -7 -28 -15 -10 -9 -32 -14 -57 -13 -41 1 -41 1 -7 5 19 3 39 9 45 14 6 6
-33 8 -102 7 -61 -2 -109 -7 -106 -11 2 -4 22 -7 44 -5 51 3 61 -9 13 -18 -23
-4 -44 -2 -56 5 -11 7 -18 7 -18 1 0 -5 -8 -10 -17 -9 -11 0 -13 3 -5 6 6 2
12 11 12 18 0 16 -66 18 -94 3 -12 -7 -16 -7 -12 0 4 6 -87 9 -262 8 l-267 -1
0 -75 0 -75 7498 -3 7498 -2 -2 159 c0 140 -3 160 -17 164 -15 4 -15 5 1 6 25
2 23 48 -3 56 -22 7 -24 13 -11 34 5 7 14 10 20 7 7 -5 11 6 11 33 0 23 -4 41
-9 41 -5 0 -7 9 -4 19 3 12 -3 26 -16 37 -22 20 -19 34 8 34 13 0 19 8 19 25
-1 35 -11 38 -36 12 -15 -17 -21 -38 -23 -87 -3 -60 -12 -90 -28 -90 -3 0 -5
139 -3 310 l3 310 -30 0 c-16 0 -33 5 -36 10 -3 6 -22 10 -41 10 l-34 0 0 75
c0 59 -4 79 -18 93 -10 10 -21 26 -25 34 -4 11 -22 17 -63 20 -49 3 -57 0 -64
-17 -4 -12 -15 -27 -24 -34 -31 -26 -19 -78 17 -72 4 0 7 -6 7 -14 0 -8 -4
-15 -10 -15 -5 0 -10 5 -10 10 0 6 -4 10 -10 10 -5 0 -10 -22 -10 -50 0 -41 3
-50 18 -50 9 0 24 -5 32 -10 11 -7 5 -8 -18 -4 l-33 7 1 -119 c2 -134 -1 -147
-36 -162 -27 -13 -26 -11 -28 -101 -1 -64 -1 -64 -31 -66 -68 -6 -65 -18 -65
241 0 191 -3 238 -14 250 -8 8 -19 14 -25 14 -6 0 -15 9 -21 21 -9 17 -19 20
-58 17 -31 -2 -47 -8 -47 -16 0 -8 -13 -19 -28 -26 l-29 -11 -1 -118 c0 -105
-2 -117 -18 -117 -14 0 -19 10 -21 43 -3 37 -6 42 -25 40 -20 -2 -23 2 -23 33
0 27 -5 37 -20 41 -14 4 -20 14 -20 34 0 26 -3 29 -35 29 -32 0 -35 -2 -35
-30 0 -23 -5 -30 -19 -30 -17 0 -31 -18 -31 -41 0 -5 18 -9 40 -9 27 0 40 -4
40 -14 0 -9 -8 -12 -26 -8 -16 3 -30 -1 -35 -9 -5 -8 -9 -9 -9 -4 0 6 -11 11
-25 11 -22 2 -24 -2 -27 -44 -2 -25 -9 -47 -15 -50 -10 -3 -13 66 -15 310 l-3
313 -42 3 c-30 2 -46 9 -53 23 -9 15 -21 19 -64 19 -64 0 -116 -9 -116 -21 0
-7 97 -5 108 2 1 0 11 2 22 2 26 2 27 -17 0 -21 -11 -2 -18 -8 -15 -13 4 -5 1
-9 -4 -9 -6 0 -11 4 -11 9 0 5 -27 9 -60 8 -56 -2 -59 -1 -62 23 -3 23 -8 25
-71 31 -97 8 -141 -1 -145 -29 -3 -16 -10 -22 -28 -22 -15 0 -24 -6 -24 -15 0
-8 -4 -15 -10 -15 -5 0 -10 5 -10 11 0 5 -13 15 -30 20 -16 6 -30 15 -30 20 0
5 -18 9 -40 9 -22 0 -40 -4 -40 -10 0 -5 -11 -10 -25 -10 -14 0 -25 -4 -25
-10 0 -5 -9 -10 -20 -10 -18 0 -19 -8 -20 -191 0 -130 4 -196 11 -206 7 -7 9
-16 5 -20 -3 -3 -6 -1 -6 5 0 7 -11 9 -30 6 -27 -6 -30 -4 -30 19 0 25 -16 37
-51 37 -10 0 -19 6 -19 14 0 7 -9 16 -20 19 -18 5 -20 14 -20 105 0 110 -1
112 -65 112 -39 0 -45 13 -45 115 0 39 -3 87 -6 107 l-6 37 -119 0 -119 1 0
-24 c0 -18 7 -26 23 -29 l22 -4 -22 -2 c-21 -1 -23 -6 -24 -53 0 -29 -2 -64
-4 -78 -5 -36 -15 -225 -15 -287 0 -39 -4 -53 -14 -53 -10 0 -16 13 -18 38 -3
35 -4 37 -38 35 -19 -1 -52 -2 -72 -2 -37 -1 -38 -2 -38 -36 0 -19 -4 -35 -10
-35 -6 0 -10 29 -10 68 0 64 -2 70 -25 80 -35 16 -95 15 -95 0 0 -10 -3 -9 -9
1 -7 11 -10 11 -15 0 -3 -8 -4 -2 -2 13 4 35 -16 55 -34 33 -10 -12 -10 -15 4
-15 9 0 16 -8 15 -17 0 -11 -3 -13 -6 -5 -3 8 -29 12 -78 12 -67 0 -76 -2 -87
-22 -7 -13 -11 -29 -10 -36 2 -8 -11 -12 -38 -12 -28 0 -40 -4 -41 -15 -1 -8
-2 -21 -3 -27 -1 -7 1 -34 5 -61 3 -27 1 -47 -4 -47 -5 0 -4 -6 2 -14 7 -8 8
-17 3 -20 -5 -3 -7 -17 -5 -31 3 -13 9 -22 14 -19 5 3 9 0 9 -5 0 -6 -4 -11
-10 -11 -5 0 -10 -9 -10 -20 0 -24 -13 -26 -30 -5 -13 16 -34 15 -67 -3 -30
-17 -33 -15 -33 12 0 13 -6 27 -12 29 -10 4 -10 6 0 6 16 1 17 187 1 196 -6 4
-8 13 -5 21 3 8 2 14 -3 14 -5 0 -11 17 -13 38 -5 36 -54 102 -76 102 -11 0
-62 -71 -62 -88 0 -7 -15 -12 -35 -12 -24 0 -35 -5 -35 -15 0 -11 -11 -15 -40
-15 -30 0 -40 -4 -40 -16 0 -8 -4 -12 -10 -9 -5 3 -10 -3 -10 -14 0 -11 -5
-23 -10 -26 -6 -4 -10 -26 -9 -51 2 -24 0 -47 -4 -50 -4 -4 -7 5 -7 19 0 22
-5 27 -25 27 l-25 0 0 371 0 371 -65 -7 -65 -7 0 65 0 64 -65 -2 c-47 -2 -65
1 -65 10 0 7 -6 15 -12 17 -23 8 -88 -4 -88 -16 0 -6 -8 -12 -17 -12 -10 -1
-36 -4 -57 -8 -38 -6 -136 17 -136 32 0 11 -164 1 -171 -10 -4 -6 -69 -10
-158 -11 -113 -2 -152 -5 -156 -15 -3 -7 -1 -10 5 -7 5 3 8 -3 8 -12 -1 -10 2
-28 6 -40 6 -19 3 -23 -28 -29 l-36 -6 0 -274 c0 -254 1 -274 18 -275 14 0 14
-2 -3 -8 l-20 -8 20 -5 c16 -5 17 -6 3 -7 -22 -1 -24 -21 -3 -21 8 0 15 -9 15
-20 0 -11 -4 -20 -9 -20 -12 0 -24 -76 -24 -152 0 -57 -1 -58 -29 -58 l-28 0
0 740 0 739 -38 10 c-21 6 -52 14 -70 17 -19 4 -32 13 -33 23 -2 23 2 65 7 70
2 2 31 -4 65 -13 63 -18 96 -14 41 5 -17 6 -33 18 -37 27 -5 14 -7 14 -15 2
-7 -11 -14 -12 -32 -3 -48 23 -87 31 -139 27 -92 -7 -111 -11 -117 -21 -4 -6
-31 -14 -59 -18 -29 -4 -54 -12 -54 -18 -1 -7 0 -330 1 -718 2 -606 0 -708
-12 -715 -8 -5 -17 -16 -20 -25 -4 -10 -18 -16 -32 -16 l-26 0 0 313 0 313
-30 91 c-29 84 -99 206 -125 216 -6 3 -12 23 -14 47 -3 49 -11 64 -11 19 0
-32 -15 -75 -35 -102 -6 -8 -24 -47 -40 -87 -15 -40 -35 -81 -44 -90 -39 -44
-51 -81 -50 -150 1 -37 4 -57 6 -44 4 19 7 21 14 10 6 -10 9 -5 9 18 0 31 1
31 56 35 40 2 59 -1 67 -11 9 -12 9 -13 0 -7 -7 4 -13 2 -13 -3 0 -6 12 -11
28 -11 18 0 23 -3 14 -9 -11 -7 -11 -9 2 -14 13 -5 16 0 16 25 0 53 8 26 13
-43 5 -73 -2 -95 -28 -86 -9 4 -13 11 -10 17 3 5 1 10 -5 10 -7 0 -9 7 -6 16
4 12 2 15 -9 10 -9 -3 -15 0 -15 8 0 8 -6 17 -12 20 -9 4 -10 8 -2 11 6 3 9
17 6 30 -7 41 -35 29 -60 -24 -13 -27 -32 -57 -43 -67 -18 -16 -19 -16 -21 7
-1 13 -4 -23 -7 -81 -6 -96 -8 -105 -26 -105 -20 0 -20 9 -26 415 -3 228 -7
416 -8 417 0 1 -11 3 -23 5 -18 2 -24 11 -29 38 l-6 35 -4 -35 c-4 -32 -6 -35
-39 -35 -29 0 -36 -4 -40 -25 -3 -14 -11 -25 -17 -26 -7 -1 -33 -2 -58 -2
l-45 -2 3 -312 c2 -172 2 -336 -1 -364 l-5 -52 -56 -6 c-31 -4 -71 -6 -88 -6
-30 1 -33 -2 -33 -30 0 -29 -2 -31 -27 -26 -16 2 -49 8 -75 11 -27 3 -48 10
-48 16 0 5 -18 9 -40 9 -22 0 -40 -4 -40 -9 0 -5 -22 -12 -50 -16 l-50 -7 0
-64 c0 -50 3 -62 14 -58 8 3 17 1 21 -5 3 -6 16 -11 28 -12 l22 0 -22 -11
c-24 -12 -29 -23 -14 -33 5 -3 16 2 24 10 9 8 26 15 39 14 23 -1 23 -1 -2 -9
-22 -7 -22 -8 -5 -10 24 -3 -26 -17 -65 -19 -20 0 -22 1 -10 9 11 7 11 10 2
10 -7 0 -10 4 -7 10 3 5 0 10 -7 10 -9 0 -9 3 2 10 13 8 12 10 -3 10 -16 0
-18 -9 -16 -85 l2 -85 31 1 c30 1 30 1 6 9 -14 4 -19 8 -13 9 15 1 13 51 -1
51 -5 0 -6 3 -3 6 4 4 13 2 21 -5 11 -9 15 -8 20 4 5 15 8 15 21 1 21 -20 19
-26 -10 -26 -14 0 -25 -6 -25 -12 0 -9 17 -12 57 -11 42 2 52 0 38 -6 l-20
-10 20 0 c17 -1 17 -3 5 -11 -8 -5 -45 -10 -82 -10 l-68 0 0 -56 0 -56 45 4
c25 2 45 0 45 -4 0 -5 -20 -8 -45 -8 -35 0 -45 -4 -45 -16 0 -14 7 -16 45 -11
27 4 45 3 45 -3 0 -6 -20 -10 -45 -10 l-45 0 0 -55 c0 -48 -2 -55 -20 -55 -19
0 -20 8 -22 180 l-3 179 -50 -82 c-48 -79 -52 -82 -88 -83 -32 0 -40 -4 -36
-16 0 -2 3 -22 5 -45 l5 -43 -103 2 c-84 1 -94 2 -53 8 l50 7 -49 1 c-80 3
-48 11 52 13 51 1 92 5 92 8 0 4 -62 6 -137 5 -76 -1 -111 0 -78 3 38 3 54 7
45 13 -17 10 63 24 106 17 21 -3 17 -4 -16 -6 -50 -2 -94 -21 -49 -21 42 0
119 12 119 19 0 10 -104 116 -111 114 -4 -1 -6 5 -5 15 1 12 -9 19 -34 23 -28
5 -30 7 -10 9 l25 2 -25 8 c-14 4 -20 8 -15 9 6 1 10 15 10 31 0 27 -3 30 -32
30 -23 0 -33 5 -33 15 0 8 -7 15 -15 15 -8 0 -15 5 -15 10 0 13 -53 13 -67 -1
-5 -5 -32 -9 -59 -7 l-49 3 0 92 c0 50 -4 95 -8 99 -4 5 -31 9 -60 10 -111 3
-151 7 -132 11 42 11 49 56 8 51 -20 -2 -29 -9 -31 -25 -3 -19 -10 -23 -38
-23 -27 0 -34 -4 -35 -20 -2 -32 -4 -38 -10 -44 -4 -4 -53 -3 -110 2 -118 11
-275 3 -272 -14 1 -6 -16 -34 -38 -62 -21 -29 -39 -64 -39 -77 0 -14 -5 -25
-11 -25 -6 0 -9 23 -8 62 2 57 1 63 -27 84 -20 17 -42 24 -71 24 -23 0 -43 4
-45 9 -1 5 -31 13 -65 17 -54 6 -63 4 -63 -10 0 -22 -20 -21 -20 2 -1 15 -2
15 -16 -3 -15 -20 -15 -19 -12 5 3 23 7 25 52 25 30 1 51 6 54 13 4 13 0 14
-78 16 -30 1 -61 -4 -67 -11 -19 -17 -16 -25 7 -18 18 6 20 2 18 -27 -2 -26 0
-32 14 -30 9 1 19 -2 22 -7 8 -13 -41 -27 -91 -26 -24 0 -43 -3 -43 -8 0 -5
-6 -5 -13 1 -30 26 -35 -2 -35 -206 -1 -197 0 -202 20 -202 17 0 18 -2 8 -15
-9 -11 -15 -13 -20 -5 -5 7 -10 3 -14 -12 -4 -14 -9 -18 -13 -10 -2 6 -15 12
-28 12 -21 0 -24 6 -30 63 -8 70 -17 87 -45 80 -14 -4 -21 2 -26 22 -4 16 -2
36 4 46 8 13 8 19 -1 22 -7 2 -8 8 -4 13 5 5 15 1 23 -10 8 -11 14 -14 14 -7
0 7 -7 19 -15 27 -20 20 -19 54 1 54 14 0 15 28 10 283 -3 155 -6 330 -6 389
0 103 -1 107 -22 110 -19 2 -24 10 -26 42 l-3 39 -57 -6 c-31 -4 -66 -8 -77
-11 -11 -2 -41 -7 -67 -10 l-48 -7 0 -185 c0 -155 -2 -186 -15 -190 -9 -4 -15
-19 -15 -39 0 -43 -9 -65 -26 -65 -11 0 -14 -17 -14 -70 0 -54 -3 -70 -14 -70
-8 0 -17 4 -20 8 -3 5 -19 7 -36 4 -33 -5 -34 -2 -31 69 l1 36 -73 7 c-39 4
-100 10 -134 13 -42 4 -63 10 -63 19 0 17 -37 24 -143 27 -53 1 -90 -2 -95 -9
-9 -13 -252 -36 -266 -25 -6 4 -40 9 -76 10 -83 2 -92 11 -12 11 34 0 62 3 62
8 -1 18 -50 60 -79 67 -17 3 -31 11 -31 16 0 5 -13 9 -30 9 l-30 0 0 104 0
103 -52 5 c-29 3 -66 2 -82 -3 -17 -5 -50 -9 -73 -9 -45 0 -48 -5 -37 -47 5
-19 10 -21 26 -12 13 7 17 16 13 30 -9 27 8 24 20 -3 13 -30 29 -29 33 0 4 27
28 40 45 23 9 -9 6 -13 -11 -17 -19 -6 -22 -14 -23 -58 -1 -29 -4 -39 -6 -23
-5 35 -42 39 -44 5 -1 -17 -2 -19 -6 -5 -6 24 -43 22 -43 -2 0 -15 -5 -18 -22
-13 -19 5 -20 7 -5 10 21 4 23 22 2 22 -8 0 -15 5 -15 10 0 6 4 10 9 10 5 0
12 7 15 16 6 15 0 16 -44 11 -40 -5 -50 -3 -50 8 0 16 -15 18 -71 9 -30 -5
-36 -10 -32 -25 4 -13 0 -19 -12 -19 -12 0 -16 6 -12 20 3 11 2 20 -3 20 -9 0
-18 -41 -12 -58 2 -8 10 -8 26 3 12 8 25 12 29 9 3 -4 14 -3 24 1 26 11 73 12
73 1 0 -4 11 -1 25 8 l25 16 0 -61 c0 -65 -8 -77 -12 -20 -2 30 -4 32 -31 27
-16 -3 -36 -6 -43 -6 -8 0 -14 -7 -14 -15 0 -8 8 -15 17 -15 25 0 6 -13 -38
-26 -41 -12 -43 -10 -40 29 2 12 -5 17 -21 17 l-23 0 3 -255 c2 -215 5 -253
17 -249 8 3 22 23 32 45 15 33 23 39 50 39 27 0 35 -6 49 -35 9 -19 22 -35 29
-35 7 0 12 -8 11 -17 -3 -16 -13 -18 -89 -15 -55 2 -87 -1 -87 -8 0 -5 -4 -10
-10 -10 -5 0 -10 7 -10 16 0 14 -7 15 -40 10 l-40 -6 0 79 0 78 -40 7 c-24 4
-40 12 -40 20 0 17 -68 28 -158 25 l-67 -3 -3 156 -2 155 -93 6 c-50 3 -125
13 -165 22 -75 17 -146 16 -257 -4 -33 -6 -75 -13 -92 -16 -32 -6 -33 -7 -33
-55 0 -49 0 -50 33 -51 l32 -1 -30 -7 -30 -6 -3 -193 c-1 -117 -6 -192 -12
-192 -6 0 -10 13 -10 29 0 21 -6 32 -20 36 -32 10 -75 13 -80 5 -3 -4 -33 -10
-67 -14 l-63 -7 0 50 0 49 -65 7 c-36 4 -65 12 -65 17 0 6 -35 9 -90 6 -50 -1
-90 -1 -91 2 -3 13 -7 115 -8 205 l-1 100 -80 -1 c-44 -1 -80 3 -80 8 0 5 -4
6 -10 3 -5 -3 -10 -1 -10 5 0 29 -29 41 -77 33 -45 -8 -48 -11 -48 -38 0 -24
-4 -30 -21 -29 -20 0 -22 -6 -28 -95 -3 -53 -9 -193 -12 -311 -3 -118 -8 -217
-10 -219 -2 -2 -10 2 -19 9 -9 8 -15 29 -15 55 0 25 -5 45 -12 48 -10 4 -10 6
0 6 7 1 12 16 12 41 0 31 -4 40 -17 41 -17 0 -17 1 0 7 16 7 16 8 -3 22 -20
14 -29 37 -10 25 6 -3 10 5 10 19 0 28 -15 35 -78 35 -24 0 -56 3 -72 6 -16 3
-31 2 -35 -4 -3 -6 -34 -11 -68 -11 -113 0 -104 15 -106 -193 -1 -99 -4 -183
-6 -185 -8 -8 -32 23 -27 36 5 16 -33 16 -47 -1 -6 -8 -8 -17 -4 -20 3 -4 -11
-7 -33 -7 -44 0 -66 -11 -62 -30 2 -7 -3 -15 -9 -17 -9 -3 -13 6 -13 26 0 26
-4 31 -25 31 -21 0 -25 5 -25 30 0 17 -4 30 -8 30 -5 0 -6 20 -2 45 8 51 6 55
-27 55 -30 0 -31 -35 -2 -61 11 -10 18 -22 15 -28 -4 -5 -2 -12 4 -16 5 -3 8
-16 6 -28 -2 -18 -10 -23 -43 -25 l-39 -3 0 -80 c1 -60 -3 -82 -14 -89 -9 -6
-17 -5 -22 3 -4 7 -8 8 -8 2 0 -5 -7 -2 -14 8 -13 16 -14 16 -20 -8 -6 -23 -8
-24 -21 -11 -10 10 -15 36 -15 84 0 47 -4 72 -12 75 -10 4 -10 6 0 6 6 1 12
10 12 20 0 11 -6 22 -12 24 -9 4 -7 6 3 6 13 1 17 16 22 74 3 48 1 74 -7 79
-8 6 -8 8 0 8 7 0 14 10 18 23 5 18 8 19 15 7 14 -21 53 -18 70 4 14 19 15 18
23 -5 6 -14 12 -19 16 -12 9 13 51 19 74 9 19 -9 21 -40 5 -74 -9 -19 -8 -30
6 -54 9 -16 15 -34 11 -39 -3 -5 -2 -9 3 -9 8 0 6 644 -2 668 -2 6 -18 12 -35
12 l-30 0 0 264 0 264 -25 6 c-14 4 -25 11 -25 16 0 6 -16 10 -35 10 l-35 0
-2 213 -3 212 -49 3 c-32 2 -54 9 -63 20 -12 16 -12 16 -13 0 0 -22 -17 -24
-22 -4 -2 12 -6 12 -20 2z m8500 -211 c-2 -38 -6 -45 -23 -46 -11 0 -27 -2
-35 -3 -8 -2 -59 -6 -112 -10 l-98 -7 0 44 0 44 113 10 c61 5 122 11 134 11
21 2 22 -2 21 -43z m1210 -1517 c-2 -67 -8 -112 -16 -120 -9 -9 -12 -9 -12 2
-1 13 -3 12 -13 -1 -13 -16 -91 -20 -114 -6 -8 5 -13 4 -13 -2 0 -6 -11 -11
-24 -11 -17 0 -25 7 -28 25 -4 18 -1 25 11 26 9 1 56 3 105 5 49 2 90 5 91 7
1 1 -1 31 -4 67 l-6 65 -92 0 c-50 0 -89 3 -87 7 2 3 46 6 97 5 l93 -2 -4 27
c-2 15 -1 36 4 45 12 29 17 -17 12 -139z m-228 -118 c3 -1 -5 -5 -16 -10 -19
-7 -22 -17 -23 -89 -1 -53 2 -81 9 -81 6 0 8 4 5 10 -3 5 0 7 8 4 8 -3 14 2
14 11 0 9 -6 14 -13 11 -7 -3 -11 2 -10 12 2 9 8 18 16 20 10 4 9 6 -1 13 -11
7 -11 9 -1 9 7 0 10 5 7 10 -3 6 -2 10 4 10 6 0 9 -12 8 -27 l-2 -27 104 -4
104 -4 -6 28 c-3 16 0 38 6 49 10 19 11 19 17 -5 3 -13 3 -46 0 -72 l-6 -48
35 -2 36 -1 -32 -4 -33 -4 0 -60 c0 -37 4 -58 10 -54 5 3 18 1 27 -4 16 -9 14
-10 -9 -11 -42 0 -37 -30 5 -32 l32 -1 -32 -4 c-32 -4 -33 -5 -33 -54 l0 -49
-65 0 c-36 0 -65 4 -65 8 0 5 25 6 55 4 l55 -4 0 52 0 51 -116 -2 c-74 -2
-110 -5 -100 -11 10 -6 16 -22 16 -44 0 -19 4 -33 9 -30 5 3 11 0 14 -7 4 -10
-4 -14 -24 -14 -19 0 -25 3 -17 9 9 5 6 8 -9 8 -12 0 -23 -6 -26 -12 -12 -34
-18 12 -18 135 1 88 -3 138 -10 143 -8 4 -8 8 -1 13 6 4 12 44 13 89 l2 82 26
-4 c14 -2 28 -5 31 -6z m-2734 -205 c2 -10 -2 -25 -8 -32 -8 -10 -7 -13 3 -14
8 0 5 -4 -6 -9 -15 -6 -16 -9 -4 -9 11 -1 16 -11 17 -31 1 -30 1 -30 -61 -32
l-62 -2 65 -5 65 -5 -80 -6 -80 -6 78 -2 c61 -2 77 -5 77 -17 0 -12 16 -15 82
-15 45 0 78 -3 75 -7 -4 -3 0 -11 8 -17 12 -8 -11 -11 -90 -9 -64 1 -103 -2
-100 -8 4 -5 1 -9 -5 -9 -6 0 -4 -10 6 -25 8 -13 13 -29 9 -35 -4 -6 -2 -17 5
-25 14 -17 2 -24 -33 -18 -37 7 -55 43 -39 78 6 14 8 25 4 26 -58 5 -76 9 -85
18 -8 8 10 12 69 13 l79 2 -100 6 -100 6 98 2 c53 1 97 6 97 11 0 5 -42 6 -92
4 -67 -3 -89 -2 -78 6 10 7 11 11 3 11 -23 0 -14 20 10 21 21 2 21 2 -3 7 -20
5 -17 7 20 13 l45 6 -50 3 c-49 3 -49 3 -15 10 31 7 32 7 8 9 -21 1 -28 6 -28
21 0 17 7 20 43 22 l42 1 -45 6 c-36 4 -24 7 55 11 l100 6 -102 2 c-85 2 -101
4 -97 17 4 10 27 15 87 18 111 4 110 5 113 -18z m-2796 -435 c-63 -3 -108 -8
-100 -11 8 -3 6 -4 -5 -2 -11 3 -91 7 -177 9 -145 4 -158 3 -158 -14 0 -14 -2
-14 -9 -3 -7 11 -35 14 -121 13 -62 -1 -115 -4 -118 -7 -3 -3 46 -6 109 -6 63
-1 101 -4 85 -6 -23 -4 -26 -7 -15 -14 9 -6 -8 -9 -53 -7 -38 2 -68 6 -68 11
0 4 -18 7 -41 7 -24 0 -38 4 -34 10 3 5 2 10 -4 10 -5 0 -11 -5 -13 -11 -2 -5
-23 -13 -46 -16 -37 -5 -42 -4 -36 12 4 10 1 21 -7 26 -10 6 -6 9 14 9 15 0
27 -4 27 -10 0 -5 -4 -10 -10 -10 -5 0 -10 -4 -10 -8 0 -17 33 -8 38 10 4 17
26 18 366 20 198 2 393 1 431 -2 66 -5 63 -5 -45 -10z"/>
<path d="M10940 810 c8 -5 15 -20 16 -34 0 -14 -3 -23 -7 -21 -16 10 -39 -8
-39 -31 0 -22 4 -24 55 -24 30 0 55 5 55 10 0 6 9 10 20 10 11 0 20 -4 20 -10
0 -5 23 -10 50 -10 46 0 50 2 50 24 0 13 -6 27 -12 29 -10 4 -10 6 0 6 6 1 12
10 12 21 0 19 -7 20 -99 20 -56 0 -103 4 -106 10 -3 6 -12 10 -18 10 -7 0 -6
-4 3 -10z"/>
<path d="M10910 620 c0 -49 4 -70 13 -70 8 0 7 -4 -3 -10 -13 -9 -13 -10 0
-10 13 0 13 -1 0 -10 -12 -8 -11 -10 8 -10 26 0 29 25 7 57 -22 31 -8 36 116
34 l109 -2 0 46 0 45 -125 0 -125 0 0 -70z"/>
<path d="M8092 1277 c-60 -95 -62 -100 -46 -118 12 -13 32 -19 63 -20 l46 -2
-39 -6 -39 -6 49 -57 c49 -59 70 -70 80 -43 7 18 31 20 36 3 6 -18 37 -1 48
26 5 14 23 44 40 67 16 23 30 46 30 51 0 17 -114 137 -124 131 -5 -3 -6 -1 -2
5 3 6 -5 23 -19 39 l-25 28 6 -62 c6 -54 4 -63 -10 -63 -12 0 -16 10 -17 38
-3 98 -9 97 -77 -11z"/>
</g>
</svg>
