<?xml version="1.0" standalone="no"?>
<!DOCTYPE svg PUBLIC "-//W3C//DTD SVG 20010904//EN"
 "http://www.w3.org/TR/2001/REC-SVG-20010904/DTD/svg10.dtd">
<svg version="1.0" xmlns="http://www.w3.org/2000/svg"
 width="565.000000pt" height="315.000000pt" viewBox="0 0 565.000000 315.000000"
 preserveAspectRatio="xMidYMid meet">
<metadata>
Created by potrace 1.13, written by Peter Selinger 2001-2015
</metadata>
<g transform="translate(0.000000,315.000000) scale(0.100000,-0.100000)"
fill="#000000" stroke="none">
<path d="M0 2689 c0 -365 3 -460 13 -457 17 7 138 42 227 66 114 31 239 55
261 49 10 -3 21 -1 24 3 3 5 47 29 98 53 350 168 335 162 537 220 29 9 68 11
110 7 36 -3 85 -3 109 2 24 4 48 5 53 2 6 -4 8 1 4 14 -6 19 -2 20 106 20 435
0 520 4 553 24 19 10 36 15 39 10 3 -6 -5 -13 -19 -16 -29 -7 -31 -18 -9 -40
8 -9 11 -16 5 -16 -5 0 -13 5 -17 11 -4 8 -9 7 -15 -2 -14 -22 -11 -29 12 -29
25 0 56 -16 86 -43 16 -14 30 -18 51 -14 18 4 37 0 51 -9 11 -8 21 -11 21 -6
0 6 -8 13 -17 17 -13 5 -3 11 37 21 90 22 229 -11 214 -51 -5 -12 -10 -13 -20
-4 -8 6 -22 8 -31 4 -10 -4 -36 -9 -58 -12 -24 -3 -44 -12 -53 -24 -9 -13 -20
-18 -33 -14 -20 7 -27 -9 -9 -18 6 -3 5 -4 -2 -3 -19 4 -20 22 -3 40 9 9 12
16 6 16 -5 0 -13 -4 -16 -10 -3 -5 -15 -10 -25 -10 -14 0 -18 5 -13 17 5 13 2
15 -18 10 -13 -4 -29 -7 -36 -7 -6 0 -9 -8 -6 -19 5 -20 -49 -67 -66 -57 -5 3
-8 -2 -7 -12 0 -9 -5 -16 -11 -14 -7 1 -13 -2 -13 -8 0 -5 -5 -10 -10 -10 -6
0 -9 3 -9 8 4 22 -3 31 -18 25 -11 -4 -14 -3 -9 5 4 7 14 12 22 12 8 0 24 9
36 20 l21 19 -24 11 c-13 6 -35 17 -49 25 -33 19 -59 19 -67 -1 -3 -8 -12 -13
-19 -10 -8 3 -11 0 -7 -10 3 -7 2 -14 -2 -14 -10 0 -40 32 -40 44 0 6 -17 11
-37 11 -48 1 -54 9 -29 34 12 12 19 21 17 21 -3 0 1 12 9 27 17 32 13 39 -11
25 -10 -6 -43 -8 -74 -4 -49 5 -54 3 -42 -10 11 -13 7 -16 -28 -22 -22 -3 -52
-3 -65 0 -14 3 -32 1 -40 -6 -11 -9 -20 -7 -44 11 -28 21 -31 21 -55 6 -13 -9
-44 -19 -68 -23 -24 -3 -50 -8 -58 -11 -8 -3 -29 -5 -47 -4 -29 2 -34 -2 -53
-44 -12 -27 -30 -50 -41 -52 -10 -3 -19 -13 -19 -23 0 -22 -19 -30 -71 -30
-21 0 -39 -4 -39 -10 0 -5 -5 -10 -11 -10 -5 0 -8 4 -5 9 8 12 -20 22 -40 14
-9 -3 -24 4 -36 17 -17 18 -27 21 -55 15 -22 -4 -33 -3 -29 4 4 5 -3 12 -13
16 -26 8 -61 -27 -61 -60 0 -16 -6 -25 -15 -25 -8 0 -15 -4 -15 -9 0 -4 -37
-9 -81 -9 -45 -1 -86 -6 -93 -10 -6 -5 -27 -12 -47 -16 -23 -4 -43 -17 -58
-36 -12 -17 -17 -30 -11 -30 21 0 9 -47 -20 -75 -34 -33 -31 -49 8 -33 15 6
54 13 87 15 33 2 70 11 82 19 29 18 30 18 36 -6 3 -13 0 -20 -9 -20 -8 0 -14
-4 -14 -10 0 -5 -6 -10 -14 -10 -8 0 -28 -11 -44 -25 -25 -21 -37 -24 -64 -19
-53 10 -63 10 -61 -2 1 -7 -9 -10 -25 -7 -18 2 -22 1 -10 -4 15 -7 15 -10 -2
-30 -14 -18 -29 -23 -64 -23 -50 0 -68 -17 -81 -77 -4 -19 -13 -33 -21 -33
-18 0 -18 -14 1 -30 13 -11 12 -16 -11 -37 -27 -24 -27 -46 0 -24 20 17 50 10
57 -14 4 -15 14 -20 37 -20 36 0 36 0 21 -44 -10 -27 -15 -31 -48 -31 -33 0
-38 -4 -54 -40 -9 -22 -17 -44 -17 -49 0 -5 19 -18 43 -29 54 -26 97 -20 97
14 0 13 9 28 20 34 11 6 20 17 20 26 0 34 98 30 119 -5 6 -9 11 -8 21 4 11 13
10 15 -2 10 -25 -10 -55 38 -49 78 2 13 41 -13 41 -27 0 -8 7 -16 15 -20 8 -3
15 -12 15 -21 0 -14 2 -14 23 0 21 13 25 13 45 -1 28 -19 28 -36 -1 -50 -12
-6 -41 -22 -65 -35 -35 -19 -46 -21 -60 -11 -9 7 -24 15 -32 18 -8 3 -23 10
-32 15 -28 14 -48 11 -48 -8 0 -32 15 -46 37 -35 21 11 63 5 63 -8 0 -5 14
-16 32 -25 31 -15 33 -15 50 7 15 21 17 21 24 5 4 -11 13 -16 21 -12 12 4 14
0 9 -21 -5 -19 -3 -25 6 -22 7 3 13 10 13 17 0 14 26 32 37 25 5 -3 -3 -15
-17 -26 -25 -19 -35 -58 -15 -58 6 0 30 -9 53 -20 59 -29 170 -35 219 -12 49
22 52 54 7 72 -19 8 -35 24 -41 42 -6 15 -16 28 -24 28 -8 0 -14 7 -14 15 0 8
-6 15 -13 15 -7 0 -22 7 -33 15 -18 15 -17 15 16 14 19 -1 43 2 53 6 12 5 23
0 37 -16 16 -20 19 -21 20 -6 0 21 18 23 26 2 4 -8 10 -12 15 -9 5 3 7 9 4 14
-3 4 2 13 10 20 12 10 18 6 33 -20 22 -35 19 -67 -7 -73 -10 -2 3 -13 37 -29
29 -14 62 -34 73 -44 18 -16 23 -16 42 -4 12 7 51 18 87 24 63 11 66 13 97 61
37 56 42 77 16 69 -10 -2 -8 1 4 7 29 15 55 5 46 -18 -7 -17 -6 -17 11 -1 9
10 15 22 11 28 -3 6 1 7 10 4 12 -5 13 -9 3 -21 -9 -11 -9 -16 3 -24 8 -5 10
-9 6 -9 -4 0 3 -12 17 -27 23 -25 30 -26 97 -25 62 2 75 6 94 26 16 17 22 35
20 58 -2 18 -3 45 -4 61 -1 15 -10 36 -20 46 -11 11 -17 22 -14 25 4 3 -2 15
-12 26 -18 19 -17 20 3 20 28 0 28 10 1 45 -18 22 -20 29 -8 36 8 5 9 9 3 9
-7 0 -14 7 -17 14 -4 10 -1 13 9 9 10 -3 12 0 8 10 -3 8 -15 15 -27 16 -30 1
-67 7 -100 16 -20 5 -25 11 -17 20 13 16 2 25 -32 25 -29 0 -38 -14 -15 -24 9
-4 7 -9 -5 -18 -16 -11 -15 -14 10 -31 24 -16 24 -18 5 -12 -16 4 -23 2 -23
-8 0 -38 69 -45 90 -8 7 11 9 12 10 2 0 -7 6 -11 15 -7 13 5 65 -49 65 -67 0
-15 -44 -56 -54 -50 -7 4 -6 1 1 -7 6 -7 9 -19 6 -26 -3 -8 1 -14 11 -14 9 0
16 4 16 8 0 4 9 8 20 8 12 0 19 -5 16 -12 -3 -7 4 -14 15 -17 10 -3 19 -10 19
-17 0 -7 -8 -6 -22 4 -29 21 -35 20 -41 -4 -3 -11 -10 -20 -17 -20 -7 0 -9 8
-5 19 4 15 -3 21 -40 31 -25 7 -47 16 -50 20 -7 12 36 52 51 46 8 -3 22 -2 32
2 13 5 8 8 -18 12 -65 10 -157 -32 -102 -47 21 -5 21 -5 1 -26 -10 -11 -19
-27 -19 -34 0 -8 -4 -11 -10 -8 -5 3 -10 -3 -10 -14 0 -12 -5 -21 -11 -21 -5
0 -8 4 -5 9 12 19 -19 39 -52 34 -28 -5 -33 -9 -30 -28 3 -14 0 -22 -9 -22 -8
0 -12 6 -9 13 3 8 0 11 -9 8 -20 -8 -27 -34 -10 -34 8 0 15 -4 15 -10 0 -12
-20 -13 -39 -1 -8 5 -11 16 -8 25 5 11 0 19 -16 25 -40 15 -79 22 -74 14 3 -5
-9 -8 -26 -8 -32 1 -87 30 -87 45 0 5 -9 6 -20 3 -12 -3 -20 0 -20 7 0 7 -8 9
-19 5 -13 -4 -20 0 -24 15 -5 21 -37 29 -37 9 0 -7 -9 -9 -23 -5 -15 3 -29 -1
-39 -12 -9 -9 -23 -22 -31 -29 -8 -7 -17 -18 -20 -25 -5 -11 -7 -11 -15 0 -5
7 -13 12 -18 11 -25 -4 -32 5 -40 49 -4 26 -8 52 -9 57 -1 6 -3 16 -3 23 -1 6
-7 12 -12 12 -6 0 -10 -6 -8 -12 2 -7 -2 -14 -7 -15 -6 -2 -10 7 -10 18 0 16
-12 26 -40 37 -22 8 -41 16 -42 17 -1 0 0 11 4 24 3 13 11 20 19 17 8 -3 14 1
14 8 0 8 6 17 13 20 9 5 9 7 -1 12 -15 7 17 51 52 69 19 10 27 10 38 -1 7 -7
38 -18 68 -24 29 -6 63 -16 74 -24 15 -9 29 -10 45 -4 18 6 34 2 67 -17 24
-14 44 -30 44 -35 0 -6 7 -10 16 -10 8 0 12 5 9 10 -3 6 1 10 9 10 10 0 13 -6
10 -15 -5 -11 1 -15 20 -15 19 0 29 7 36 26 9 22 15 26 42 22 22 -4 38 1 51
13 16 14 23 15 38 6 28 -17 23 -27 -11 -27 -20 0 -39 -9 -54 -25 -24 -26 -46
-33 -46 -15 0 6 -5 10 -11 10 -6 0 -9 -7 -5 -15 3 -8 1 -16 -4 -16 -20 -3 -25
-4 -37 -12 -18 -11 -16 -27 2 -27 8 0 15 -7 15 -15 0 -17 -9 -19 -29 -6 -24
15 -63 -17 -59 -48 2 -15 9 -26 17 -26 8 0 19 -15 23 -32 8 -30 28 -47 28 -24
0 6 55 9 131 8 118 -2 132 0 144 17 21 28 11 34 -44 28 -28 -2 -58 -1 -68 3
-34 15 -48 14 -66 -6 -11 -11 -22 -17 -25 -14 -4 4 1 12 11 19 9 7 17 19 17
27 0 28 14 37 40 26 32 -12 70 -15 76 -5 3 4 19 8 35 8 18 0 28 4 24 10 -3 6
-15 10 -26 10 -10 0 -19 4 -19 8 0 5 14 7 30 4 35 -5 39 10 9 32 -23 16 -18
39 6 29 9 -3 15 1 15 11 0 9 6 16 13 17 6 0 -4 8 -23 16 l-35 16 28 11 c35 13
34 22 -3 35 -20 7 -30 17 -30 30 0 12 4 21 9 21 5 0 13 9 16 21 6 19 29 22 31
3 6 -52 18 -74 40 -74 28 0 41 18 20 26 -9 3 -16 11 -16 16 0 6 8 7 17 4 16
-6 16 -6 0 12 -44 48 0 57 61 12 23 -17 42 -26 42 -21 0 14 -48 49 -86 63 -19
6 -34 16 -34 20 0 14 19 9 75 -21 41 -22 55 -26 55 -15 0 8 5 14 11 14 8 0 7
5 -2 16 -7 9 -18 26 -24 38 -8 16 -21 22 -59 24 -41 3 -48 0 -53 -17 -6 -23
-11 -25 -32 -12 -9 6 -19 4 -28 -5 -18 -17 -91 -39 -100 -30 -5 4 0 12 9 17
60 34 97 89 48 74 -13 -4 -19 1 -24 20 -4 15 -20 34 -36 43 -44 25 -36 35 20
28 45 -6 50 -5 50 12 0 12 -12 24 -31 32 -26 11 -28 15 -15 22 27 15 61 5 62
-17 2 -47 5 -54 24 -60 11 -3 20 -12 20 -19 0 -9 21 -15 63 -19 55 -5 64 -4
78 15 14 18 18 19 38 7 19 -12 24 -12 35 4 7 9 17 17 22 17 14 1 54 37 54 50
0 15 41 3 56 -16 6 -8 16 -14 21 -14 5 0 18 -9 28 -20 11 -12 29 -19 51 -18
19 1 34 3 34 4 0 2 -17 11 -37 20 -21 9 -33 18 -27 20 17 7 64 -14 70 -31 4
-8 17 -15 30 -15 13 0 24 -3 24 -8 0 -10 -38 -42 -50 -42 -5 0 -21 -12 -35
-27 -20 -22 -25 -24 -25 -10 0 9 -5 17 -11 17 -5 0 -7 -4 -4 -10 4 -6 -6 -10
-22 -10 -25 0 -29 -4 -27 -27 1 -25 4 -28 40 -29 21 -1 42 3 45 8 3 5 22 9 42
10 24 1 37 6 37 15 0 7 5 13 10 13 6 0 8 12 6 28 -5 24 -4 25 8 10 14 -19 28
-14 19 7 -3 9 2 13 16 12 14 -1 19 -6 16 -17 -2 -8 -1 -21 4 -29 8 -12 13 -12
35 3 14 9 26 20 26 24 -1 17 -19 33 -35 30 -10 -2 -20 3 -22 10 -3 7 1 10 11
6 19 -7 21 7 4 25 -11 11 -9 13 12 7 14 -3 29 -6 34 -6 5 0 3 -7 -4 -15 -10
-12 -10 -15 3 -15 8 0 20 7 27 15 7 8 19 15 26 15 15 0 19 12 7 23 -3 4 -12 2
-19 -4 -7 -6 -18 -7 -25 -3 -8 5 -4 13 12 25 29 22 56 24 101 5 32 -14 35 -19
36 -61 2 -33 -2 -47 -13 -51 -8 -4 -15 -12 -15 -20 0 -8 -7 -14 -15 -14 -9 0
-12 -6 -9 -17 4 -13 3 -14 -3 -5 -14 19 -45 4 -38 -19 7 -20 -9 -27 -20 -9
-10 17 -35 12 -28 -6 4 -12 0 -14 -21 -8 -24 6 -26 4 -26 -25 0 -21 5 -31 15
-31 8 0 15 -4 15 -10 0 -5 -5 -10 -11 -10 -6 0 -9 -12 -7 -27 2 -22 9 -29 33
-33 22 -4 31 -11 33 -28 4 -28 19 -29 18 0 -1 15 7 23 25 28 40 11 53 -2 50
-53 -2 -39 1 -46 21 -53 13 -4 29 -7 37 -5 8 1 10 -2 5 -11 -4 -7 -7 -27 -5
-44 1 -21 -3 -33 -13 -37 -10 -4 -16 -18 -16 -35 0 -25 -5 -30 -29 -35 -18 -4
-32 -14 -36 -27 -3 -11 -12 -20 -20 -20 -16 0 -45 27 -46 43 0 7 -4 3 -8 -8
-5 -13 -2 -30 11 -50 25 -41 24 -75 -3 -75 -11 0 -18 4 -15 9 3 4 -6 6 -21 3
-25 -5 -25 -6 -8 -18 10 -8 22 -14 27 -14 4 0 8 -4 8 -10 0 -5 -9 -10 -20 -10
-28 0 -47 -43 -33 -73 37 -80 41 -132 13 -147 -11 -6 -18 -15 -15 -20 3 -6 -1
-7 -9 -4 -22 8 -19 -6 7 -38 27 -33 48 -24 49 21 1 39 13 48 29 22 7 -10 19
-17 26 -14 7 3 13 0 13 -6 0 -6 -4 -11 -10 -11 -16 0 -12 -27 5 -34 8 -3 15
-13 15 -23 0 -12 3 -14 8 -6 5 8 21 8 62 -3 30 -8 63 -13 72 -10 9 2 18 0 20
-4 5 -14 136 -20 141 -7 2 7 4 -1 4 -16 0 -18 -4 -27 -12 -24 -27 11 -130 18
-116 9 11 -8 10 -12 -8 -23 -23 -15 -28 -35 -9 -41 8 -3 7 -10 -4 -26 -13 -20
-17 -21 -28 -7 -12 15 -53 12 -76 -6 -13 -11 -84 16 -84 31 0 6 -5 10 -11 10
-7 0 -5 -9 4 -24 9 -13 14 -32 11 -42 -3 -12 3 -24 15 -31 16 -10 22 -9 37 8
9 10 25 19 34 19 10 0 21 7 24 16 3 8 9 13 13 11 5 -3 25 -8 46 -11 33 -5 40
-3 44 14 3 11 10 20 15 20 6 0 8 -9 5 -20 -3 -11 -2 -18 2 -15 5 2 22 -1 39
-7 24 -9 34 -9 46 1 9 8 16 16 16 20 0 13 -58 29 -68 19 -6 -6 -11 -2 -15 11
-3 12 -1 24 4 27 5 3 9 0 9 -7 0 -7 3 -9 7 -6 3 4 13 1 22 -7 29 -26 90 -18
92 13 0 9 3 11 5 4 6 -15 49 -1 78 25 14 14 37 17 110 16 50 0 106 -4 125 -9
26 -6 33 -5 29 6 -6 19 35 49 69 49 31 0 93 51 93 76 0 11 4 13 16 6 9 -5 25
-7 35 -5 18 5 53 -20 43 -30 -3 -2 6 -7 20 -9 14 -3 23 -1 20 3 -3 5 4 9 14 9
13 0 24 10 30 29 6 16 9 31 7 33 -2 1 49 4 113 5 136 2 205 10 197 24 -8 11 7
17 65 23 25 3 65 8 90 11 89 12 134 11 169 -2 20 -8 44 -16 53 -19 10 -4 20
-15 23 -25 4 -13 17 -19 38 -21 18 0 37 -2 42 -3 6 -2 23 -3 39 -4 21 -1 27
-5 22 -17 -3 -8 -2 -12 4 -9 6 3 10 0 10 -9 0 -8 6 -17 13 -20 6 -3 2 -3 -10
0 -18 4 -20 1 -16 -15 3 -11 13 -23 23 -26 10 -3 24 -13 31 -23 11 -14 11 -15
-1 -4 -23 20 -38 14 -34 -16 2 -15 1 -21 -2 -14 -7 15 -34 16 -34 1 0 -8 -5
-8 -15 1 -8 7 -15 21 -15 31 0 17 -17 19 -82 10 -4 -1 -5 -8 -2 -16 4 -9 19
-15 35 -15 23 0 32 -6 39 -26 7 -19 14 -23 23 -17 18 14 60 -10 45 -25 -7 -7
-20 -12 -29 -12 -25 0 -34 -19 -12 -27 33 -12 44 -25 32 -39 -6 -7 -17 -10
-25 -7 -10 4 -12 0 -8 -11 9 -23 -13 -20 -28 4 -13 21 -78 29 -78 10 0 -5 13
-7 30 -4 22 5 30 3 30 -7 0 -23 -13 -34 -52 -46 -30 -9 -38 -8 -42 4 -4 9 0
13 11 11 32 -6 26 30 -9 52 -38 23 -52 25 -45 7 3 -8 -3 -13 -14 -13 -12 0
-15 4 -9 10 6 6 10 14 10 20 0 6 -5 5 -12 -2 -17 -17 -31 -15 -25 2 4 10 1 13
-9 9 -7 -3 -14 0 -14 6 0 6 7 11 16 11 8 0 12 4 9 10 -9 14 -52 12 -58 -2 -3
-9 -10 -8 -26 6 -25 23 -34 17 -34 -23 0 -25 -3 -28 -18 -18 -12 7 -22 8 -31
1 -9 -8 -21 -7 -38 2 -22 12 -19 16 7 13 4 0 10 8 14 18 7 17 8 17 8 -1 1 -15
4 -16 16 -6 8 6 19 9 25 5 5 -3 10 -2 10 4 0 5 -9 11 -20 13 -12 2 -21 6 -20
11 0 7 -37 47 -44 47 -2 0 -7 -11 -10 -25 -5 -21 -11 -24 -31 -19 -15 4 -25 2
-25 -5 0 -6 5 -11 10 -11 6 0 10 -4 10 -9 0 -5 -11 -8 -25 -8 -15 0 -25 5 -25
13 0 8 -4 14 -9 14 -4 0 -4 -20 2 -45 6 -28 16 -45 25 -45 12 0 12 -3 2 -15
-10 -12 -6 -18 25 -37 33 -19 36 -23 19 -29 -30 -12 -34 -10 -34 11 0 14 -7
20 -21 20 -14 0 -19 5 -16 13 8 21 -6 37 -23 27 -11 -7 -12 -11 0 -24 17 -21
5 -33 -15 -16 -12 10 -19 10 -27 2 -14 -14 -32 -16 -24 -3 3 4 -15 1 -40 -7
-30 -10 -42 -18 -35 -26 14 -17 19 -75 7 -81 -7 -3 -7 -7 2 -11 17 -8 15 -24
-2 -24 -8 0 -18 9 -21 20 -9 28 -25 25 -25 -5 0 -26 -14 -33 -26 -14 -3 6 0
15 7 20 10 6 2 9 -23 9 -20 0 -40 -5 -43 -10 -4 -6 -10 -8 -15 -5 -5 3 -11 1
-15 -5 -3 -6 1 -13 9 -16 28 -11 17 -24 -14 -17 -18 3 -30 1 -30 -5 0 -6 4
-12 9 -14 5 -1 12 -18 16 -36 6 -27 4 -32 -12 -32 -30 0 -65 30 -60 51 4 16
-1 19 -29 19 -24 0 -34 -5 -34 -15 0 -14 11 -19 37 -16 6 1 13 -9 15 -21 2
-16 9 -22 21 -20 11 2 28 -4 38 -14 11 -9 22 -14 26 -11 3 4 12 2 20 -5 10 -8
20 -8 39 3 l26 14 -28 12 c-28 12 -28 12 18 13 26 0 50 -4 53 -10 3 -5 28 -10
55 -10 27 0 52 -5 55 -10 3 -6 17 -10 31 -10 17 0 24 5 24 20 0 13 7 20 20 20
23 0 27 -18 6 -26 -9 -4 -13 -20 -11 -55 3 -55 -1 -61 -34 -52 -16 4 -21 12
-19 27 2 12 10 20 18 18 12 -3 12 0 -2 14 -12 12 -25 15 -52 10 -35 -7 -48
-28 -26 -41 13 -8 13 -45 -1 -45 -5 0 -7 -5 -4 -10 8 -13 -40 -31 -74 -28 -20
2 -25 -1 -23 -14 4 -26 -15 -22 -21 4 -5 18 -8 19 -21 8 -9 -7 -16 -9 -16 -4
0 4 -5 3 -12 -4 -7 -7 -25 -12 -40 -12 -21 0 -28 -5 -28 -19 0 -13 -10 -21
-32 -26 -37 -9 -37 -9 -59 0 -11 4 -18 -1 -22 -15 -6 -24 -27 -19 -27 6 0 10
-6 13 -17 10 -10 -3 -25 -1 -33 5 -12 9 -11 10 5 4 19 -6 19 -5 -2 17 -13 12
-35 22 -49 23 -42 0 -41 23 1 31 28 5 33 9 24 20 -6 8 -8 22 -3 36 10 30 11
41 5 53 -3 6 -6 17 -8 25 -2 15 -30 40 -46 40 -4 0 -5 -5 -1 -11 5 -8 1 -8
-14 0 -11 6 -31 11 -44 11 -25 1 -58 21 -58 37 0 5 -10 9 -21 9 -12 -1 -24 5
-26 12 -3 6 2 12 11 12 8 0 18 5 21 10 5 7 -3 8 -22 3 -15 -4 -40 -7 -55 -6
-34 3 -38 -4 -28 -47 l8 -35 7 33 c8 34 25 44 25 14 0 -11 -9 -27 -20 -37 -18
-16 -23 -17 -45 -5 -25 14 -33 44 -15 55 19 12 11 38 -10 32 -11 -3 -18 -1
-14 4 3 5 -12 8 -33 8 -21 -1 -30 -3 -20 -6 21 -5 23 -23 2 -23 -8 0 -15 -7
-15 -16 0 -10 6 -14 14 -11 8 3 26 -6 40 -20 26 -26 34 -53 16 -53 -5 0 -10 5
-10 11 0 5 -4 8 -9 5 -5 -3 -14 1 -21 9 -11 13 -16 12 -42 -10 -16 -14 -42
-28 -56 -32 -15 -3 -33 -15 -41 -25 -9 -14 -16 -17 -24 -9 -21 21 -30 11 -24
-25 5 -29 3 -35 -9 -30 -9 3 -18 6 -20 6 -2 0 -4 8 -4 18 0 14 -10 17 -55 18
-30 0 -58 4 -62 8 -13 13 21 26 62 25 61 -1 62 -1 25 25 -31 21 -37 22 -51 10
-9 -8 -36 -16 -60 -17 -37 -2 -43 1 -48 21 -3 13 -10 22 -16 20 -5 -1 -9 -9
-7 -16 2 -8 -1 -11 -7 -8 -5 4 -12 2 -15 -3 -3 -5 -21 -9 -40 -8 -25 1 -36 6
-39 19 -8 29 -37 11 -37 -22 0 -16 -4 -32 -10 -35 -6 -3 -10 3 -10 14 0 11 -4
23 -10 26 -5 3 -10 -1 -10 -9 0 -16 -15 -22 -23 -8 -3 4 -1 17 4 30 6 17 15
22 38 20 16 -1 37 4 47 12 13 12 18 12 21 3 6 -18 33 -16 33 2 0 8 7 15 15 15
8 0 15 5 15 10 0 15 -38 12 -43 -3 -2 -6 -3 -4 -1 6 1 10 -5 21 -14 23 -9 3
-25 10 -34 15 -10 5 -26 9 -36 9 -10 0 -23 5 -30 12 -9 9 -12 8 -12 -6 0 -9
-5 -14 -10 -11 -5 3 -10 16 -10 28 0 20 0 20 -15 1 -14 -19 -15 -19 -20 1 -5
18 -14 21 -61 21 -38 0 -54 -4 -54 -13 0 -9 -8 -11 -24 -7 -13 3 -33 1 -44 -5
-14 -7 -23 -8 -27 -1 -11 18 -20 11 -20 -15 0 -29 6 -30 47 -9 20 10 42 14 62
10 17 -4 41 -7 53 -6 29 0 35 -12 23 -44 -11 -31 -26 -34 -33 -6 -5 20 -37 29
-37 10 0 -5 6 -10 13 -10 8 0 8 -3 1 -8 -6 -4 -14 -15 -17 -25 -4 -11 -16 -21
-27 -24 -14 -4 -21 -15 -22 -37 -1 -17 -2 -39 -2 -48 -1 -10 -7 -23 -14 -30
-9 -9 -15 -8 -27 8 -19 25 -19 36 1 32 25 -4 28 19 5 27 -27 8 -61 -3 -55 -18
2 -7 -2 -21 -10 -32 -14 -19 -15 -19 -40 9 -29 30 -29 30 -83 -17 -12 -11 -27
-16 -33 -12 -9 6 -9 9 0 15 18 11 2 30 -26 30 -27 0 -28 -3 -14 -31 8 -14 7
-19 -2 -19 -8 0 -19 14 -25 31 -10 27 -15 30 -27 20 -20 -17 -36 -5 -36 26 0
18 4 24 15 19 8 -3 22 -9 30 -12 27 -11 16 21 -12 37 -27 15 -63 10 -99 -13
-13 -9 -54 27 -54 47 0 8 -5 15 -11 15 -17 0 -59 48 -59 68 0 9 -5 24 -10 32
-8 13 -11 12 -24 -5 -9 -11 -16 -14 -16 -7 0 6 -5 12 -10 12 -6 0 -5 -8 2 -19
10 -16 15 -18 27 -8 11 9 13 9 8 0 -4 -6 -3 -14 3 -18 19 -12 0 -23 -34 -20
-27 2 -35 -1 -39 -16 -3 -10 -1 -19 4 -19 6 0 9 -7 7 -16 -2 -10 3 -19 10 -21
7 -3 10 1 6 11 -4 9 -1 16 6 16 7 0 19 8 26 17 7 10 16 14 21 10 4 -5 -1 -15
-12 -23 -17 -13 -18 -18 -6 -49 7 -19 9 -40 6 -45 -11 -18 -30 -5 -30 20 0 18
-6 23 -28 26 -29 3 -56 28 -57 51 0 7 11 20 24 28 31 21 33 64 2 66 -11 1 -26
1 -33 0 -6 -1 -14 3 -18 9 -3 5 1 10 9 10 9 0 16 7 16 15 0 18 12 19 28 3 14
-14 82 -19 82 -7 0 4 14 0 32 -8 30 -16 62 -10 58 11 -1 5 4 12 10 16 7 4 9
13 5 19 -5 9 -10 9 -21 0 -12 -10 -13 -9 -9 4 9 21 -10 30 -34 15 -18 -11 -23
-10 -35 7 -9 11 -16 26 -16 33 0 7 -13 12 -32 12 -44 0 -54 8 -62 53 -6 32
-10 36 -22 27 -16 -14 -19 -40 -4 -40 6 0 10 -4 10 -10 0 -5 -6 -10 -14 -10
-14 0 -31 -27 -27 -44 1 -4 -3 -14 -10 -22 -8 -10 -5 -19 16 -38 14 -13 22
-27 17 -30 -5 -3 -9 -22 -10 -42 -2 -61 -11 -77 -38 -70 -17 5 -24 2 -24 -9 0
-8 -7 -15 -15 -15 -8 0 -12 6 -9 14 3 7 -2 16 -10 19 -9 4 -16 13 -16 22 0 9
-9 15 -25 15 -14 0 -25 5 -25 10 0 6 11 10 25 10 18 0 26 7 31 25 4 14 9 24
12 21 3 -3 11 2 18 12 12 15 15 15 24 2 15 -23 13 -53 -4 -47 -20 8 -39 -18
-31 -43 8 -26 41 -23 37 4 -2 10 4 23 13 29 11 9 14 21 9 45 -7 33 -7 33 -53
26 -56 -8 -62 -11 -55 -29 6 -15 -31 -39 -46 -30 -15 9 -12 25 5 25 8 0 15 9
15 20 0 11 -4 20 -10 20 -5 0 -10 -6 -10 -12 0 -7 -15 4 -32 25 -18 20 -39 37
-45 37 -7 0 -22 8 -32 17 -19 15 -19 17 -3 29 23 17 9 28 -18 14 -26 -14 -72
-9 -78 8 -2 7 5 16 17 19 12 3 21 13 21 25 0 15 5 18 23 13 21 -7 21 -6 3 7
-19 15 -19 15 1 35 18 18 22 18 39 5 18 -13 18 -14 -6 -8 l-25 7 21 -18 c11
-10 23 -25 26 -33 4 -11 9 -7 17 13 6 15 16 27 22 27 8 0 8 4 -1 15 -17 20 -5
32 15 15 18 -15 17 -15 34 28 18 43 32 41 26 -3 -3 -30 -1 -37 18 -44 12 -5
24 -5 27 -1 3 4 34 5 70 4 36 -2 88 -4 115 -5 28 -1 55 -5 61 -10 6 -5 24 -5
42 0 17 5 32 8 34 6 2 -2 5 8 6 22 2 30 -27 63 -56 63 -11 0 -25 7 -32 15 -6
8 -17 13 -23 12 -6 -1 -13 7 -15 19 -3 23 -59 54 -96 54 -19 0 -25 7 -30 35
-4 20 -4 41 -1 48 4 6 -4 0 -17 -15 -13 -16 -29 -28 -36 -28 -13 0 -16 -40 -6
-78 5 -17 10 -20 19 -12 16 13 32 -7 18 -21 -10 -10 -73 8 -73 21 0 5 -15 7
-34 6 -32 -3 -116 31 -86 35 55 6 67 6 82 -2 16 -9 17 -5 13 28 -6 46 -33 74
-73 75 -21 1 -32 7 -35 19 -7 27 -35 34 -56 15 -19 -18 -41 -21 -41 -6 0 5 8
13 18 19 16 9 16 11 -3 25 -11 8 -27 16 -35 17 -23 3 -61 5 -108 7 -35 2 -45
6 -49 22 -3 11 -8 20 -12 20 -4 0 -16 8 -27 18 -23 22 -64 13 -64 -13 0 -20
-10 -19 -25 2 -12 16 -18 16 -59 5 -72 -19 -86 -16 -51 13 34 28 32 34 -12 28
-39 -6 -47 -25 -24 -55 24 -30 36 -68 22 -68 -6 0 -11 5 -11 10 0 6 -4 10 -10
10 -5 0 -10 -8 -10 -19 0 -19 34 -31 86 -31 13 0 24 -5 24 -11 0 -6 -8 -8 -17
-5 -19 5 -103 9 -115 6 -13 -4 -27 -7 -40 -10 -33 -6 53 -15 94 -10 54 7 59 0
23 -36 -14 -14 -25 -29 -25 -34 0 -5 -9 -14 -20 -20 -31 -17 -24 -36 20 -49
22 -7 38 -17 35 -24 -2 -6 -6 -33 -9 -58 l-5 -45 32 -2 c68 -2 108 -15 135
-43 15 -16 34 -29 42 -30 8 -1 4 -4 -10 -8 -25 -7 -24 -8 8 -15 22 -5 32 -13
32 -27 0 -23 15 -25 24 -4 3 8 10 15 16 15 6 0 8 -5 5 -11 -10 -15 25 -38 58
-39 15 0 27 -4 27 -10 0 -5 -5 -10 -11 -10 -7 0 -9 -10 -7 -25 6 -32 -14 -33
-31 -2 -10 19 -32 34 -78 54 -8 3 -13 -2 -13 -11 0 -12 -10 -16 -40 -16 -22 0
-40 -4 -40 -9 0 -6 24 -7 56 -4 49 5 56 4 60 -14 3 -11 22 -28 42 -38 20 -10
31 -20 24 -22 -6 -3 -12 -9 -12 -15 0 -6 7 -8 15 -4 25 9 17 -12 -14 -33 -16
-12 -42 -21 -57 -21 -30 0 -110 -26 -133 -44 -22 -17 -62 -18 -80 -1 -9 8 -28
24 -42 35 -30 22 -44 69 -23 77 8 3 14 18 14 33 0 26 -4 29 -53 40 -43 9 -55
15 -65 40 -10 21 -10 34 -3 49 16 30 -23 100 -56 101 -7 0 -13 -6 -13 -14 0
-8 -5 -18 -10 -21 -15 -9 -40 14 -40 36 0 11 -5 19 -11 19 -5 0 -8 4 -4 9 3 5
7 23 9 39 2 24 0 29 -14 25 -26 -7 -39 87 -16 121 14 22 14 24 -4 29 -19 5
-19 -7 -20 -549 0 -305 3 -554 7 -554 5 1 46 34 93 75 47 41 92 75 101 75 9 0
28 -9 43 -21 15 -11 33 -18 41 -16 8 4 28 -12 50 -39 20 -24 49 -51 63 -58 15
-8 40 -32 56 -53 16 -22 46 -51 67 -66 21 -15 43 -41 51 -57 7 -17 22 -33 33
-36 11 -4 41 -28 68 -55 l47 -49 200 0 c116 0 200 4 200 9 0 5 -8 11 -17 13
-15 3 -14 8 11 31 16 15 37 27 47 27 10 0 23 8 28 17 9 16 10 16 11 -4 0 -13
6 -23 14 -23 7 0 25 -9 39 -20 33 -26 39 -25 31 5 -5 22 -3 25 19 25 26 0 67
-40 67 -66 0 -8 7 -14 15 -14 8 0 15 6 15 13 0 7 9 18 20 25 19 12 20 11 14
-13 -6 -24 -5 -25 45 -25 28 0 51 5 51 10 0 6 7 10 15 10 8 0 15 -4 15 -10 0
-16 22 -12 36 8 13 16 13 16 14 0 0 -11 8 -18 21 -18 18 0 20 4 14 32 -4 18
-18 41 -31 51 -13 10 -22 22 -19 27 2 4 -8 10 -24 13 -20 4 -28 12 -27 24 0
12 -6 18 -19 18 -11 0 -21 8 -23 18 -2 10 -13 17 -27 17 -13 0 -28 6 -32 14
-4 7 -30 16 -58 19 -81 10 -126 21 -128 32 -3 20 -102 64 -142 65 -23 0 -47 6
-53 12 -10 10 -14 10 -21 0 -5 -9 -11 -5 -20 14 -11 25 -13 25 -30 10 -10 -9
-25 -16 -34 -16 -9 0 -18 -4 -22 -10 -3 -5 -12 -7 -20 -4 -8 4 -12 10 -9 15 3
5 -11 25 -30 45 -20 21 -36 46 -36 56 0 16 -3 17 -20 8 -16 -9 -20 -8 -20 5 0
18 -46 38 -72 32 -19 -5 -83 32 -105 61 -7 9 -13 28 -13 42 0 23 -6 28 -51 40
-27 8 -52 18 -55 22 -3 4 -14 8 -25 8 -10 0 -19 4 -19 9 0 5 -8 11 -19 14 -10
2 -23 18 -29 36 -10 28 -9 31 12 37 13 3 41 1 62 -5 62 -17 98 -14 123 12 13
15 19 30 15 41 -6 14 -2 16 22 10 41 -10 65 -24 59 -33 -9 -15 23 -33 52 -29
20 2 28 -1 28 -12 0 -8 18 -23 40 -33 56 -26 76 -47 69 -69 -7 -23 21 -25 34
-1 9 14 10 14 17 -6 4 -13 2 -28 -5 -36 -10 -12 -10 -15 0 -15 6 0 20 -10 30
-23 14 -17 29 -22 65 -22 33 0 51 -6 60 -18 13 -18 45 -23 45 -7 0 5 17 9 38
8 20 0 54 4 75 10 30 8 39 7 43 -3 3 -7 28 -19 55 -25 27 -7 52 -17 55 -22 4
-6 22 -16 41 -24 22 -10 33 -20 31 -31 -3 -18 62 -61 95 -62 10 -1 32 -9 50
-18 18 -9 52 -19 77 -22 36 -5 45 -10 45 -26 0 -16 8 -21 38 -23 36 -3 37 -4
32 -35 -7 -39 8 -68 26 -50 6 6 13 22 14 36 6 56 49 86 98 68 13 -5 123 -12
244 -15 174 -4 224 -3 238 8 13 9 29 11 54 5 65 -15 100 -11 125 16 31 33 46
32 46 -4 0 -17 6 -33 13 -38 6 -4 57 -13 112 -18 121 -13 156 -2 231 70 43 42
49 45 60 30 11 -15 13 -15 21 0 5 9 17 17 26 19 9 1 20 5 23 9 12 12 24 8 24
-9 0 -8 -4 -13 -9 -10 -5 4 -20 2 -33 -3 -22 -9 -22 -10 7 -10 17 -1 41 5 55
12 42 22 90 28 132 16 33 -8 43 -7 57 5 10 9 21 13 24 10 4 -4 13 -1 22 6 8 7
15 9 16 4 1 -19 18 33 18 59 1 30 21 36 41 12 10 -12 9 -15 -4 -15 -10 0 -14
-5 -10 -11 4 -7 22 -9 45 -6 22 3 41 1 44 -3 8 -13 48 -3 61 15 6 8 18 15 26
15 8 0 18 4 23 9 6 5 24 11 40 13 17 2 39 11 49 21 12 10 28 15 40 11 12 -3
29 -8 38 -10 10 -3 25 6 39 26 17 22 31 30 54 30 17 0 41 7 53 16 12 8 26 13
31 10 5 -3 20 4 35 15 14 11 26 16 26 10 0 -20 18 -11 55 26 44 44 99 75 120
67 8 -3 15 -1 15 5 0 10 -40 16 -82 12 -20 -2 -22 7 -8 29 9 13 10 13 10 0 0
-11 4 -9 12 5 6 11 17 25 25 32 9 7 14 30 14 68 0 52 2 57 34 78 25 16 33 28
31 43 -2 12 4 45 13 75 17 49 17 55 2 66 -14 11 -14 12 2 13 13 0 17 5 12 19
-5 17 -2 18 29 11 38 -8 59 12 29 28 -14 8 -14 10 1 15 23 9 20 26 -9 39 -14
6 -25 17 -25 25 0 11 5 10 25 -3 14 -9 27 -15 29 -13 12 14 14 58 3 73 -7 10
-11 35 -9 58 4 34 9 42 32 51 16 6 34 22 41 36 10 21 13 23 16 9 3 -12 14 -18
34 -18 42 0 38 32 -11 82 -39 40 -40 40 -81 30 -30 -8 -49 -8 -62 0 -14 7 -22
7 -27 -1 -5 -8 -19 -6 -51 8 -24 12 -36 21 -26 21 9 0 17 7 17 15 0 18 46 31
63 17 11 -9 77 -5 172 11 5 1 10 -4 11 -10 1 -7 2 -17 3 -23 0 -5 8 -10 16
-10 8 0 24 -9 35 -20 21 -21 46 -28 35 -10 -10 16 65 43 101 37 45 -8 72 -39
85 -97 6 -28 15 -50 20 -50 5 0 9 -9 9 -20 0 -11 10 -38 21 -60 12 -23 23 -49
24 -58 0 -9 4 -33 8 -52 4 -19 9 -57 11 -85 3 -27 10 -76 17 -108 6 -34 7 -62
2 -70 -5 -6 -8 -38 -7 -69 1 -32 -2 -55 -7 -52 -9 5 -15 -14 -27 -86 l-7 -44
-17 34 -18 35 0 -75 c0 -52 -7 -92 -21 -130 -30 -78 -47 -137 -56 -195 -6 -38
-13 -52 -30 -60 -13 -5 -23 -18 -23 -27 0 -10 -4 -18 -10 -18 -5 0 -10 -6 -10
-14 0 -17 -42 -85 -52 -86 -4 0 -23 14 -41 30 -19 17 -37 30 -41 30 -3 0 -6
-27 -6 -60 0 -54 -2 -60 -20 -60 -17 0 -19 4 -14 28 4 15 10 34 14 42 4 8 5
20 3 27 -2 6 1 14 6 18 6 3 11 14 11 25 0 10 7 20 15 24 8 3 12 12 9 21 -9 22
-24 19 -24 -5 0 -12 -10 -25 -25 -32 -15 -7 -25 -20 -25 -32 0 -12 -7 -31 -15
-42 -8 -12 -16 -33 -19 -47 -9 -52 -83 -141 -113 -135 -10 2 -19 13 -21 26 -4
24 -18 29 -25 10 -5 -13 -6 -11 -21 34 -6 21 -42 24 -61 4 -8 -7 -30 -17 -50
-20 -31 -6 -38 -3 -61 24 -32 38 -44 38 -44 0 0 -16 -4 -30 -10 -30 -5 0 -10
18 -10 40 0 46 -11 52 -28 15 -6 -14 -19 -25 -28 -25 -14 0 -16 8 -11 45 2 26
6 48 8 50 3 2 23 5 46 7 23 3 48 10 55 16 11 9 19 8 35 -3 20 -14 33 -11 33 7
0 4 -7 8 -16 8 -9 0 -14 6 -11 13 2 6 9 11 14 10 5 -1 14 12 20 28 9 23 9 29
-3 29 -8 0 -14 -6 -14 -12 0 -9 -4 -8 -10 2 -8 12 -13 13 -27 2 -34 -23 -44
-24 -63 -7 -17 15 -22 16 -36 4 -14 -11 -18 -11 -21 -1 -3 7 -21 12 -44 12
-24 0 -39 5 -39 12 0 8 -6 6 -17 -4 -13 -14 -14 -20 -4 -32 21 -25 -8 -30 -32
-4 -33 35 -51 33 -66 -7 -10 -28 -15 -33 -29 -25 -9 5 -34 12 -54 15 -21 3
-38 11 -38 17 0 7 -5 6 -15 -2 -8 -7 -21 -10 -29 -7 -7 3 -24 -2 -36 -10 -22
-15 -24 -15 -40 5 -10 12 -20 18 -24 15 -3 -3 -1 -12 5 -20 6 -7 9 -14 5 -14
-12 -3 -21 -6 -37 -13 -10 -4 -23 -7 -30 -5 -34 4 -42 0 -29 -16 10 -12 10
-19 2 -27 -9 -9 -12 -9 -12 0 0 19 -18 14 -25 -7 -5 -17 -15 -18 -118 -14 -61
3 -115 9 -118 15 -4 6 -12 8 -18 4 -6 -4 -21 -2 -33 5 -50 27 -74 15 -166 -81
l-87 -91 -75 -6 c-135 -10 -235 -7 -261 9 -13 8 -53 16 -89 17 -51 2 -77 9
-118 32 l-52 29 -53 -38 c-84 -62 -109 -71 -183 -67 -62 4 -104 -8 -104 -27 0
-5 410 -8 910 -8 640 0 910 3 910 11 0 6 7 17 15 26 14 14 15 13 9 -11 l-6
-26 550 0 551 0 -6 35 c-5 30 -3 34 11 29 9 -3 16 -1 16 5 0 6 -6 11 -13 11
-16 0 -43 148 -30 161 15 15 94 14 103 -1 8 -13 27 -11 89 6 17 5 22 4 17 -4
-4 -7 -16 -12 -27 -12 -10 0 -19 -4 -19 -10 0 -5 13 -7 31 -3 62 12 24 -20
-59 -50 -45 -16 -82 -34 -82 -38 0 -13 24 -11 37 2 6 6 19 9 29 7 15 -4 11 -8
-16 -20 -33 -15 -33 -16 -10 -18 22 -2 21 -3 -10 -13 -29 -9 -31 -11 -13 -14
12 -3 38 0 57 6 29 7 36 7 36 -4 0 -9 -6 -12 -15 -9 -8 4 -17 -1 -21 -10 -3
-9 -12 -16 -20 -16 -12 0 -12 -4 -2 -19 11 -18 25 -20 210 -21 109 0 198 3
198 6 0 8 -43 97 -50 104 -3 3 -6 14 -7 25 -1 11 -8 38 -16 60 -8 22 -12 42
-8 45 5 3 11 16 14 30 4 14 23 36 43 50 20 14 45 33 56 43 10 10 27 16 36 13
9 -3 24 -1 32 4 12 8 12 10 -3 16 -9 3 -24 4 -32 1 -8 -4 -17 -2 -20 3 -4 6 4
11 17 11 77 4 95 6 111 13 13 6 17 4 17 -12 0 -31 -11 -52 -26 -52 -10 0 -1
-20 26 -60 23 -34 52 -84 66 -113 l24 -52 0 167 c0 101 -4 169 -10 173 -13 8
-13 52 0 60 7 4 10 452 10 1311 l0 1304 -1636 0 c-1450 0 -1635 -2 -1630 -15
8 -22 -4 -45 -24 -45 -10 0 -32 14 -48 30 l-30 30 -1141 0 -1141 0 0 -461z
m4056 266 c18 -20 42 -35 55 -36 13 0 40 -6 59 -13 l35 -13 -25 -13 c-34 -17
-60 -50 -60 -78 0 -14 -4 -21 -11 -16 -6 3 -9 15 -6 25 4 14 0 19 -14 19 -18
0 -24 -15 -20 -47 1 -7 -3 -13 -9 -13 -5 0 -10 4 -10 9 0 5 -10 11 -22 13 -14
2 -23 10 -22 20 1 11 -4 14 -14 11 -10 -4 -13 -2 -10 8 3 8 10 13 16 12 5 -1
12 9 15 23 3 19 1 24 -10 19 -12 -4 -14 0 -9 19 7 28 -11 46 -25 25 -6 -11 -9
-8 -9 8 0 18 30 45 59 52 3 1 19 -15 37 -34z m359 -85 c3 -5 19 -10 34 -10 17
0 63 -22 114 -54 47 -30 107 -62 133 -72 26 -10 80 -40 120 -66 40 -26 78 -48
84 -48 6 0 39 -24 73 -52 54 -46 67 -64 97 -135 19 -46 38 -83 42 -83 5 0 8
-6 8 -14 0 -20 56 -142 81 -178 12 -16 28 -50 35 -75 12 -38 11 -47 0 -59 -12
-11 -15 -11 -20 2 -3 8 -2 12 4 9 25 -16 6 15 -22 37 -33 25 -33 25 -63 6 -28
-17 -31 -17 -42 -1 -12 15 -13 15 -19 0 -3 -10 -12 -17 -19 -17 -7 0 -16 -6
-19 -12 -5 -10 -7 -10 -12 0 -8 18 -32 15 -61 -8 -27 -21 -48 -27 -39 -11 4 5
2 20 -3 33 -10 28 -5 40 24 56 l20 11 -20 7 c-30 11 -75 56 -75 75 0 10 9 21
20 24 22 7 27 24 8 26 -53 5 -73 10 -102 29 -36 22 -49 42 -40 64 3 7 -2 16
-10 19 -10 4 -16 19 -16 42 0 19 -4 35 -10 35 -14 0 -31 -37 -24 -54 4 -11 0
-16 -14 -16 -12 0 -24 5 -27 10 -4 7 -13 4 -23 -8 -14 -15 -23 -17 -52 -10
-19 5 -47 10 -61 10 -16 1 -25 6 -23 13 5 11 -18 26 -69 45 -34 12 -26 33 9
24 14 -4 36 -1 49 6 20 11 27 11 40 0 12 -10 15 -10 15 2 0 8 -3 18 -7 22 -13
13 -11 35 3 29 8 -3 14 0 14 6 0 17 20 13 28 -6 4 -10 19 -19 33 -20 22 -1 26
2 22 18 -3 10 -10 19 -15 19 -5 0 2 14 16 31 30 35 25 53 -11 44 -24 -6 -25
-4 -18 22 11 45 11 47 -5 50 -8 2 -23 -9 -33 -24 l-18 -28 5 33 c9 50 -14 35
-32 -21 l-15 -47 -49 36 c-28 19 -52 33 -54 31 -3 -2 0 -16 6 -31 7 -20 7 -25
-2 -20 -7 5 -9 0 -6 -14 4 -15 2 -19 -8 -15 -21 8 -18 -37 4 -53 9 -7 12 -14
5 -14 -6 0 -28 16 -49 35 -25 23 -43 33 -55 30 -12 -4 -23 2 -35 20 -9 14 -22
24 -28 23 -16 -3 -56 21 -56 34 0 7 4 7 13 1 13 -10 54 -10 64 1 3 3 1 6 -6 6
-7 0 -10 4 -7 9 3 5 -1 11 -9 15 -17 6 -21 36 -5 36 6 0 10 5 10 10 0 6 -9 10
-20 10 -11 0 -20 5 -20 10 0 6 4 10 10 10 5 0 25 14 44 31 l36 31 12 -27 c10
-21 16 -25 37 -20 22 6 23 4 11 -10 -7 -9 -19 -14 -26 -11 -7 3 -16 1 -19 -4
-4 -6 3 -10 14 -10 11 0 25 -9 31 -20 13 -25 30 -26 23 -2 -2 10 5 28 16 41
12 13 21 26 21 28 0 9 -35 68 -45 75 -5 4 2 8 17 8 15 0 30 -4 33 -10z m-1735
-130 c58 -6 123 -15 145 -20 22 -6 96 -17 164 -25 68 -8 127 -17 130 -20 8 -9
-21 -25 -46 -25 -13 0 -23 -5 -23 -11 0 -5 -6 -7 -12 -3 -7 5 -22 8 -33 8 -11
1 -21 6 -22 11 -1 6 10 9 25 8 21 -2 23 0 12 7 -18 12 -70 13 -70 2 0 -5 -14
-7 -30 -6 -35 2 -53 -22 -54 -71 -1 -25 -6 -31 -28 -33 -30 -4 -90 32 -115 68
-11 16 -22 20 -39 16 -16 -4 -24 -2 -24 7 0 10 -17 14 -62 14 -35 0 -85 5
-113 10 -28 6 -60 7 -72 2 -15 -5 -23 -4 -27 7 -8 20 -40 17 -61 -6 -10 -11
-15 -20 -11 -20 8 0 -44 -50 -53 -51 -3 0 -14 -2 -24 -4 -13 -2 -17 1 -13 10
3 8 1 17 -4 20 -6 4 -10 -1 -10 -10 0 -9 -4 -13 -10 -10 -6 4 -3 16 8 33 9 14
22 41 28 58 9 26 9 31 -2 27 -8 -3 -14 0 -14 7 0 8 18 10 68 4 37 -4 74 -7 82
-6 99 13 159 18 180 16 14 -2 72 -8 130 -14z m1053 -77 c-5 -13 -2 -15 16 -10
14 3 24 0 28 -9 6 -15 53 -9 65 10 4 7 14 4 27 -8 10 -10 28 -16 38 -15 10 2
24 0 31 -5 9 -5 18 -2 26 9 11 15 18 16 42 7 l29 -10 -33 -13 c-27 -11 -32
-18 -27 -36 3 -13 1 -23 -5 -23 -5 0 -10 7 -10 15 0 9 -9 15 -22 15 -16 0 -19
-3 -10 -9 7 -4 14 -22 14 -39 1 -27 5 -32 25 -32 12 0 23 -6 23 -12 0 -9 4 -8
10 2 8 12 10 13 10 1 0 -11 6 -9 23 6 35 33 60 43 80 32 28 -16 21 18 -8 37
-24 15 -27 15 -44 0 -18 -17 -43 -21 -54 -9 -10 9 25 32 51 33 13 0 20 4 17
10 -4 6 1 7 12 3 27 -10 50 -27 51 -38 1 -23 21 -14 30 15 15 41 39 38 60 -7
18 -41 30 -53 51 -53 8 0 11 6 7 15 -3 9 0 15 10 15 10 0 14 -6 10 -17 -3 -12
7 -27 34 -48 22 -16 39 -33 40 -37 0 -13 -34 4 -53 26 -16 18 -18 18 -13 3 5
-15 2 -17 -14 -12 -14 5 -20 2 -20 -9 0 -9 -5 -16 -11 -16 -8 0 -8 -4 0 -14
14 -17 -11 -41 -34 -32 -19 7 -19 -4 0 -31 8 -12 12 -28 9 -37 -10 -27 10 -18
54 23 36 34 45 38 65 28 l23 -10 -24 -24 c-19 -19 -21 -27 -12 -38 14 -17 52
-16 46 2 -3 7 -1 13 3 13 5 0 11 -7 15 -15 7 -19 -23 -35 -64 -35 -17 0 -29
-4 -25 -9 3 -5 0 -13 -6 -17 -9 -5 -10 1 -5 19 5 22 3 25 -11 20 -12 -5 -15
-2 -10 10 3 9 2 17 -3 17 -14 0 -70 -60 -70 -76 0 -9 -4 -13 -9 -10 -5 3 -11
-8 -13 -24 -3 -21 1 -35 14 -47 13 -12 17 -25 13 -41 -5 -19 -3 -23 9 -19 10
4 16 1 16 -8 0 -8 -4 -15 -10 -15 -12 0 -2 -29 18 -53 17 -19 51 -14 65 9 4 8
15 14 22 14 27 0 13 -32 -20 -44 -14 -5 -16 -9 -7 -15 7 -4 10 -15 6 -25 -5
-13 -9 -15 -15 -5 -6 10 -13 7 -29 -12 -21 -24 -21 -24 -15 -1 5 19 2 22 -20
22 -15 0 -24 -4 -20 -10 4 -6 11 -8 16 -4 6 3 5 -3 -3 -15 -7 -12 -21 -21 -30
-21 -18 0 -22 9 -19 43 1 9 -2 17 -8 17 -6 0 -8 17 -5 40 4 35 2 40 -16 40
-13 0 -20 7 -20 19 0 22 -16 37 -22 21 -5 -17 -58 13 -58 33 0 9 0 20 -1 24 0
4 5 9 12 12 8 2 10 -2 5 -15 -5 -13 -4 -16 3 -9 5 6 11 17 13 25 2 8 11 21 21
28 24 18 21 29 -10 46 -24 12 -26 15 -10 21 21 9 23 35 2 35 -8 0 -15 5 -15
11 0 6 -6 9 -12 6 -40 -14 -58 -17 -58 -9 0 11 20 21 67 32 25 6 33 4 36 -9 3
-9 5 -4 6 10 1 22 -4 28 -28 32 -28 6 -29 9 -28 51 2 55 -5 63 -37 42 -14 -9
-31 -16 -38 -15 -10 0 -10 2 0 6 6 2 12 9 12 14 0 6 -4 8 -9 5 -13 -8 -72 5
-66 14 3 5 -3 6 -14 3 -10 -3 -22 0 -25 6 -4 7 1 11 13 11 22 0 29 24 10 35
-6 4 -14 17 -19 29 -8 21 -8 21 -15 1 -3 -11 -12 -33 -20 -48 -8 -15 -10 -25
-5 -22 6 3 10 4 10 1 0 -4 -89 -56 -97 -56 -3 0 -3 7 1 15 7 20 6 19 -34 -10
-41 -31 -54 -32 -47 -4 3 12 3 18 0 15 -4 -3 -14 0 -22 8 -9 8 -27 16 -41 18
-38 5 -51 17 -46 44 3 15 0 24 -9 24 -7 0 -15 7 -19 15 -4 12 0 14 19 9 18 -5
25 -2 25 9 0 23 68 0 76 -26 5 -15 12 -18 35 -13 18 3 33 0 43 -10 8 -8 21
-13 28 -12 8 2 12 -5 11 -17 -1 -19 -1 -19 12 -2 7 10 18 16 25 15 7 -2 15 3
17 11 4 10 0 11 -17 6 -17 -5 -23 -2 -27 15 -4 15 -11 20 -24 17 -10 -3 -16 0
-13 7 3 7 -9 11 -28 12 -18 1 -57 10 -86 21 l-53 20 53 18 c35 11 54 13 56 6
2 -6 8 -11 13 -11 4 0 6 7 3 15 -4 9 0 15 10 15 10 0 13 -5 9 -17z m-501 -43
c6 0 6 -6 -2 -15 -10 -13 -5 -21 31 -54 43 -39 44 -40 24 -55 -11 -8 -26 -16
-32 -16 -12 0 -14 -6 -12 -26 1 -12 -46 -31 -56 -22 -12 10 -45 11 -45 0 0 -5
-14 -9 -30 -9 -20 0 -26 3 -18 9 10 6 9 8 -3 8 -9 0 -22 11 -29 25 -11 21 -11
29 0 51 12 22 12 27 0 34 -8 6 -12 10 -7 11 12 3 22 6 37 13 9 3 25 6 35 5 51
-5 65 1 65 27 0 20 4 25 16 20 9 -3 20 -6 26 -6z m238 -115 c5 -14 15 -25 22
-25 7 -1 -4 -10 -24 -20 -20 -11 -39 -24 -43 -29 -7 -12 55 -25 113 -25 33 1
42 -3 42 -16 0 -10 12 -26 27 -35 l26 -18 -24 -18 c-24 -18 -24 -19 -2 -19 12
0 25 -5 28 -10 4 -6 11 -8 16 -5 18 12 8 -21 -11 -35 -23 -16 -27 -32 -6 -24
13 5 38 -25 49 -61 6 -17 -1 -24 -41 -43 -38 -17 -62 -21 -122 -19 -59 2 -79
-1 -94 -15 -10 -9 -15 -21 -11 -27 3 -7 -2 -11 -14 -11 -14 0 -21 -6 -21 -20
0 -13 -7 -20 -18 -20 -27 0 -53 -32 -42 -50 5 -8 10 -48 10 -89 0 -58 4 -77
18 -87 14 -11 14 -15 3 -23 -8 -5 -11 -16 -6 -30 4 -14 1 -29 -8 -39 -8 -9
-22 -33 -30 -53 -8 -21 -24 -38 -36 -42 -18 -4 -21 -1 -21 30 0 20 -4 52 -10
72 -5 20 -14 62 -20 94 -9 45 -15 57 -30 57 -10 0 -22 -5 -25 -11 -4 -6 -13
-8 -21 -5 -7 3 -16 1 -19 -4 -4 -6 2 -10 12 -10 15 0 16 -2 3 -10 -13 -9 -13
-10 1 -10 11 0 19 -17 27 -64 18 -98 16 -147 -8 -153 -10 -3 -26 -16 -35 -29
-8 -13 -22 -24 -30 -24 -8 0 -15 -4 -15 -10 0 -5 -9 -10 -19 -10 -15 0 -19 7
-19 30 1 32 -23 66 -53 75 -15 5 -19 16 -19 51 0 43 -11 56 -27 32 -4 -7 -8
-22 -8 -33 0 -13 -8 -21 -22 -23 -28 -4 -30 -38 -8 -102 8 -23 15 -58 15 -77
0 -19 7 -41 15 -50 14 -13 17 -12 35 9 11 12 19 29 20 36 0 19 57 15 64 -5 4
-9 2 -21 -4 -27 -17 -17 -12 -36 8 -29 13 5 11 -1 -8 -21 -32 -35 -64 -32 -68
7 -3 23 -6 26 -18 16 -8 -6 -14 -17 -14 -25 0 -28 -23 -62 -38 -57 -8 4 -21
-2 -28 -12 -12 -16 -14 -17 -20 -2 -3 10 -12 17 -20 17 -9 0 -14 12 -15 38 0
35 -1 36 -11 12 -6 -14 -10 -28 -10 -32 1 -5 -3 -8 -9 -8 -6 0 -9 6 -6 14 3 8
0 17 -7 19 -9 4 -18 -10 -27 -36 -8 -23 -13 -45 -11 -49 1 -5 -3 -8 -8 -8 -6
0 -10 -7 -10 -15 0 -18 -21 -20 -38 -3 -8 8 -15 8 -26 -1 -17 -15 -26 -3 -16
23 4 14 9 16 14 8 11 -18 36 -15 44 6 4 9 20 38 36 65 15 26 26 54 22 62 -3 8
0 17 5 21 6 3 8 17 4 31 -5 22 -3 24 22 21 15 -2 33 -10 40 -18 11 -13 12 -12
13 8 0 13 -6 22 -14 22 -9 0 -13 7 -11 20 3 14 -2 20 -14 20 -25 0 -33 66 -15
120 13 37 13 46 -1 72 -17 36 -19 55 -5 60 6 2 4 24 -5 58 -8 30 -15 62 -15
70 0 20 37 66 46 58 4 -4 1 -14 -6 -23 -7 -8 -10 -30 -8 -49 2 -19 0 -32 -5
-29 -5 3 -1 -6 8 -21 14 -21 25 -26 56 -26 33 0 39 3 39 21 0 11 4 18 9 14 6
-3 8 4 6 16 -2 12 2 37 10 55 13 32 13 35 -5 47 -25 15 -26 30 -2 23 13 -4 20
3 31 32 7 20 13 50 12 65 0 15 4 38 9 51 8 23 11 24 50 14 37 -10 43 -8 62 12
16 17 18 26 11 43 -6 12 -15 37 -21 55 -10 30 -9 34 12 44 18 8 29 6 50 -7 14
-10 26 -22 26 -27 0 -15 98 -4 144 16 36 15 38 17 21 30 -17 12 -17 13 -1 19
10 4 22 5 27 1 13 -8 11 -54 -3 -54 -6 0 -9 -2 -7 -4 2 -2 26 1 53 8 44 11 48
14 30 24 -18 11 -18 11 4 12 l22 0 -20 20 c-11 11 -25 20 -31 20 -8 0 -9 4 0
13 6 8 9 16 6 19 -3 3 1 20 9 39 14 33 13 36 -7 49 -22 14 -22 14 8 21 17 4
33 7 38 8 4 0 12 -10 17 -24z m-960 -238 c0 -13 -6 -32 -14 -42 -14 -20 -11
-49 5 -39 5 3 7 10 4 15 -4 5 -1 9 4 9 6 0 11 -6 11 -13 0 -7 12 -25 27 -41
22 -24 27 -38 25 -74 -1 -25 -4 -47 -7 -50 -2 -3 -16 3 -30 12 -14 9 -29 14
-34 12 -5 -3 -21 6 -35 19 -33 31 -40 31 -66 3 -11 -12 -20 -18 -21 -12 0 5
-2 23 -2 39 -1 19 -8 31 -17 31 -8 1 -23 2 -32 3 -12 1 -15 6 -11 17 6 15 8
15 21 -2 14 -18 14 -18 8 -1 -3 11 0 25 9 34 8 8 12 19 9 25 -5 8 6 9 32 6 34
-5 43 -1 74 30 19 19 29 31 23 28 -7 -4 -13 -2 -13 3 0 6 7 11 15 11 9 0 15
-9 15 -23z m293 -1540 c21 -8 44 -23 53 -35 16 -23 46 -20 37 4 -3 8 -4 14 -2
14 2 0 19 4 37 9 26 8 32 7 32 -6 0 -9 -6 -13 -14 -10 -8 3 -24 -6 -37 -19
-13 -14 -29 -22 -36 -20 -21 9 -25 -12 -3 -24 15 -8 25 -7 44 5 30 20 73 11
82 -17 3 -11 0 -25 -6 -32 -10 -8 -11 -8 -7 0 4 7 -2 14 -13 17 -11 3 -20 1
-20 -4 0 -15 -61 -41 -86 -36 -16 3 -34 -6 -61 -30 -51 -47 -39 -67 43 -71 56
-3 104 -24 108 -47 0 -5 -30 -13 -68 -17 -49 -5 -74 -12 -91 -28 -33 -31 -118
-37 -195 -16 -47 13 -65 15 -75 6 -16 -13 -35 -5 -35 14 0 20 -36 27 -130 26
l-84 -1 19 21 c14 15 26 19 45 15 21 -5 34 1 59 24 l32 30 -41 26 c-41 26 -60
26 -60 -1 0 -8 -5 -14 -11 -14 -6 0 4 -12 21 -26 35 -30 34 -39 -1 -25 -18 6
-28 5 -38 -6 -12 -13 -17 -11 -37 14 -29 35 -26 48 12 48 21 0 30 5 32 20 9
44 82 78 82 38 0 -20 28 -53 45 -53 7 0 15 -7 19 -15 7 -18 37 -20 54 -3 9 9
15 9 25 -1 10 -10 9 -14 -5 -22 -9 -5 -23 -15 -30 -23 -7 -7 -19 -11 -26 -8
-17 5 -15 -8 5 -30 20 -22 33 -23 33 -3 0 26 97 14 148 -19 18 -11 22 -5 16
21 -7 27 -32 37 -50 22 -11 -9 -18 -6 -33 12 -12 15 -16 28 -10 34 5 5 9 17 9
28 0 14 -5 17 -21 12 -14 -5 -19 -3 -15 3 17 28 126 24 126 -4 0 -8 -5 -14
-12 -14 -6 0 -9 -2 -6 -5 3 -3 19 -2 37 1 26 6 29 8 16 18 -9 6 -15 20 -14 31
6 58 -1 85 -21 85 -30 0 -100 23 -100 33 0 5 21 7 48 4 77 -8 101 -13 118 -28
9 -7 29 -12 46 -11 18 2 27 -2 23 -8 -3 -5 -13 -10 -20 -10 -8 0 -20 -10 -26
-22 -7 -13 -19 -28 -27 -34 -8 -6 -13 -16 -11 -22 5 -15 69 27 69 44 0 6 7 17
15 24 17 14 15 74 -3 92 -9 9 -12 9 -12 0 0 -7 -9 -12 -20 -12 -13 0 -18 5
-14 15 4 8 1 15 -5 15 -6 0 -11 5 -11 10 0 13 7 12 53 -3z m2325 -23 c12 -12
27 -15 61 -10 40 5 44 4 29 -8 -22 -16 -23 -25 -2 -41 15 -10 15 -13 -1 -28
-15 -16 -15 -18 0 -33 8 -9 22 -13 30 -10 8 3 17 1 20 -5 4 -5 10 -7 15 -4 4
3 10 -5 14 -18 4 -16 -1 -28 -22 -44 l-27 -23 53 -1 c71 -2 68 -1 92 -31 l21
-28 -32 -19 c-30 -19 -89 -95 -89 -117 0 -6 -12 -17 -26 -24 -23 -13 -27 -12
-35 3 -11 19 -69 23 -86 6 -22 -22 -33 -5 -18 25 8 15 15 46 15 67 0 48 22 85
56 93 35 9 29 26 -8 24 l-33 -3 1 58 c1 39 -3 57 -11 57 -18 0 -43 31 -51 65
-4 17 -11 35 -16 42 -6 7 -3 13 9 16 10 3 19 5 21 6 2 0 11 -6 20 -15z m-3138
-123 c0 -4 -5 -12 -11 -18 -8 -8 -2 -16 20 -29 17 -10 31 -26 31 -36 0 -15 7
-16 50 -11 34 4 50 2 50 -6 0 -6 9 -11 21 -11 15 0 19 5 15 15 -9 25 20 17 38
-10 9 -14 22 -25 29 -25 19 0 36 -20 30 -36 -3 -9 -13 -12 -29 -8 -14 4 -31 1
-39 -6 -13 -11 -18 -10 -28 4 -14 19 -98 26 -151 12 -16 -4 -32 -4 -35 1 -3 4
-15 13 -26 19 -13 7 -20 22 -21 42 0 18 -3 35 -7 38 -4 4 0 18 9 32 8 13 13
26 10 30 -3 3 -6 1 -6 -4 0 -5 -11 -11 -25 -12 -31 -2 -32 14 -3 37 19 16 24
16 50 4 15 -8 28 -18 28 -22z m-938 -371 c7 -11 18 -20 24 -20 6 0 17 -7 24
-15 6 -8 17 -13 23 -12 16 3 21 -44 6 -54 -7 -4 -21 -3 -30 2 -10 5 -24 9 -31
8 -10 0 -10 -2 0 -6 13 -5 17 -83 4 -83 -5 0 -15 11 -22 25 -7 14 -17 25 -22
25 -12 0 -10 -24 4 -38 9 -9 8 -12 -7 -12 -25 1 -57 43 -49 64 3 9 10 16 15
16 17 0 9 45 -11 58 -11 7 -20 19 -20 27 0 18 16 20 24 3 4 -9 10 -6 22 10 20
27 30 28 46 2z"/>
<path d="M3255 2195 c-16 -13 -35 -24 -41 -25 -17 0 -55 -50 -48 -63 17 -30
38 -46 48 -38 20 15 66 19 77 5 6 -7 16 -11 24 -8 7 3 16 1 20 -5 12 -21 31
-11 48 24 20 42 20 45 6 45 -5 0 -7 -4 -4 -10 3 -6 -4 -10 -17 -10 -18 0 -20
2 -8 10 12 8 12 10 -5 10 -11 0 -26 -9 -33 -20 -7 -12 -17 -18 -22 -15 -6 4
-8 10 -5 15 3 5 -6 12 -20 16 -18 4 -24 11 -21 21 3 8 6 18 6 23 0 4 13 13 30
20 16 7 27 16 24 21 -9 15 -28 10 -59 -16z"/>
<path d="M410 2305 c-25 -8 -126 -36 -225 -63 l-180 -48 -3 -242 c-2 -241 -2
-243 18 -232 14 8 20 21 20 48 0 46 44 125 96 172 22 19 53 53 69 74 57 75
148 156 176 156 28 0 72 43 74 72 1 10 9 26 18 36 13 14 14 21 5 30 -14 14
-11 14 -68 -3z"/>
<path d="M1723 1513 c-7 -2 -13 -13 -13 -24 0 -19 -12 -23 -58 -19 -20 1 -23
-2 -20 -27 2 -19 8 -27 18 -24 8 2 32 5 52 8 21 3 35 9 32 14 -3 5 2 6 10 3
14 -5 14 -8 0 -21 -8 -9 -13 -21 -10 -29 3 -7 0 -15 -7 -18 -9 -3 -9 -5 1 -5
6 -1 12 -6 12 -12 0 -6 -9 -8 -22 -3 -21 6 -21 5 -9 -10 8 -9 20 -15 28 -12
11 4 11 1 3 -14 -10 -18 -7 -20 20 -20 16 0 30 -4 30 -10 0 -5 14 -10 30 -10
23 0 30 -5 30 -19 0 -11 -5 -23 -11 -26 -6 -4 -9 0 -7 10 2 10 -3 20 -9 22 -7
3 -13 -2 -13 -11 0 -10 -9 -16 -22 -16 -33 -1 -60 -43 -56 -88 2 -26 8 -38 21
-40 10 -2 17 3 17 12 0 8 9 18 20 21 11 3 20 11 20 16 0 5 5 9 11 9 6 0 9 -7
6 -14 -8 -19 23 -10 41 12 16 20 16 40 0 24 -17 -17 -25 -15 -31 8 -7 26 28
27 62 1 l24 -18 -24 -17 c-24 -17 -23 -17 21 -10 25 4 71 22 102 40 57 33 88
31 48 -3 -26 -23 -26 -37 2 -30 13 4 26 0 32 -8 15 -20 56 -8 56 16 0 10 -8
23 -17 28 -17 10 -17 10 -1 11 9 0 20 -5 23 -10 4 -6 10 -8 15 -5 11 7 9 45
-2 45 -4 0 -8 11 -8 25 0 14 5 25 10 25 6 0 10 6 10 14 0 15 -27 29 -40 21
-13 -8 -60 17 -60 32 0 8 7 13 16 11 10 -2 19 3 21 10 3 6 0 12 -6 12 -6 0
-11 8 -11 18 0 14 -4 12 -20 -8 -11 -14 -18 -31 -15 -38 3 -8 0 -10 -7 -6 -19
12 -98 14 -98 3 0 -5 7 -9 16 -9 8 0 12 -5 8 -11 -3 -6 0 -15 7 -20 11 -7 10
-9 -3 -9 -10 0 -18 4 -18 9 0 4 -11 6 -24 4 -18 -4 -26 0 -31 16 -7 23 -30 28
-38 9 -4 -9 -6 -9 -6 -1 -1 6 -9 9 -20 6 -10 -3 -22 0 -25 6 -5 7 6 11 32 11
47 0 87 32 78 64 -3 11 -6 28 -6 37 0 9 -13 22 -29 29 -25 10 -39 9 -87 -9
-62 -22 -64 -22 -68 5 -3 19 -14 25 -33 17z"/>
<path d="M1250 1319 c0 -6 7 -8 16 -5 14 5 16 1 11 -24 -6 -25 -3 -30 13 -30
11 0 20 -5 20 -12 0 -6 7 -20 17 -30 15 -17 15 -18 -1 -18 -10 0 -14 -5 -11
-11 4 -6 14 -8 22 -5 16 7 43 -10 43 -26 0 -5 -10 -8 -22 -6 -20 3 -23 -1 -20
-27 4 -37 4 -37 46 -38 19 0 33 -3 31 -6 -3 -2 4 -11 16 -19 11 -8 23 -11 27
-7 4 4 1 10 -5 12 -18 6 -16 43 2 43 25 0 64 -23 80 -47 14 -21 14 -24 0 -29
-8 -4 -24 -4 -36 -1 -13 3 -19 1 -16 -6 2 -7 13 -13 25 -15 12 -2 22 -8 22
-13 0 -6 10 -9 23 -7 17 2 22 9 20 31 -1 17 3 27 12 27 9 0 12 -6 8 -17 -5
-14 -3 -15 6 -7 10 9 10 17 2 33 -7 12 -16 21 -21 21 -6 0 -10 5 -10 10 0 15
19 12 37 -6 9 -8 22 -13 29 -10 8 3 25 1 39 -4 16 -6 25 -6 25 0 0 6 7 10 15
10 8 0 15 5 15 10 0 6 -11 8 -25 4 -15 -4 -25 -2 -25 5 0 6 -17 11 -37 12 -21
0 -32 3 -25 6 14 6 16 33 2 33 -5 0 -10 7 -10 15 0 8 -4 15 -9 15 -5 0 -12 7
-15 15 -4 11 3 19 19 25 26 10 34 20 13 16 -7 -2 -33 -8 -57 -15 -39 -11 -45
-11 -53 3 -5 9 -21 16 -36 17 -71 0 -81 2 -76 11 3 5 0 15 -6 24 -10 11 -16
12 -26 3 -10 -8 -11 -16 -5 -23 6 -7 6 -18 1 -26 -7 -11 -11 -8 -19 14 -6 15
-9 31 -6 36 3 4 -7 11 -20 14 -14 4 -23 10 -20 15 2 5 -2 12 -11 15 -23 9 -34
7 -34 -5z"/>
<path d="M2135 1092 c-11 -2 -23 -9 -26 -14 -9 -15 1 -49 15 -47 27 3 35 -3
41 -30 3 -16 13 -35 21 -42 8 -6 14 -16 14 -21 0 -5 7 -19 16 -33 l15 -23 49
20 c43 18 49 23 48 50 -1 20 -5 27 -15 24 -7 -3 -13 1 -13 9 0 8 -4 15 -9 15
-5 0 -31 19 -57 43 -54 48 -69 55 -99 49z"/>
<path d="M3418 1067 c-16 -6 -28 -17 -28 -24 0 -7 -4 -13 -10 -13 -5 0 -10 7
-10 14 0 11 -14 8 -56 -15 -31 -16 -63 -29 -73 -29 -13 0 -14 -2 -2 -9 11 -7
7 -13 -18 -29 -30 -18 -31 -21 -16 -36 21 -20 36 -21 29 -1 -9 21 36 56 57 45
13 -8 41 -8 81 -1 4 0 10 10 13 21 3 11 13 20 22 20 9 0 13 -6 9 -15 -3 -9 1
-18 9 -21 19 -8 19 -24 0 -24 -8 0 -15 5 -15 10 0 19 -15 10 -32 -20 -14 -25
-15 -30 -3 -30 8 0 15 7 15 15 0 18 16 20 23 3 6 -17 29 6 45 44 11 28 2 45
-18 33 -16 -10 -11 11 5 25 13 11 13 15 3 21 -10 7 -9 9 4 9 9 0 20 5 23 10 8
13 -22 11 -57 -3z"/>
</g>
</svg>
