<?xml version="1.0" standalone="no"?>
<!DOCTYPE svg PUBLIC "-//W3C//DTD SVG 20010904//EN"
 "http://www.w3.org/TR/2001/REC-SVG-20010904/DTD/svg10.dtd">
<svg version="1.0" xmlns="http://www.w3.org/2000/svg"
 width="640.000000pt" height="920.000000pt" viewBox="0 0 640.000000 920.000000"
 preserveAspectRatio="xMidYMid meet">
<metadata>
Created by potrace 1.13, written by Peter Selinger 2001-2015
</metadata>
<g transform="translate(0.000000,920.000000) scale(0.100000,-0.100000)"
fill="#000000" stroke="none">
<path d="M3140 8896 c0 -9 8 -16 21 -16 11 0 17 -4 14 -10 -9 -14 -128 -13
-143 2 -9 9 -12 7 -12 -10 0 -13 -6 -22 -15 -22 -8 0 -15 5 -15 10 0 22 -87 5
-149 -29 -13 -7 -36 -10 -52 -7 -16 3 -29 1 -29 -4 0 -6 -3 -9 -7 -9 -32 5
-93 -3 -88 -11 3 -5 0 -10 -7 -10 -8 0 -20 -9 -28 -20 -8 -12 -26 -20 -42 -20
-22 0 -28 -5 -28 -21 0 -16 4 -19 18 -14 9 4 31 10 47 13 17 3 33 10 37 16 4
6 10 7 14 4 3 -4 -1 -14 -10 -23 -9 -9 -16 -21 -16 -26 0 -5 -6 -9 -14 -9 -8
0 -16 -5 -18 -11 -2 -6 -25 -11 -51 -11 -26 -1 -47 -5 -47 -11 0 -5 -11 -6
-25 -3 -15 4 -37 0 -55 -9 -16 -8 -40 -15 -55 -15 -14 0 -25 -6 -25 -12 0 -16
-55 -48 -80 -48 -10 0 -22 -4 -25 -10 -3 -5 -16 -10 -27 -10 -11 0 -28 -8 -37
-18 -9 -9 -29 -24 -46 -32 -16 -8 -39 -23 -50 -33 -27 -26 -125 -92 -177 -121
-24 -13 -79 -44 -123 -70 -44 -25 -86 -46 -93 -46 -20 0 -122 -50 -150 -74
-79 -68 -96 -86 -108 -122 -16 -46 -18 -104 -4 -104 16 0 11 -27 -6 -34 -9 -3
-14 -16 -13 -28 4 -46 -39 -104 -82 -110 -22 -3 -24 -8 -25 -63 -1 -72 -15
-103 -55 -117 -20 -7 -29 -17 -29 -32 0 -12 -9 -28 -20 -36 -36 -26 -16 -104
28 -113 19 -4 31 -15 40 -39 11 -29 10 -36 -10 -62 -14 -20 -17 -31 -10 -34 7
-2 12 -9 12 -16 0 -18 -24 -66 -32 -66 -5 0 -8 -9 -8 -19 0 -11 -6 -22 -12
-25 -10 -5 -10 -7 0 -12 14 -7 16 -46 3 -72 -50 -100 -51 -103 -36 -119 8 -8
15 -23 15 -33 0 -15 -10 -18 -68 -22 -51 -2 -76 -9 -100 -27 l-33 -23 -24 22
c-14 13 -42 26 -62 29 l-38 6 -5 123 c-6 140 -7 142 -88 142 -40 0 -56 -5 -69
-20 -16 -18 -30 -20 -155 -20 -160 0 -168 -4 -168 -80 0 -58 18 -80 66 -80
l34 0 0 -259 c0 -295 -4 -283 86 -285 85 -2 84 -6 84 291 0 246 1 253 20 253
19 0 20 -7 20 -253 0 -294 0 -292 77 -291 26 1 59 2 73 3 14 1 48 0 76 -3 30
-2 61 1 75 8 19 10 31 10 58 -2 22 -9 50 -12 73 -8 63 10 82 0 101 -53 9 -27
17 -58 17 -70 0 -11 5 -21 10 -21 6 0 10 -7 10 -15 0 -9 9 -35 20 -57 11 -23
20 -54 20 -69 0 -32 -19 -79 -32 -79 -20 0 -5 -30 18 -36 26 -7 26 -8 19 -72
-6 -59 -5 -65 9 -53 8 7 20 11 27 9 13 -4 20 -72 19 -170 -2 -88 11 -129 95
-313 47 -102 55 -156 75 -465 6 -91 15 -179 20 -196 6 -17 10 -44 10 -62 0
-17 5 -34 10 -37 6 -3 10 -17 10 -31 0 -13 5 -24 10 -24 6 0 10 -11 10 -25 0
-14 9 -44 19 -68 20 -44 49 -129 71 -207 7 -25 16 -54 20 -65 15 -38 49 -170
55 -215 4 -25 13 -67 21 -95 8 -27 18 -63 23 -80 5 -16 25 -82 45 -145 20 -63
45 -146 57 -185 12 -38 25 -83 30 -99 5 -16 9 -35 9 -42 0 -13 -72 -107 -133
-174 -18 -19 -48 -55 -67 -80 -49 -63 -160 -170 -176 -170 -8 0 -14 -4 -14 -9
0 -5 -9 -11 -20 -14 -15 -4 -20 -14 -20 -40 0 -40 7 -44 132 -77 42 -11 89
-25 105 -31 15 -6 38 -15 51 -20 53 -21 81 -36 152 -83 41 -27 93 -67 115 -88
22 -20 60 -47 85 -60 52 -25 149 -95 168 -120 7 -9 20 -24 29 -33 18 -18 20
-117 3 -123 -6 -2 -10 -11 -10 -20 0 -10 -16 -27 -35 -40 -30 -19 -47 -22
-125 -21 -49 0 -93 5 -96 10 -3 5 -16 9 -30 9 -14 0 -23 5 -22 12 2 7 -12 17
-29 22 -18 6 -36 18 -39 28 -3 10 -14 18 -24 18 -10 0 -35 8 -57 19 -44 21
-103 41 -124 41 -8 0 -20 9 -27 20 -14 23 -57 27 -65 5 -7 -17 -6 -17 53 -35
25 -7 49 -17 55 -22 5 -4 19 -8 31 -8 13 0 26 -4 29 -10 3 -5 15 -10 25 -10
43 0 214 -139 270 -219 8 -12 20 -21 26 -21 13 0 154 -137 154 -150 0 -5 6
-15 14 -23 24 -23 30 -81 12 -100 -9 -8 -16 -22 -16 -31 0 -31 -54 -56 -124
-56 -37 0 -66 4 -66 10 0 6 -7 10 -15 10 -21 0 -18 -28 8 -77 72 -136 90 -178
94 -217 5 -43 5 -44 -41 -71 -43 -25 -50 -26 -74 -14 -33 18 -62 47 -103 103
-18 25 -43 53 -56 61 -12 9 -23 24 -23 35 0 20 -33 36 -51 24 -20 -12 -293 -7
-297 6 -2 6 -11 17 -19 26 -22 21 -43 0 -43 -43 0 -26 -9 -43 -37 -72 -48 -47
-68 -80 -55 -93 11 -11 62 7 62 22 0 6 6 18 14 25 7 8 20 34 27 59 11 36 18
46 35 46 30 0 43 -20 54 -82 17 -94 40 -324 35 -359 -11 -87 -21 -134 -55
-254 -5 -16 -13 -46 -19 -65 -21 -74 -24 -85 -30 -90 -11 -9 -31 -75 -31 -101
0 -13 -11 -68 -25 -121 -22 -87 -23 -102 -12 -150 6 -29 12 -101 12 -161 l0
-107 2448 0 2447 0 0 1344 0 1344 -27 9 c-61 22 -100 33 -116 33 -10 0 -25 4
-35 9 -9 5 -62 23 -117 40 -55 18 -109 36 -120 40 -11 5 -40 14 -65 21 -97 25
-176 53 -202 71 -14 11 -31 19 -37 19 -6 0 -11 3 -11 8 0 4 -21 18 -47 32 -27
14 -57 33 -67 42 -11 10 -25 18 -32 18 -7 0 -14 4 -16 8 -1 5 -61 47 -133 95
-71 47 -142 97 -156 109 -14 13 -55 48 -90 78 -35 30 -82 71 -104 91 -87 77
-198 160 -209 156 -16 -5 -24 -81 -25 -228 l-1 -126 42 -49 c24 -27 54 -60 68
-74 14 -14 31 -37 39 -52 8 -16 18 -28 21 -28 4 0 13 -13 20 -30 7 -16 16 -30
21 -30 5 0 9 -6 9 -13 0 -7 8 -31 19 -53 10 -21 21 -55 24 -74 3 -19 6 -39 8
-45 13 -44 -30 -237 -77 -342 -8 -18 -21 -50 -30 -70 -9 -21 -23 -51 -31 -68
-9 -16 -25 -48 -36 -70 -11 -22 -23 -42 -26 -45 -4 -3 -18 -26 -31 -52 -14
-27 -28 -48 -32 -48 -5 0 -8 -6 -8 -13 0 -7 -8 -22 -17 -33 -10 -10 -34 -39
-54 -64 -66 -81 -180 -190 -199 -190 -6 0 -10 -4 -10 -10 0 -5 -5 -10 -12 -10
-6 0 -19 -7 -29 -16 -27 -24 -168 -94 -234 -116 -75 -24 -206 -48 -265 -48
-55 0 -114 20 -139 46 -16 18 -30 56 -33 94 -1 8 -19 31 -40 52 -21 20 -38 42
-38 49 0 6 12 22 26 34 33 29 24 45 -26 45 -30 0 -40 -5 -45 -20 -8 -24 -37
-26 -56 -4 -14 17 -102 64 -120 64 -11 0 -21 10 -75 73 -15 19 -30 26 -41 23
-10 -3 -24 -2 -32 3 -11 7 -11 13 0 32 17 33 37 51 48 44 5 -3 26 6 46 19 20
14 45 28 55 31 44 14 23 64 -33 79 -22 5 -27 12 -27 36 0 35 -5 38 -58 41 -33
2 -42 7 -42 21 0 21 -16 24 -23 6 -3 -7 -6 -3 -6 9 l-1 21 -40 -19 c-46 -22
-76 -24 -87 -6 -4 7 -24 23 -43 35 -53 32 -75 54 -78 82 -2 14 -8 27 -13 28
-5 2 -6 8 -3 14 4 5 -4 3 -17 -6 -18 -11 -28 -12 -39 -5 -11 8 -12 12 -2 16 6
2 12 19 12 36 0 18 -4 27 -8 21 -5 -9 -10 -8 -20 2 -10 11 -8 15 13 20 14 3
25 10 25 15 0 5 5 9 11 9 6 0 17 7 25 15 19 19 29 19 48 0 18 -19 27 -19 20
-1 -7 18 22 46 47 46 11 0 19 7 19 16 0 9 13 21 28 26 16 6 34 24 41 39 7 15
22 31 34 35 27 8 37 22 37 51 0 12 6 24 13 26 6 3 2 6 -10 6 -14 1 -23 -5 -23
-14 0 -8 -9 -15 -20 -15 -11 0 -20 6 -20 13 0 18 -43 37 -81 37 -17 0 -37 6
-45 14 -12 13 -11 17 8 30 17 12 20 18 10 28 -9 9 -12 9 -12 -1 0 -9 -4 -10
-12 -4 -7 6 -30 13 -50 17 -21 4 -44 14 -53 23 -10 10 -32 15 -61 15 -24 -1
-44 3 -44 8 0 5 -12 10 -27 12 -22 2 -29 9 -31 31 -2 15 -8 27 -13 27 -16 0
-10 38 8 45 12 4 24 -1 36 -16 18 -22 18 -22 23 -2 4 13 21 26 47 35 23 8 58
20 77 27 19 8 55 19 80 27 66 19 128 43 164 61 17 9 42 20 56 24 30 11 -66 4
-227 -16 -49 -6 -53 -5 -53 14 0 12 5 21 11 21 5 0 8 4 4 9 -6 10 29 48 61 67
16 10 17 13 5 28 -7 9 -25 16 -40 17 -14 0 -20 3 -13 6 14 6 16 91 2 113 -5 8
-10 11 -10 6 0 -5 -9 -1 -20 9 -11 10 -20 26 -20 37 0 10 -4 18 -10 18 -5 0
-10 20 -10 45 0 25 -4 45 -10 45 -5 0 -10 18 -10 39 0 29 -5 41 -17 44 -10 2
-5 3 12 3 21 -1 32 5 42 24 7 14 17 26 23 26 5 1 17 2 25 3 8 0 15 6 15 12 0
12 -79 2 -94 -12 -6 -5 -18 -9 -28 -9 -11 0 -28 -9 -40 -20 -12 -11 -28 -20
-35 -20 -7 0 -28 -9 -48 -20 -20 -11 -46 -20 -58 -20 -29 0 -77 22 -77 35 0 6
-9 21 -20 35 -11 14 -20 35 -20 47 0 12 -4 25 -10 28 -5 3 -10 32 -10 64 0 31
-4 61 -10 67 -5 5 -10 36 -10 69 -2 125 19 395 30 395 11 0 19 73 30 270 9
178 23 311 36 331 9 16 -12 82 -56 170 -21 42 -41 90 -44 105 -9 54 -15 73
-25 93 -21 38 -14 42 57 39 l67 -3 3 -42 c2 -24 7 -43 12 -43 5 0 12 -9 15
-20 3 -11 13 -20 22 -20 13 0 34 -44 22 -46 -2 0 4 -8 14 -18 9 -10 17 -28 17
-42 0 -13 10 -35 21 -48 21 -24 26 -25 113 -21 112 4 102 2 120 20 8 8 22 12
31 9 9 -4 13 -10 8 -13 -5 -3 -13 -17 -19 -31 -13 -30 -1 -64 35 -99 21 -20
25 -34 27 -89 1 -35 8 -76 15 -91 19 -37 108 -123 119 -116 6 4 10 1 10 -4 0
-6 9 -11 20 -11 11 0 20 -3 20 -8 0 -16 41 -33 54 -23 13 11 90 9 212 -5 42
-5 51 -3 51 10 0 9 -5 16 -11 16 -6 0 -5 4 3 9 17 11 7 61 -14 61 -8 0 -15 13
-17 33 -3 28 -10 35 -60 60 -64 31 -74 47 -28 47 20 0 30 5 30 15 0 8 -4 15
-10 15 -11 0 -14 30 -2 31 4 0 23 2 42 5 19 3 63 -3 97 -12 53 -14 69 -15 108
-4 25 7 45 17 45 21 0 5 6 9 14 9 17 0 66 73 66 100 0 30 36 25 72 -10 16 -17
32 -30 34 -30 3 0 25 -13 49 -30 24 -16 50 -30 59 -30 8 0 18 -4 21 -10 3 -5
15 -10 27 -10 16 0 18 3 10 13 -6 7 -9 23 -6 34 6 22 -39 74 -114 133 -18 14
-32 33 -32 43 0 10 -8 17 -20 17 -11 0 -28 9 -37 20 -10 11 -23 20 -30 20 -7
0 -13 5 -13 11 0 6 -8 9 -18 7 -10 -3 -23 1 -30 9 -7 7 -21 13 -31 13 -10 0
-21 9 -24 20 -5 21 -47 29 -47 8 0 -6 -18 7 -40 30 -21 23 -46 42 -55 42 -9 0
-13 -4 -10 -10 4 -6 -11 -10 -37 -10 -24 0 -48 -4 -54 -8 -8 -8 -33 -16 -130
-41 -23 -6 -78 -11 -123 -11 -47 0 -81 -4 -81 -10 0 -6 -27 -10 -62 -9 -35 0
-57 3 -50 6 14 6 16 33 2 33 -5 0 -10 -5 -10 -11 0 -7 -12 -10 -30 -7 -19 3
-30 0 -30 -8 0 -6 -19 -21 -42 -32 -37 -18 -45 -18 -54 -6 -6 8 -9 26 -6 40 3
17 1 25 -5 21 -15 -9 -33 38 -33 84 0 28 -4 38 -12 33 -7 -4 -8 -3 -4 4 5 8
15 8 32 2 34 -13 200 -13 225 0 18 10 19 25 19 363 0 261 -3 356 -12 365 -7 7
-39 12 -73 12 -34 0 -66 -5 -73 -12 -8 -8 -12 -51 -12 -129 l0 -116 -29 -6
c-16 -3 -41 -9 -56 -13 -25 -6 -26 -5 -16 14 6 11 11 41 11 66 0 64 -24 86
-93 86 -79 0 -109 -31 -97 -103 4 -23 11 -50 15 -60 6 -15 4 -16 -16 -8 -24 9
-27 21 -14 54 6 13 3 16 -9 11 -21 -8 -20 5 2 22 11 9 12 13 4 14 -7 0 -17 10
-22 23 -7 18 -9 19 -9 3 -1 -12 -6 -16 -16 -12 -9 3 -15 0 -15 -10 0 -11 6
-15 19 -11 17 4 18 2 9 -24 -5 -16 -17 -29 -25 -29 -8 0 -12 -4 -9 -9 3 -5
-11 -11 -32 -14 -57 -8 -64 -10 -91 -34 l-24 -21 -26 24 c-14 13 -34 24 -43
24 -16 0 -16 2 2 20 12 12 17 26 13 36 -4 11 -3 15 5 10 6 -3 15 2 21 11 6 10
11 14 11 9 0 -23 29 32 30 56 0 34 16 44 39 24 22 -20 61 -21 61 -1 0 8 -8 15
-18 15 -28 0 -32 10 -16 36 17 25 31 19 49 -21 8 -18 9 -17 13 8 2 19 12 31
29 38 22 8 25 14 21 49 -2 22 0 40 5 40 4 0 6 4 2 9 -3 5 -1 12 5 16 6 4 8 11
5 16 -4 5 0 9 7 10 7 1 2 5 -12 9 -21 7 -22 8 -5 9 12 1 26 6 31 11 8 8 19 8
38 0 41 -15 208 -13 231 4 16 11 24 11 52 0 76 -32 187 -3 219 57 11 22 16 55
16 93 -1 77 -15 89 -94 84 l-58 -4 0 32 c0 30 2 32 47 37 57 6 73 25 73 88 0
61 -18 79 -76 79 l-44 0 0 64 c0 35 -3 71 -6 80 -4 11 0 16 14 16 11 0 22 4
24 10 2 5 15 11 31 12 15 1 27 6 27 10 0 4 12 8 28 8 27 1 109 39 85 40 -7 0
-13 5 -13 11 0 5 4 8 9 4 5 -3 16 2 24 10 18 17 47 20 47 5 0 -5 11 -10 25
-10 14 0 25 5 25 10 0 6 6 10 14 10 8 0 16 4 18 8 2 5 15 12 29 15 34 9 96
-41 85 -68 -4 -13 -2 -16 9 -11 13 5 15 -11 15 -109 l0 -115 -45 0 -45 0 0 64
c0 56 -3 67 -22 80 -29 21 -107 20 -137 0 l-23 -16 4 -247 c3 -219 5 -250 22
-285 33 -65 128 -93 216 -63 28 10 40 10 63 -1 20 -10 44 -12 75 -8 53 8 59 8
125 0 35 -4 54 -2 72 10 24 16 29 15 73 0 54 -19 100 -15 149 16 55 33 68 70
68 200 0 130 -11 173 -56 216 -25 24 -39 29 -97 32 -62 4 -71 2 -100 -23 l-31
-26 -30 22 c-17 12 -47 25 -68 28 l-38 6 -2 118 c-1 74 -6 124 -14 133 -17 21
-127 19 -151 -3 -18 -16 -18 -16 -12 2 5 13 4 16 -4 11 -7 -4 -12 -2 -12 3 0
6 5 11 10 11 6 0 10 18 10 40 0 45 27 80 61 80 11 0 44 -24 76 -55 48 -49 55
-53 60 -35 7 28 31 25 39 -5 9 -35 24 -21 24 22 l0 36 22 -29 c12 -16 23 -31
25 -33 2 -3 10 5 19 17 8 12 22 22 31 22 9 0 24 9 34 21 18 21 18 21 43 -20
14 -22 26 -43 26 -47 0 -3 14 -19 31 -35 17 -16 28 -29 24 -29 -4 0 3 -9 16
-20 13 -10 20 -19 16 -20 -4 0 2 -11 15 -24 28 -29 88 -43 88 -21 0 8 -5 15
-10 15 -6 0 -9 3 -8 8 2 11 -20 60 -29 63 -10 4 -83 112 -83 122 0 4 12 2 26
-3 14 -6 29 -10 34 -10 11 0 2 29 -17 51 -7 9 -10 19 -6 22 10 11 43 8 43 -3
0 -5 6 -10 13 -10 13 0 87 -72 87 -85 0 -11 28 -35 40 -35 14 0 40 -25 40 -38
0 -5 9 -17 20 -27 17 -16 20 -31 20 -111 l0 -94 -27 -5 c-50 -11 -78 -32 -101
-76 -21 -41 -23 -54 -20 -179 3 -150 11 -174 69 -209 38 -23 192 -27 233 -6
22 12 30 11 56 -2 21 -10 29 -20 26 -30 -4 -11 -2 -13 9 -9 8 3 15 1 15 -3 0
-5 -4 -11 -8 -13 -5 -1 -5 -41 -1 -88 9 -94 5 -137 -16 -192 -10 -26 -11 -38
-4 -38 8 0 8 -4 1 -12 -5 -7 -8 -26 -7 -43 2 -16 6 -61 9 -100 9 -106 19 -138
46 -152 30 -15 35 -11 20 17 -7 14 -9 36 -4 59 5 26 9 30 12 16 7 -30 33 -65
48 -65 11 0 14 -16 14 -65 0 -40 7 -80 17 -103 9 -20 17 -67 19 -105 2 -47 9
-75 22 -95 11 -15 22 -45 25 -67 3 -22 12 -74 21 -115 9 -41 16 -117 16 -167
0 -51 2 -93 5 -93 17 0 55 26 55 38 0 7 9 16 20 19 11 3 20 9 20 14 0 5 7 9
15 9 9 0 19 8 22 18 4 9 9 19 12 22 22 19 51 98 51 139 0 51 17 112 33 122 12
9 9 151 -3 163 -24 24 -3 96 28 96 5 0 7 11 4 25 -4 21 -1 25 21 25 18 0 30
-8 39 -27 12 -24 83 -71 93 -61 2 2 5 20 7 39 1 18 7 38 13 42 7 6 6 10 -2 14
-7 2 -13 14 -13 24 0 11 -4 17 -10 14 -5 -3 -10 -1 -10 5 0 7 7 9 16 6 9 -3
18 -6 20 -6 2 0 4 -6 4 -14 0 -8 14 -17 30 -21 17 -4 30 -13 30 -20 0 -15 22
-25 56 -25 20 0 24 5 24 29 0 17 -4 33 -10 36 -14 9 -12 35 2 35 7 0 23 -12
35 -27 13 -14 24 -22 24 -17 1 5 5 -8 8 -29 3 -21 11 -38 16 -38 12 1 23 138
13 154 -4 7 -8 50 -8 96 l0 83 25 -4 c33 -7 39 5 15 27 -11 10 -20 24 -20 32
0 7 -4 13 -10 13 -5 0 -10 7 -10 15 0 8 -4 15 -10 15 -5 0 -10 5 -10 10 0 6
-11 22 -24 34 l-23 24 -33 -28 c-27 -23 -31 -33 -26 -54 4 -15 2 -26 -4 -26
-5 0 -10 17 -10 39 0 43 -25 111 -41 111 -5 0 -7 -6 -4 -12 3 -7 -1 -3 -10 9
-43 58 -56 68 -65 53 -5 -8 -12 -11 -16 -7 -4 4 -2 13 4 19 22 22 14 87 -13
120 -14 16 -23 34 -19 39 3 5 0 9 -5 9 -6 0 -11 7 -11 15 0 21 13 19 30 -4 16
-23 30 -18 30 10 0 21 8 23 30 9 13 -8 13 -12 1 -32 -10 -16 -10 -23 -2 -26 6
-2 11 -12 11 -23 0 -12 7 -19 20 -19 16 0 20 7 20 30 0 17 5 30 10 30 6 0 10
-7 10 -17 0 -9 3 -13 7 -10 3 4 12 -1 19 -11 13 -16 13 -16 14 1 0 20 20 23
38 5 9 -9 18 -8 37 2 19 10 31 11 43 3 10 -6 32 -14 50 -18 30 -6 32 -5 32 19
0 24 -3 26 -45 26 -32 0 -51 6 -65 20 l-20 20 23 0 c12 0 33 7 46 16 21 15 25
15 55 -1 24 -13 45 -16 75 -12 67 9 71 16 71 133 l0 104 63 0 c36 0 68 5 75
12 16 16 15 111 -2 152 -26 63 -56 76 -170 76 -71 0 -108 -4 -121 -14 -17 -12
-23 -12 -44 2 -16 11 -47 17 -88 17 -35 0 -63 3 -63 8 0 4 -7 7 -15 7 -10 0
-15 10 -15 30 0 17 5 30 10 30 6 0 10 14 10 30 0 17 -3 30 -6 30 -14 0 -34
-31 -34 -54 0 -14 -4 -28 -10 -31 -5 -3 -10 -21 -10 -38 l0 -32 -20 25 c-11
14 -20 31 -20 38 0 6 -3 12 -7 12 -11 0 -34 52 -27 59 3 3 8 1 12 -5 4 -6 16
-16 28 -22 19 -10 20 -8 16 21 -3 18 -11 41 -18 53 -8 11 -11 24 -7 27 3 4 -1
7 -11 7 -9 0 -14 5 -11 10 3 6 2 10 -3 10 -6 0 -15 14 -21 30 -6 18 -6 30 0
30 5 0 9 11 9 24 0 35 10 56 26 56 8 0 14 10 14 26 0 15 10 35 22 45 20 18 20
22 8 62 -16 53 -19 78 -25 202 -3 55 -7 120 -9 145 -3 25 -2 39 1 33 2 -7 11
-13 18 -13 8 0 17 -10 20 -22 13 -47 28 -78 36 -78 12 0 11 47 -1 55 -5 3 -10
16 -10 28 0 12 -12 54 -26 92 -14 39 -27 78 -29 87 -4 17 -59 74 -78 81 -9 3
-8 8 1 20 12 14 12 19 -1 32 -9 8 -21 15 -27 15 -6 0 -32 11 -59 25 -27 13
-51 22 -54 18 -3 -3 -17 -3 -30 1 -19 4 -23 11 -20 29 6 32 -24 46 -35 17 -8
-20 -8 -20 -30 1 -13 11 -21 27 -18 35 3 8 1 14 -5 14 -6 0 -9 15 -7 33 2 25
8 33 26 35 30 5 75 -36 68 -61 -3 -13 3 -21 20 -28 33 -12 67 -12 59 1 -3 6
-2 10 3 10 19 0 -1 41 -27 58 -14 9 -39 27 -55 39 -42 35 -93 53 -147 53 -45
0 -51 3 -69 33 -11 17 -20 42 -20 55 0 35 -23 52 -73 52 -27 0 -48 5 -51 13
-4 8 -8 9 -11 1 -4 -8 -24 -2 -60 18 l-54 29 -20 -22 c-10 -11 -24 -18 -29
-15 -5 3 -15 -1 -22 -9 -7 -8 -19 -15 -26 -15 -17 0 -88 71 -112 112 -9 15
-19 28 -22 28 -3 0 -21 14 -40 30 -19 16 -41 30 -47 30 -7 0 -13 3 -13 8 0 10
-50 32 -71 32 -10 0 -21 5 -24 10 -10 16 -45 12 -45 -5 0 -23 -23 -18 -71 17
-41 31 -53 38 -104 65 -38 20 -70 31 -105 37 -19 2 -29 2 -22 -1 24 -10 2 -21
-26 -13 -85 27 -113 32 -137 26 -17 -4 -24 -3 -21 3 4 6 -10 13 -31 16 -21 3
-46 10 -55 16 -24 13 -118 12 -118 -2 0 -7 -25 -9 -77 -5 -43 3 -88 6 -100 7
-14 1 -20 6 -16 15 4 10 -3 14 -25 14 -16 0 -50 3 -76 6 -38 6 -46 4 -46 -10z
m-570 -1948 c0 -130 1 -140 18 -133 56 23 101 11 122 -33 7 -16 14 -91 18
-184 l5 -158 -42 0 -41 0 0 136 c0 141 -8 174 -40 174 -32 0 -40 -33 -40 -174
l0 -136 -34 0 c-30 0 -34 4 -40 33 -8 37 -7 559 1 597 4 23 9 25 39 22 l34 -4
0 -140z m-1750 1 c0 -131 1 -141 18 -134 38 16 53 17 81 6 16 -7 34 -24 40
-39 7 -14 15 -96 18 -184 l6 -158 -41 0 -42 0 0 136 c0 141 -8 174 -40 174
-32 0 -40 -33 -40 -174 l0 -136 -40 0 -40 0 1 325 1 325 39 0 39 0 0 -141z
m2960 0 c0 -131 1 -141 18 -134 56 23 101 11 122 -33 8 -17 15 -88 18 -184 l5
-158 -42 0 -41 0 0 136 c0 141 -8 174 -40 174 -32 0 -40 -33 -40 -174 l0 -136
-34 0 c-22 0 -36 6 -40 16 -3 8 -5 155 -5 325 l1 309 39 0 39 0 0 -141z m830
-184 l-1 -325 -40 0 c-21 0 -39 5 -39 10 0 7 -6 7 -19 0 -28 -15 -73 -12 -98
5 -31 22 -37 69 -34 248 1 62 4 71 31 99 31 30 55 34 103 13 16 -7 17 3 17
134 l0 141 40 0 40 0 0 -325z m-3910 255 l0 -40 -45 0 -45 0 0 -270 0 -270
-40 0 -40 0 0 269 0 270 -47 3 c-46 3 -48 4 -48 33 0 17 1 33 3 38 2 4 61 7
133 7 l129 0 0 -40z m662 -117 l3 -78 58 -3 57 -3 0 -34 0 -35 -60 0 -60 0 0
-101 c0 -106 9 -139 38 -139 26 0 42 20 42 52 0 25 3 28 34 28 43 0 48 -8 40
-60 -10 -61 -31 -82 -92 -88 -63 -6 -105 10 -122 46 -13 28 -26 425 -15 470 4
17 12 22 40 22 l34 0 3 -77z m1760 0 l3 -78 58 -3 57 -3 0 -34 0 -35 -60 0
-60 0 0 -101 c0 -106 9 -139 38 -139 26 0 42 20 42 52 0 25 3 28 34 28 43 0
48 -8 40 -60 -10 -61 -31 -82 -92 -88 -63 -6 -105 10 -122 46 -13 28 -25 439
-14 475 4 12 16 17 39 17 l34 0 3 -77z m390 0 l3 -78 58 -3 57 -3 0 -34 0 -35
-60 0 -61 0 3 -111 c3 -94 6 -114 21 -123 25 -16 51 4 55 43 3 29 6 31 42 31
l40 0 -6 -47 c-9 -81 -34 -103 -114 -103 -51 0 -85 16 -100 49 -14 27 -28 446
-17 476 4 9 19 15 41 15 l35 0 3 -77z m1750 0 l3 -78 58 -3 57 -3 0 -34 0 -35
-60 0 -60 0 0 -101 c0 -106 9 -139 38 -139 26 0 42 20 42 52 0 26 3 28 41 28
l41 0 -7 -47 c-12 -82 -35 -103 -115 -103 -53 0 -86 17 -100 50 -11 26 -21
476 -11 486 2 2 19 4 37 4 l33 0 3 -77z m-4069 -84 c46 -21 52 -43 55 -216 l4
-163 -41 0 c-25 0 -41 5 -41 12 0 9 -3 9 -12 0 -18 -18 -83 -14 -108 6 -27 21
-40 93 -29 156 11 67 76 105 130 76 17 -10 19 -7 19 19 0 20 -7 34 -20 41 -17
9 -24 6 -44 -15 -18 -19 -33 -26 -53 -23 -24 3 -28 7 -26 32 5 67 95 108 166
75z m642 -19 c17 -16 25 -34 25 -57 0 -31 -2 -33 -34 -33 -25 0 -36 5 -41 19
-7 23 -31 34 -56 26 -27 -9 -23 -32 8 -58 16 -12 49 -43 75 -68 44 -42 48 -50
48 -93 0 -37 -5 -52 -26 -73 -23 -23 -31 -25 -91 -21 -74 5 -103 27 -103 79 0
26 3 29 33 29 22 0 36 -7 45 -21 18 -28 66 -23 70 7 2 17 -12 33 -58 69 -73
56 -92 83 -92 130 0 38 22 71 57 86 36 16 113 4 140 -21z m1108 19 c46 -21 52
-43 55 -216 l4 -163 -41 0 c-25 0 -41 5 -41 12 0 9 -3 9 -12 0 -22 -22 -86
-14 -113 13 -22 21 -25 33 -25 100 0 71 2 79 29 106 31 30 67 37 102 19 17
-10 19 -7 19 19 0 20 -7 34 -20 41 -17 9 -24 6 -44 -15 -18 -19 -33 -26 -53
-23 -24 3 -28 7 -26 32 5 67 95 108 166 75z m1224 -22 c19 -18 27 -41 35 -101
5 -42 7 -83 4 -91 -4 -11 -23 -15 -81 -15 -69 0 -75 -2 -75 -21 0 -53 48 -80
70 -39 8 15 21 20 50 20 l39 0 -10 -32 c-14 -52 -51 -78 -110 -78 -39 0 -55 5
-74 24 -31 31 -38 71 -33 199 3 111 14 137 63 158 34 15 96 3 122 -24z m670 1
c42 -43 55 -230 20 -305 -31 -68 -151 -71 -189 -5 -22 38 -30 136 -19 216 14
96 48 130 125 122 24 -3 48 -14 63 -28z m266 -8 c15 -16 27 -41 27 -55 0 -22
-4 -25 -34 -25 -26 0 -36 5 -41 20 -8 26 -51 27 -65 1 -5 -11 -10 -56 -10
-101 0 -45 5 -90 10 -101 14 -25 46 -24 62 1 9 13 24 20 45 20 29 0 33 -3 33
-26 0 -15 -12 -38 -29 -55 -24 -24 -38 -29 -76 -29 -85 0 -108 30 -119 150 -7
86 6 175 32 203 42 48 121 46 165 -3z m543 8 c44 -43 56 -228 21 -305 -31 -68
-151 -71 -189 -5 -22 38 -31 146 -19 221 15 92 50 125 125 117 23 -3 48 -14
62 -28z m258 21 c27 -13 44 -47 47 -94 2 -52 0 -55 -36 -55 -29 0 -35 4 -35
21 0 31 -19 59 -40 59 -32 0 -40 -33 -40 -174 l0 -136 -35 0 c-21 0 -36 5 -36
13 -1 6 -2 92 -3 191 l-1 178 47 -4 c26 -3 53 -1 60 3 18 12 43 11 72 -2z
m-3780 -96 c10 -54 21 -102 25 -108 3 -5 15 37 26 95 l20 105 47 3 c42 3 48 1
52 -20 3 -13 12 -59 21 -102 8 -44 17 -81 19 -84 2 -2 10 23 16 55 34 168 27
153 71 153 21 0 39 -1 39 -3 0 -7 -71 -344 -76 -359 -4 -14 -16 -18 -49 -18
-50 0 -46 -7 -71 123 -10 50 -20 83 -24 75 -4 -7 -15 -55 -25 -105 l-17 -93
-47 0 -47 0 -37 183 c-20 100 -37 185 -37 190 0 4 17 7 38 7 l38 0 18 -97z
m3020 -337 c15 -13 26 -30 26 -39 0 -8 4 -17 9 -19 6 -1 10 -25 10 -53 1 -141
3 -181 12 -189 5 -6 9 -13 9 -18 0 -10 -33 3 -42 16 -6 8 -11 7 -17 -3 -6 -9
-10 -4 -13 18 -3 18 -1 34 4 37 11 7 10 54 -2 54 -5 0 -10 -11 -10 -25 0 -14
-4 -25 -10 -25 -5 0 -10 7 -10 15 0 8 -4 15 -8 15 -5 0 -15 19 -21 43 -7 23
-19 58 -27 77 -7 19 -15 49 -17 65 -3 28 0 31 37 41 23 6 42 12 43 13 1 0 13
-10 27 -23z m-1974 -501 l0 -325 -40 0 c-22 0 -40 5 -40 10 0 7 -6 7 -19 0
-30 -15 -76 -12 -101 8 -16 13 -23 34 -29 87 -5 39 -7 84 -6 100 1 17 3 52 4
78 1 40 7 54 31 79 31 30 55 34 103 13 16 -7 17 3 17 134 l0 141 40 0 40 0 0
-325z m-683 31 c13 -15 23 -40 23 -57 0 -26 -3 -29 -34 -29 -25 0 -36 5 -41
19 -7 23 -31 34 -56 26 -27 -9 -23 -32 8 -58 16 -12 49 -43 75 -68 44 -42 48
-50 48 -93 0 -67 -31 -96 -100 -96 -82 0 -120 28 -120 86 0 20 5 24 33 24 22
0 36 -7 45 -21 18 -28 66 -23 70 7 2 17 -12 33 -58 69 -71 54 -91 82 -92 125
-2 69 41 102 126 96 39 -3 55 -9 73 -30z m236 23 c46 -21 52 -43 55 -216 l4
-163 -41 0 c-25 0 -41 5 -41 12 0 9 -3 9 -12 0 -22 -22 -86 -14 -113 13 -22
21 -25 33 -25 100 0 71 2 79 29 106 31 30 67 37 102 19 17 -10 19 -7 19 19 0
20 -7 34 -20 41 -17 9 -24 6 -44 -15 -18 -19 -33 -26 -53 -23 -24 3 -28 7 -26
32 5 67 95 108 166 75z m177 -189 l0 -190 -39 0 -38 0 -2 173 c-1 95 1 180 5
190 4 11 17 17 40 17 l34 0 0 -190z m2438 -5257 c3 -40 4 -42 27 -31 19 9 29
7 50 -6 22 -14 25 -24 25 -71 0 -30 5 -55 10 -55 6 0 10 -7 10 -15 0 -19 -56
-21 -63 -2 -2 7 -3 31 -1 54 4 45 -12 68 -40 57 -12 -5 -16 -20 -16 -65 0 -56
-1 -59 -25 -59 l-25 0 0 100 c0 60 -4 100 -10 100 -5 0 -10 9 -10 21 0 17 5
20 33 17 30 -3 32 -6 35 -45z m589 -45 c55 -51 11 -168 -58 -154 -28 5 -29 4
-29 -34 0 -33 -3 -40 -20 -40 -17 0 -20 7 -22 53 -5 160 -5 157 -23 157 -8 0
-15 7 -15 15 0 17 55 21 65 5 4 -7 14 -5 28 5 29 20 47 19 74 -7z m181 5 c12
-10 22 -27 24 -38 2 -16 -6 -23 -45 -35 -60 -19 -61 -45 -3 -45 47 0 59 -21
20 -35 -91 -35 -155 71 -85 141 34 33 60 37 89 12z m-1059 -58 l15 -60 14 50
c8 28 16 56 18 63 2 6 15 12 28 12 23 0 26 -6 37 -59 7 -33 16 -58 19 -56 4 2
12 29 19 60 11 49 15 55 37 55 20 0 24 -4 20 -17 -3 -10 -14 -45 -24 -78 -17
-58 -19 -60 -52 -60 -32 0 -35 3 -45 45 l-11 45 -15 -45 c-14 -42 -18 -45 -50
-45 -33 0 -34 1 -48 63 -9 37 -20 62 -28 62 -7 0 -13 7 -13 16 0 11 8 14 32
12 30 -3 33 -6 47 -63z"/>
<path d="M4460 6724 c-6 -14 -10 -56 -10 -94 0 -83 12 -120 39 -120 31 0 41
31 41 120 0 45 -5 90 -10 101 -15 28 -49 24 -60 -7z"/>
<path d="M4729 6729 c-17 -32 -8 -197 11 -209 21 -13 26 -12 44 6 19 18 23
173 6 205 -14 25 -46 24 -61 -2z"/>
<path d="M5539 6729 c-17 -32 -8 -197 11 -209 21 -13 26 -12 44 6 19 18 23
173 6 205 -14 25 -46 24 -61 -2z"/>
<path d="M3020 5844 c-6 -14 -10 -56 -10 -94 0 -83 12 -120 39 -120 31 0 41
31 41 120 0 45 -5 90 -10 101 -15 28 -49 24 -60 -7z"/>
<path d="M5488 7516 c-15 -11 -18 -28 -18 -90 0 -44 4 -76 10 -76 6 0 10 -16
10 -35 0 -37 18 -85 32 -85 4 0 8 -9 8 -20 0 -24 6 -25 26 -6 16 17 19 66 4
66 -5 0 -10 11 -10 24 0 18 6 26 21 28 34 5 45 31 28 65 -8 15 -21 28 -29 28
-21 -1 -40 20 -40 44 0 12 -4 21 -9 21 -5 0 -11 11 -13 24 -3 22 -5 23 -20 12z"/>
<path d="M3320 6137 l-25 -13 0 -259 c0 -253 1 -261 22 -291 42 -58 119 -78
204 -52 21 6 46 19 55 29 16 17 18 17 49 -7 62 -47 151 -44 206 7 30 28 32 29
45 11 18 -26 75 -52 115 -52 56 0 115 36 138 84 18 35 21 62 21 162 0 136 -12
172 -71 212 -29 20 -44 23 -96 20 -52 -3 -68 -9 -92 -32 l-30 -29 -31 27 c-39
32 -67 40 -131 34 -40 -4 -57 -12 -85 -39 -31 -30 -34 -31 -34 -12 0 34 -27
53 -76 53 l-44 0 0 64 c0 39 -5 67 -12 74 -22 17 -101 23 -128 9z m92 -114 l3
-78 58 -3 57 -3 0 -34 0 -35 -60 0 -60 0 0 -101 c0 -106 9 -139 38 -139 26 0
42 20 42 52 0 26 3 28 41 28 l41 0 -7 -47 c-12 -82 -35 -103 -115 -103 -52 0
-86 17 -100 49 -8 21 -17 399 -11 484 1 4 17 7 36 7 l34 0 3 -77z m385 -105
c30 -30 47 -128 38 -218 -11 -101 -40 -139 -107 -140 -82 0 -114 39 -121 146
-9 134 13 211 68 235 33 15 96 3 122 -23z m270 0 c41 -42 54 -235 21 -303 -26
-52 -98 -71 -157 -40 -42 21 -55 65 -55 181 1 111 17 157 65 182 34 18 97 8
126 -20z"/>
<path d="M3689 5849 c-17 -32 -8 -197 11 -209 21 -13 26 -12 44 6 19 18 23
173 6 205 -14 25 -46 24 -61 -2z"/>
<path d="M3960 5851 c-11 -21 -14 -151 -4 -188 8 -31 44 -41 61 -17 16 22 18
176 3 205 -6 10 -19 19 -30 19 -11 0 -24 -9 -30 -19z"/>
<path d="M5240 5354 c-12 -4 -15 -18 -15 -59 1 -48 5 -59 34 -89 30 -31 32
-38 31 -97 -2 -88 -2 -89 16 -89 27 0 40 24 41 75 1 28 3 65 6 82 4 33 -10 55
-40 59 -21 3 -21 4 -24 54 -2 43 -14 71 -28 69 -3 -1 -13 -3 -21 -5z"/>
<path d="M964 5172 c-20 -13 -32 -47 -23 -67 4 -11 8 -39 8 -62 1 -24 5 -43
10 -43 5 0 12 -57 14 -127 5 -128 17 -250 37 -373 6 -36 15 -108 20 -160 5
-52 14 -135 20 -185 13 -109 39 -338 59 -510 20 -177 23 -194 38 -199 7 -3 16
1 20 10 5 14 3 38 -18 169 -5 33 -14 101 -19 150 -12 119 -26 231 -40 335 -41
298 -60 468 -78 676 -5 55 -12 106 -17 113 -4 8 -2 17 6 22 11 6 11 20 1 79
-16 93 -16 160 1 160 8 0 7 4 -3 10 -18 12 -22 12 -36 2z"/>
<path d="M3395 4130 c3 -5 1 -10 -4 -10 -6 0 -11 -7 -11 -15 0 -8 5 -15 10
-15 6 0 10 -5 10 -11 0 -6 14 -30 30 -54 17 -24 30 -47 30 -50 0 -11 154 -155
165 -155 6 0 17 -9 25 -20 8 -11 19 -20 25 -20 10 0 71 -47 113 -87 12 -13 26
-23 30 -23 10 0 42 -38 42 -50 0 -6 5 -10 10 -10 6 0 10 3 10 8 0 15 -42 75
-80 113 -22 23 -40 46 -40 53 0 11 -9 25 -50 73 -5 7 -10 17 -10 23 0 16 -31
60 -42 60 -13 0 -86 79 -93 101 -3 10 -15 21 -26 24 -10 4 -19 12 -19 20 0 7
-20 22 -45 34 -47 22 -91 28 -80 11z"/>
<path d="M3720 3463 c0 -30 -13 -36 -57 -24 -20 6 -40 7 -43 3 -4 -6 -57 -45
-76 -56 -1 -1 -5 -11 -8 -23 -7 -21 -4 -23 24 -23 35 0 67 -14 90 -40 8 -9 26
-23 40 -30 14 -7 31 -21 38 -32 20 -28 48 -22 63 15 7 17 16 34 19 37 4 3 12
19 17 36 10 29 9 33 -13 43 -33 15 -34 15 -34 -14 0 -23 -2 -24 -20 -13 -11 7
-20 20 -20 30 0 9 -6 19 -12 21 -10 4 -10 6 0 6 14 1 16 49 2 71 -8 12 -10 11
-10 -7z"/>
<path d="M655 3318 c-33 -11 -68 -24 -77 -29 -10 -5 -27 -9 -37 -9 -11 0 -23
-4 -26 -10 -3 -5 -19 -10 -35 -10 -15 0 -30 -3 -32 -7 -1 -5 -37 -19 -78 -33
-41 -13 -81 -30 -88 -37 -7 -7 -17 -13 -21 -13 -13 0 -66 -57 -81 -87 -8 -15
-17 -30 -20 -33 -3 -3 -17 -38 -30 -78 -13 -40 -27 -75 -32 -78 -4 -3 -8 -14
-8 -25 0 -10 -4 -19 -10 -19 -5 0 -10 -9 -10 -19 0 -11 -3 -21 -7 -23 -5 -1
-20 -33 -35 -71 l-28 -67 0 -1335 0 -1335 445 0 c245 0 445 3 445 8 0 4 -6 34
-14 67 -7 33 -12 84 -10 113 1 28 -1 52 -6 52 -4 0 -11 16 -14 35 -3 19 -9 50
-12 69 -3 20 -1 36 5 40 6 4 11 23 11 42 0 19 5 34 10 34 6 0 10 12 10 26 0
14 4 33 9 43 6 11 6 32 -1 58 -8 34 -6 51 11 100 26 73 26 76 -1 106 l-22 25
-33 -19 c-19 -11 -51 -19 -72 -19 -34 0 -40 3 -46 28 -3 15 -15 46 -27 70 -14
30 -17 46 -10 55 13 15 -6 93 -28 119 -20 24 -40 22 -74 -7 -29 -25 -46 -25
-46 1 0 8 -4 14 -10 14 -5 0 -10 13 -10 29 0 17 -5 33 -10 36 -6 3 -10 18 -10
33 0 29 -21 97 -34 109 -4 5 -12 9 -17 9 -5 1 -14 2 -19 3 -12 1 -4 58 13 101
5 14 11 40 14 58 4 37 -2 38 -62 18 -22 -8 -61 -16 -88 -19 -26 -3 -56 -12
-68 -20 -11 -8 -29 -13 -40 -10 -10 3 -19 1 -19 -5 0 -6 -9 -8 -20 -5 -15 4
-20 0 -20 -16 0 -14 -6 -21 -20 -21 -11 0 -20 6 -20 14 0 8 -5 16 -11 18 -8 3
-4 18 10 46 23 45 37 53 44 25 4 -14 5 -12 6 5 0 12 -5 22 -11 22 -8 0 -14 15
-16 36 -2 29 4 42 33 71 19 19 35 39 35 43 0 4 13 13 30 20 17 7 30 16 30 21
0 5 7 9 15 9 8 0 15 -4 15 -9 0 -16 32 -22 44 -7 6 8 20 16 31 18 23 4 57 37
49 49 -2 5 8 12 23 15 15 4 33 13 40 19 6 7 29 12 50 10 28 -1 44 4 62 22 13
12 28 23 32 23 5 0 9 8 9 18 0 11 11 24 25 30 14 6 25 16 25 22 0 5 6 10 13
10 14 0 37 40 37 63 0 7 9 19 20 27 14 10 16 16 7 22 -9 6 -9 8 1 8 6 0 12 10
13 23 0 12 3 16 6 10 6 -15 33 -17 33 -3 0 6 6 10 14 10 8 0 18 5 22 12 4 7 3
8 -4 4 -8 -5 -12 4 -12 29 0 22 4 34 10 30 6 -3 10 3 10 15 0 33 28 56 51 42
10 -7 26 -12 34 -12 8 0 15 -4 15 -10 0 -23 19 -7 30 24 12 38 33 39 58 4 7
-10 18 -18 25 -18 8 0 8 3 -1 12 -7 7 -12 22 -12 34 0 13 -4 26 -10 29 -16 10
-12 22 10 28 17 4 20 14 20 71 0 65 -6 76 -26 56 -6 -6 -40 -12 -76 -13 -89
-3 -118 -24 -118 -88 0 -44 -2 -48 -37 -64 -21 -10 -56 -20 -78 -23 -22 -2
-44 -8 -49 -13 -6 -5 -18 -9 -27 -9 -10 0 -21 -9 -24 -20 -3 -11 -12 -20 -19
-20 -6 0 -27 -13 -46 -30 -19 -16 -41 -29 -47 -30 -7 0 -13 -5 -13 -11 0 -6
-7 -8 -15 -5 -9 3 -18 -1 -21 -9 -4 -8 -13 -15 -21 -15 -8 0 -28 -14 -43 -30
-16 -17 -33 -30 -37 -29 -4 1 -12 -8 -18 -20 -5 -11 -18 -21 -27 -21 -22 0
-24 -18 -3 -26 23 -9 18 -17 -25 -38 -22 -10 -48 -27 -59 -37 -11 -11 -25 -19
-31 -19 -6 0 -17 -6 -25 -13 -7 -7 -27 -12 -44 -11 -17 1 -31 -2 -31 -7 0 -17
-19 -9 -31 12 -8 15 -8 19 0 15 7 -5 11 6 11 33 0 23 5 41 10 41 6 0 10 7 10
15 0 8 5 15 10 15 6 0 10 6 10 13 0 18 45 67 63 67 8 0 17 6 20 14 3 8 22 22
41 31 20 10 36 21 36 26 0 5 9 9 19 9 14 0 19 6 16 20 -3 15 2 20 16 20 11 0
18 3 16 8 -5 8 79 93 90 91 5 0 13 8 18 18 6 10 17 25 26 33 8 8 18 23 22 33
3 9 12 17 19 17 7 0 24 14 38 31 14 17 33 38 43 47 9 9 17 21 17 26 0 5 10 17
22 27 11 11 18 22 15 26 -11 10 13 32 29 26 24 -9 57 5 99 42 22 19 43 35 48
35 4 0 7 23 7 50 0 28 5 50 10 50 6 0 10 9 10 20 0 11 -4 20 -10 20 -5 0 -10
11 -10 24 0 20 -4 23 -27 18 -16 -3 -39 -13 -52 -23 -32 -25 -36 -24 -51 11
-11 27 -17 30 -55 30 -23 0 -44 -3 -48 -6 -7 -8 12 -28 35 -37 27 -10 10 -37
-23 -37 -31 0 -139 46 -151 64 -4 6 -8 -9 -8 -33 0 -35 -5 -48 -27 -67 -15
-13 -29 -35 -31 -51 -2 -15 -8 -31 -14 -34 -7 -4 -5 -9 3 -12 8 -3 4 -6 -8 -6
-13 -1 -23 -6 -23 -12 0 -5 -4 -7 -10 -4 -5 3 -10 1 -10 -5 0 -19 -29 -42 -45
-36 -9 3 -15 18 -14 38 1 18 3 25 6 16 2 -10 11 -18 19 -18 21 0 17 9 -14 40
-29 29 -38 50 -22 50 5 0 10 6 10 13 0 7 9 19 20 27 11 8 20 26 20 40 0 14 5
31 11 37 11 11 9 73 -7 181 -11 79 3 129 51 177 24 24 46 53 50 64 6 19 33 28
68 22 4 0 7 4 7 10 0 5 5 7 10 4 6 -3 10 -1 10 4 0 6 12 11 28 11 34 0 57 14
48 29 -5 7 -1 9 8 5 9 -3 16 -13 16 -21 0 -12 6 -11 33 4 17 10 36 24 40 31 5
7 12 10 16 7 5 -2 11 4 14 15 3 11 4 19 4 19 -1 -1 -29 -10 -62 -21z"/>
<path d="M1039 2963 c-7 -13 -22 -25 -33 -29 -64 -17 -76 -26 -76 -56 l0 -29
160 2 c179 2 167 -4 162 84 l-4 53 -98 -2 c-92 -1 -100 -3 -111 -23z"/>
<path d="M4000 2840 c0 -5 -7 -10 -15 -10 -8 0 -15 -5 -15 -11 0 -8 -5 -8 -15
1 -13 11 -15 6 -15 -38 0 -28 5 -54 10 -57 6 -3 10 -31 10 -61 0 -51 -1 -54
-26 -54 -14 0 -23 4 -19 10 3 6 -3 10 -14 10 -24 0 -28 -18 -7 -26 8 -3 12
-12 9 -20 -6 -16 -43 -19 -43 -4 0 6 -7 10 -15 10 -8 0 -15 -4 -15 -8 0 -14
-36 -52 -49 -52 -7 0 -9 -4 -6 -10 3 -5 0 -10 -8 -10 -15 0 -15 -1 -23 -79 -5
-41 -10 -55 -25 -58 -10 -3 -19 -9 -19 -13 0 -4 -10 -11 -22 -15 -22 -7 -21
-8 6 -12 16 -3 32 1 36 7 4 6 10 11 14 11 35 -5 55 5 81 38 17 22 41 41 56 44
14 3 43 22 64 41 21 20 45 36 52 36 7 0 13 5 13 10 0 6 4 10 10 10 18 0 60 43
60 62 0 10 -4 18 -8 18 -5 0 -18 9 -30 21 -12 11 -27 17 -34 13 -7 -4 -8 -3
-4 4 4 7 2 12 -3 12 -14 0 -14 53 0 67 6 6 12 28 13 49 1 22 6 47 10 57 5 10
4 17 -3 17 -6 0 -11 -4 -11 -10z"/>
<path d="M953 1773 c-13 -2 -23 -8 -23 -12 0 -4 -14 -8 -32 -9 -17 -2 -36 -6
-42 -10 -6 -5 -29 -14 -52 -21 -37 -12 -40 -16 -36 -42 3 -22 0 -29 -12 -29
-9 0 -16 -4 -16 -10 0 -5 -9 -10 -19 -10 -11 0 -32 -14 -48 -31 -15 -17 -37
-34 -48 -39 -17 -7 -15 -9 13 -9 17 -1 32 4 32 9 0 6 18 10 41 10 24 0 38 4
34 10 -4 6 5 10 20 10 14 0 24 4 20 9 -3 5 4 11 15 13 12 2 21 8 21 13 0 6 11
16 25 23 13 7 24 19 24 27 0 8 9 15 20 15 11 0 20 5 20 10 0 6 6 10 13 10 16
1 67 46 67 60 0 5 -3 9 -7 9 -5 -1 -18 -4 -30 -6z"/>
</g>
</svg>
