<?xml version="1.0" standalone="no"?>
<!DOCTYPE svg PUBLIC "-//W3C//DTD SVG 20010904//EN"
 "http://www.w3.org/TR/2001/REC-SVG-20010904/DTD/svg10.dtd">
<svg version="1.0" xmlns="http://www.w3.org/2000/svg"
 width="380.000000pt" height="261.000000pt" viewBox="0 0 380.000000 261.000000"
 preserveAspectRatio="xMidYMid meet">
<metadata>
Created by potrace 1.13, written by Peter Selinger 2001-2015
</metadata>
<g transform="translate(0.000000,261.000000) scale(0.100000,-0.100000)"
fill="#000000" stroke="none">
<path d="M365 2356 c-29 -44 -47 -180 -45 -341 3 -208 3 -215 18 -215 23 0 88
-38 120 -71 17 -18 39 -55 49 -83 25 -71 22 -215 -6 -329 -36 -149 -90 -319
-106 -331 -8 -6 -21 -27 -29 -47 -29 -70 15 -146 91 -156 80 -11 141 51 130
131 -10 76 98 412 168 522 40 63 94 118 138 141 34 17 123 23 169 11 24 -7 32
-1 91 70 120 143 237 344 237 405 0 25 -3 27 -38 27 -43 0 -163 -54 -226 -102
-23 -17 -78 -67 -122 -111 l-81 -79 -42 21 c-23 12 -96 36 -163 54 l-122 32
-13 79 c-29 173 -108 347 -172 381 -29 15 -31 14 -46 -9z m89 -149 c37 -48 66
-140 73 -228 l6 -76 -47 -6 c-25 -4 -59 -13 -76 -22 l-29 -15 -7 48 c-12 68
-8 240 5 290 15 53 40 56 75 9z m831 -227 c3 -5 -5 -36 -18 -68 -45 -113 -182
-289 -195 -252 -3 8 -24 35 -48 60 l-43 46 43 55 c50 63 115 122 166 149 38
21 85 26 95 10z"/>
<path d="M3237 1896 c-48 -18 -98 -56 -143 -111 -30 -35 -41 -42 -55 -34 -10
5 -33 9 -52 9 -30 0 -38 6 -63 45 -37 60 -97 90 -159 81 -67 -10 -62 -23 6
-18 51 4 65 1 99 -22 22 -14 47 -40 56 -58 15 -30 15 -32 -4 -47 -45 -35 -58
-150 -22 -208 27 -46 84 -62 134 -38 20 10 44 32 53 49 32 60 13 195 -22 166
-38 -32 20 52 65 94 62 58 107 77 176 77 61 0 105 -18 163 -67 23 -20 41 -31
41 -26 0 14 -73 78 -110 97 -44 23 -118 28 -163 11z m-222 -200 c16 -16 26
-20 29 -13 3 7 4 3 1 -8 -2 -11 -6 -45 -7 -76 -3 -53 -4 -55 -32 -57 -58 -5
-91 62 -62 128 8 19 15 31 16 25 0 -5 5 -3 10 5 5 8 7 24 4 35 -4 18 -4 18 6
2 6 -9 22 -28 35 -41z"/>
<path d="M2590 1680 l0 -190 35 0 35 0 0 98 0 98 30 17 c17 10 35 15 40 12 6
-4 10 -54 10 -116 l0 -109 35 0 35 0 0 115 c0 102 -2 117 -20 135 -22 22 -70
26 -102 9 -11 -6 -21 -9 -24 -7 -2 2 -4 32 -6 66 l-2 62 -33 0 -33 0 0 -190z"/>
<path d="M2415 1790 c4 -13 1 -22 -9 -26 -18 -7 -23 -64 -6 -64 6 0 10 -34 10
-82 0 -107 12 -132 65 -136 22 -1 46 2 54 7 18 12 6 47 -19 54 -18 5 -20 14
-20 81 0 74 1 76 25 76 21 0 25 5 25 30 0 25 -4 30 -25 30 -20 0 -25 5 -25 25
0 23 -4 25 -41 25 -36 0 -40 -2 -34 -20z"/>
<path d="M1762 1761 c-7 -4 -35 -6 -63 -3 l-49 5 0 -137 0 -136 43 0 42 0 0
97 c0 97 0 98 25 102 30 4 40 17 40 54 0 27 -14 34 -38 18z"/>
<path d="M1891 1752 c-115 -62 -79 -272 46 -272 42 0 103 25 103 42 0 29 -16
39 -44 28 -56 -21 -96 -2 -96 46 0 23 2 24 80 24 l80 0 0 29 c0 47 -17 79 -52
101 -41 25 -73 25 -117 2z"/>
<path d="M2212 1754 c-12 -8 -22 -10 -22 -5 0 6 -18 11 -40 11 l-40 0 0 -135
0 -135 40 0 40 0 0 99 0 99 29 10 c16 6 32 8 35 5 3 -4 6 -53 6 -110 l0 -103
40 0 40 0 0 119 c0 117 -1 120 -26 140 -32 25 -71 27 -102 5z"/>
<path d="M3272 1751 c-8 -5 -34 -6 -58 -3 l-44 5 0 -177 0 -176 30 0 c29 0 30
1 30 48 0 59 5 66 36 45 35 -22 82 -7 111 36 42 62 26 193 -26 221 -24 12 -61
13 -79 1z m40 -48 c23 -26 31 -76 19 -121 -24 -89 -101 -45 -101 57 0 31 6 43
28 60 33 25 35 25 54 4z"/>
<path d="M988 1134 c-73 -147 -214 -307 -343 -391 -38 -26 -74 -49 -78 -53
-10 -9 21 -74 66 -140 17 -25 68 -81 114 -126 l82 -81 -22 -69 c-26 -83 -24
-81 -39 -66 -7 7 -29 12 -49 12 -36 0 -38 -2 -38 -32 0 -18 -3 -52 -7 -76 -8
-53 13 -88 59 -100 64 -17 117 22 117 86 0 23 10 46 33 74 17 22 41 51 52 64
l20 25 115 -54 c99 -48 187 -78 291 -101 19 -4 29 -14 34 -33 3 -16 13 -38 21
-51 l14 -22 1008 0 1008 0 60 36 c63 38 109 77 126 108 22 40 -13 39 -264 -13
-273 -57 -460 -73 -595 -51 -233 38 -343 126 -460 370 -100 207 -275 313 -555
335 -82 7 -87 8 -77 26 5 11 9 43 7 72 l-3 51 -100 32 c-55 17 -178 51 -272
75 -161 41 -197 57 -158 73 8 3 15 12 15 20 0 16 -39 30 -116 42 l-41 6 -25
-48z m917 -426 c47 -12 117 -47 162 -81 48 -36 135 -118 130 -124 -3 -2 -36
19 -73 48 -158 120 -313 158 -427 106 -31 -14 -76 -47 -102 -73 -43 -46 -105
-152 -105 -181 0 -7 -5 -13 -10 -13 -17 0 -2 67 29 135 74 163 218 229 396
183z"/>
<path d="M582 409 c-28 -10 -45 -53 -37 -91 13 -55 82 -76 123 -38 12 12 22
23 22 26 0 2 -19 28 -43 57 -37 46 -47 52 -65 46z"/>
</g>
</svg>
