<?xml version="1.0" standalone="no"?>
<!DOCTYPE svg PUBLIC "-//W3C//DTD SVG 20010904//EN"
 "http://www.w3.org/TR/2001/REC-SVG-20010904/DTD/svg10.dtd">
<svg version="1.0" xmlns="http://www.w3.org/2000/svg"
 width="428.000000pt" height="640.000000pt" viewBox="0 0 428.000000 640.000000"
 preserveAspectRatio="xMidYMid meet">
<metadata>
Created by potrace 1.13, written by Peter Selinger 2001-2015
</metadata>
<g transform="translate(0.000000,640.000000) scale(0.100000,-0.100000)"
fill="#000000" stroke="none">
<path d="M0 6144 l0 -255 22 3 c16 2 25 15 35 53 8 28 19 55 24 61 5 6 11 57
12 113 2 58 9 107 15 113 7 7 25 13 41 14 15 1 38 5 50 9 12 4 28 2 36 -5 22
-18 66 -1 77 32 6 18 16 28 27 27 23 -4 61 10 61 23 0 6 -18 9 -45 6 -40 -3
-45 -1 -45 18 0 23 31 34 95 34 41 0 48 -8 30 -36 -12 -19 -13 -28 -3 -49 25
-55 100 -7 78 50 -6 15 -8 31 -4 36 3 5 -98 9 -250 9 l-256 0 0 -256z"/>
<path d="M1171 6386 c-6 -8 -9 -21 -5 -30 4 -12 0 -16 -15 -16 -35 0 -86 -30
-98 -58 -6 -15 -13 -46 -16 -69 -3 -23 -12 -49 -21 -58 -14 -14 -19 -14 -51 7
-19 13 -35 28 -35 33 0 15 -37 45 -55 45 -8 0 -15 -3 -15 -6 0 -9 42 -68 55
-76 18 -13 -10 -43 -41 -44 -54 -1 -65 -4 -59 -13 3 -5 20 -13 37 -16 18 -4
38 -14 46 -21 20 -20 41 -17 102 15 30 16 70 32 88 36 30 6 44 29 22 37 -5 2
-7 13 -4 25 7 26 24 21 24 -8 0 -10 5 -19 10 -19 5 0 9 3 9 8 -6 34 2 42 42
42 48 0 50 22 3 30 -23 4 -25 7 -11 12 9 4 17 14 17 21 0 8 11 19 25 25 21 10
25 18 25 57 0 25 -3 46 -7 46 -46 7 -63 6 -72 -5z"/>
<path d="M2434 6378 c19 -27 20 -39 3 -32 -7 2 -24 -9 -37 -26 -26 -34 -44
-40 -35 -10 10 30 -29 26 -50 -6 -15 -24 -21 -25 -64 -20 -47 6 -48 5 -43 -20
3 -18 13 -27 32 -31 27 -5 30 -10 45 -65 2 -5 3 -19 4 -34 1 -18 9 -28 31 -35
19 -7 30 -18 30 -30 0 -10 7 -19 15 -19 25 0 12 -59 -16 -74 -26 -13 -27 -24
-7 -74 12 -31 11 -35 -9 -50 -28 -22 -25 -78 6 -103 23 -19 29 -67 9 -87 -9
-9 -9 -18 0 -37 16 -34 15 -45 -3 -45 -18 0 -55 30 -55 46 0 6 -9 19 -20 29
-12 10 -18 25 -16 32 3 7 1 15 -5 19 -5 3 -7 14 -4 25 4 13 2 19 -6 17 -7 -2
-17 16 -24 42 -7 31 -17 46 -30 49 -24 4 -60 49 -61 76 -3 50 -4 58 -11 51 -5
-4 -8 -33 -8 -64 -1 -49 3 -61 26 -84 29 -28 42 -88 32 -141 -7 -37 -55 -60
-91 -45 -15 6 -22 12 -14 15 19 7 14 23 -7 23 -11 0 -25 13 -35 33 -12 26 -16
28 -16 11 0 -57 -81 -50 -119 9 -16 26 -21 29 -26 15 -4 -9 -4 -22 0 -27 3 -6
-11 -17 -31 -26 -34 -14 -39 -14 -55 1 -10 9 -17 28 -17 43 1 15 -3 35 -9 45
-8 15 -12 14 -37 -9 -21 -19 -26 -31 -20 -48 4 -12 10 -23 15 -25 4 -2 5 -10
3 -17 -3 -8 4 -28 16 -45 14 -19 19 -37 15 -51 -5 -13 -1 -25 10 -32 14 -11
14 -15 -7 -37 l-23 -24 -7 39 c-3 22 -4 50 -1 63 4 18 1 22 -21 22 -15 0 -26
6 -26 14 0 15 -62 66 -81 66 -12 0 -38 28 -39 42 0 15 33 38 57 38 19 0 24 4
19 16 -3 9 -6 22 -6 30 0 8 -16 22 -35 30 -19 8 -34 19 -32 25 1 6 -15 17 -35
24 l-37 14 -1 -37 c-2 -127 0 -150 17 -160 18 -12 14 -84 -5 -98 -15 -11 -15
-16 -3 -35 11 -19 11 -23 -3 -31 -24 -13 -20 -20 29 -53 28 -19 45 -38 45 -50
0 -25 -28 -67 -73 -110 l-35 -33 37 4 c20 2 100 8 178 14 78 6 152 14 165 19
21 9 21 10 3 11 -18 1 -18 2 -4 13 9 7 18 18 20 25 3 10 11 8 31 -7 14 -12 31
-21 36 -21 6 0 12 -5 14 -11 3 -8 25 -9 78 -3 47 5 63 10 43 12 -17 2 -34 10
-37 19 -9 23 3 53 22 53 24 0 2 19 -35 29 -39 11 -48 4 -22 -18 21 -17 21 -17
-5 -31 -31 -16 -44 -7 -25 16 13 16 11 17 -13 10 -21 -5 -28 -3 -28 9 0 21 -9
19 -35 -9 -15 -17 -30 -23 -44 -19 -36 9 -44 28 -31 69 11 33 15 36 41 30 l29
-6 -20 22 c-26 28 -25 32 5 52 19 13 30 14 45 6 11 -6 20 -16 20 -23 0 -6 7
-2 15 10 9 12 22 20 29 17 8 -3 16 3 19 15 7 27 23 27 37 1 6 -11 17 -20 25
-20 20 0 19 -16 -1 -24 -8 -3 -12 -10 -9 -16 4 -7 13 -7 26 0 15 8 19 7 19 -4
0 -8 4 -17 9 -20 5 -3 8 2 7 11 -2 22 48 35 82 21 15 -6 31 -10 36 -9 5 1 16
-1 25 -5 9 -4 23 -8 31 -8 15 -1 22 -26 7 -26 -4 0 -20 -6 -37 -15 -38 -20
-69 -19 -92 2 -16 14 -21 15 -28 3 -6 -9 1 -22 21 -41 16 -15 29 -34 29 -43 0
-10 9 -16 25 -16 14 0 29 -8 34 -19 12 -22 15 -22 316 4 94 8 199 17 235 19
220 16 220 16 220 47 0 15 6 29 13 32 20 7 -17 61 -45 65 -42 5 -54 12 -39 21
9 6 10 11 2 15 -7 5 -3 22 11 51 18 37 27 45 49 45 23 0 27 5 35 42 7 33 16
45 46 62 53 29 88 57 88 69 0 5 16 29 35 52 19 23 31 45 28 49 -11 10 4 7 51
-13 37 -16 50 -18 75 -8 32 12 46 40 27 56 -18 15 -100 25 -91 12 5 -8 -1 -10
-21 -5 -19 5 -25 4 -20 -5 14 -21 -25 -24 -44 -3 -19 20 -18 52 1 52 5 0 9 5
9 10 0 6 -11 10 -24 10 -27 0 -53 -24 -37 -35 16 -9 -11 -45 -34 -45 -30 0
-49 16 -41 35 5 15 0 16 -52 10 -47 -5 -62 -3 -75 9 -8 9 -20 16 -26 16 -18 0
-23 22 -10 46 7 13 21 24 33 24 19 0 19 0 -2 20 -26 24 -26 24 -9 52 16 30 27
41 58 62 27 17 47 74 31 85 -5 3 -11 13 -15 23 -5 14 -10 15 -44 2 -53 -19
-65 -17 -107 11 -35 23 -44 25 -159 24 -67 -1 -114 -3 -104 -6 38 -10 14 -23
-42 -23 -56 0 -86 12 -59 23 7 3 -4 6 -25 6 -37 1 -38 1 -23 -21z"/>
<path d="M1500 6288 c-22 -37 -25 -48 -10 -48 6 0 10 -4 10 -10 0 -15 -47 -12
-53 4 -6 15 -65 27 -73 15 -2 -4 -17 -10 -33 -14 -34 -7 -58 -30 -41 -40 5 -3
10 -16 10 -29 0 -13 9 -31 19 -40 20 -19 79 -25 89 -10 4 5 20 15 36 22 24 11
27 16 21 40 -6 24 -5 25 7 10 14 -19 65 -27 86 -14 29 17 -5 146 -39 146 -5 0
-18 -15 -29 -32z"/>
<path d="M0 5651 c0 -197 3 -210 43 -189 15 8 17 25 17 133 0 68 4 126 8 129
12 7 -28 91 -50 105 -17 11 -18 2 -18 -178z"/>
<path d="M3106 5761 c-2 -3 -7 -25 -11 -48 -4 -24 -11 -45 -16 -49 -16 -9 -10
-19 19 -32 24 -10 34 -9 71 9 45 22 86 20 128 -7 26 -16 63 -19 63 -4 0 6 -12
10 -26 10 -18 0 -28 6 -31 20 -3 11 -17 23 -32 26 -14 4 -31 13 -38 21 -7 9
-19 13 -28 9 -11 -4 -18 0 -21 12 -5 17 -71 45 -78 33z"/>
<path d="M1282 5679 c-31 -23 -42 -38 -42 -58 0 -15 -5 -32 -12 -39 -8 -8 -1
-21 31 -52 44 -43 62 -47 71 -14 3 10 13 30 22 44 16 23 16 31 3 79 -8 30 -18
58 -22 62 -5 5 -28 -5 -51 -22z"/>
<path d="M325 5368 c-151 -15 -179 -16 -197 -7 -12 7 -28 5 -48 -6 -18 -9 -40
-13 -55 -9 l-25 6 0 -202 0 -202 32 6 c39 8 35 3 63 73 28 69 40 78 88 69 36
-7 43 -17 38 -54 -3 -17 28 -41 50 -42 9 0 19 -7 23 -15 3 -8 10 -15 16 -15 5
0 10 7 10 15 0 19 16 19 24 0 3 -9 12 -12 22 -8 9 3 20 0 24 -8 5 -7 12 -10
15 -7 9 9 -27 57 -43 58 -20 0 -41 25 -54 61 -10 29 -9 34 12 51 12 10 28 18
36 18 15 0 44 -50 44 -77 1 -30 35 -67 55 -59 18 7 45 -9 45 -26 0 -6 -7 -7
-16 -4 -20 8 -64 -40 -64 -69 0 -11 -9 -31 -20 -43 -17 -18 -24 -20 -50 -11
-16 6 -30 17 -30 24 0 7 -7 16 -16 19 -12 4 -15 2 -10 -9 7 -20 -20 -20 -58 0
-24 13 -32 13 -50 2 -14 -9 -35 -11 -67 -6 -26 4 -62 4 -80 0 l-34 -7 -3 -196
-2 -197 41 -3 c50 -4 92 -46 71 -71 -7 -8 -9 -17 -6 -20 13 -12 -48 -19 -72
-8 -14 6 -27 11 -29 11 -3 0 -5 -97 -5 -216 0 -180 3 -218 15 -231 9 -9 13
-23 10 -34 -4 -11 -2 -19 4 -19 19 0 12 -18 -9 -25 -20 -6 -20 -15 -20 -864 0
-773 2 -862 16 -897 9 -22 21 -66 25 -99 13 -92 26 -168 34 -190 10 -31 -29
-64 -56 -47 -19 12 -19 1 -19 -883 l0 -895 2140 0 2140 0 0 1611 c0 1418 -2
1612 -15 1625 -13 14 -15 7 -15 -65 l0 -80 -35 -17 c-54 -25 -224 -214 -260
-287 -17 -34 -36 -72 -43 -85 l-13 -22 -37 35 c-56 52 -184 114 -377 180 -116
39 -163 40 -190 2 -21 -29 -19 -83 4 -121 10 -17 42 -125 71 -241 29 -115 59
-227 66 -248 10 -28 11 -44 3 -58 -5 -11 -7 -29 -4 -40 11 -35 84 -51 114 -26
9 8 54 26 101 42 47 15 102 36 123 45 l37 18 0 -25 c0 -14 -5 -76 -11 -137
-15 -145 -9 -167 84 -282 66 -82 76 -100 92 -166 16 -69 16 -77 1 -106 -19
-36 -21 -83 -5 -99 8 -8 -8 -21 -62 -48 -69 -35 -74 -36 -119 -24 -34 9 -55 9
-77 1 -28 -9 -32 -8 -44 15 -35 64 -150 71 -188 11 -7 -11 -14 -38 -16 -59 -1
-22 -8 -46 -15 -54 -6 -8 -14 -32 -17 -54 -5 -35 -12 -44 -51 -67 -25 -15 -71
-50 -102 -79 -31 -29 -63 -56 -71 -61 -37 -24 -72 -76 -80 -118 -10 -53 -80
-248 -87 -241 -3 2 3 27 12 54 29 90 0 141 -79 141 -36 -1 -42 -4 -67 -45 -23
-38 -26 -55 -26 -124 l0 -81 41 -10 c23 -6 47 -13 54 -15 6 -2 14 1 17 8 3 8
5 7 5 -2 1 -11 5 -10 16 5 14 18 15 16 9 -21 -7 -43 -14 -59 -14 -31 0 10 -5
14 -11 10 -6 -3 -15 0 -20 7 -5 8 -9 9 -9 3 0 -6 -10 -9 -24 -7 -33 7 -173
-60 -181 -87 -7 -22 -20 -26 -30 -10 -11 18 -22 11 -48 -29 -32 -48 -55 -49
-99 -4 -46 48 -77 165 -48 183 23 14 66 -4 102 -42 20 -22 43 -38 50 -35 15 5
13 50 -3 56 -21 7 -59 53 -59 71 0 11 11 30 25 44 30 30 33 56 5 56 -27 0 -25
11 10 56 39 48 39 95 1 101 -32 5 -39 12 -21 23 12 7 11 10 -4 16 -10 4 -21 2
-25 -4 -4 -7 -13 -5 -26 5 -20 15 -20 15 3 10 15 -3 22 -1 19 6 -2 6 -14 14
-27 17 -32 8 -39 40 -38 175 1 89 5 118 18 135 l17 22 13 -31 c27 -65 95 -91
124 -49 20 28 20 62 2 91 -26 40 -78 266 -110 487 -18 117 -36 144 -98 148
-34 2 -48 -2 -63 -18 -25 -28 -23 -60 16 -220 39 -164 42 -235 10 -307 -14
-31 -30 -53 -39 -53 -8 0 -35 10 -59 22 -80 40 -108 130 -119 382 -6 138 -7
140 -36 169 -25 26 -34 29 -69 24 -49 -6 -89 -41 -89 -77 0 -14 9 -66 19 -115
11 -50 22 -121 26 -159 8 -76 44 -203 71 -245 43 -68 114 -118 209 -146 l40
-12 -1 -85 c-1 -93 -24 -150 -65 -161 -43 -12 -67 17 -114 138 -15 39 -54 123
-86 188 -45 91 -62 139 -74 205 -8 48 -27 112 -42 142 -25 50 -35 58 -98 89
-38 19 -119 51 -179 71 l-108 37 -4 38 c-2 20 -10 48 -19 61 -15 23 -118 98
-152 111 -10 4 -48 24 -84 45 l-66 38 -7 88 c-13 164 -37 407 -56 567 -11 88
-31 273 -45 410 -14 138 -36 340 -50 450 -13 110 -29 254 -35 320 -19 218 -40
428 -60 600 -23 205 -37 347 -46 478 -5 73 -10 97 -20 97 -8 0 -13 -6 -12 -12
2 -8 -7 -12 -25 -11 -15 1 -26 -1 -23 -5 3 -6 -54 -7 -111 -3 -7 1 -13 10 -13
22 0 14 12 25 39 37 35 15 39 21 44 62 3 25 7 52 9 60 2 10 -6 16 -24 18 -16
2 -28 6 -28 10 -1 26 -18 32 -46 17 -34 -18 -108 -20 -154 -4 -27 10 -42 9
-80 -5 -69 -25 -121 -18 -138 17 -7 15 -20 26 -30 25 -9 0 -57 -5 -107 -10z
m455 -922 c0 -7 -12 -19 -27 -27 -58 -30 -67 -59 -18 -59 40 0 38 -18 -3 -56
-39 -35 -40 -36 -24 -63 20 -36 14 -50 -42 -95 -35 -30 -56 -38 -98 -43 -87
-9 -260 -5 -272 7 -14 14 -74 12 -111 -4 -38 -16 -70 -10 -88 18 -19 29 -56
143 -49 150 3 3 16 6 28 6 13 0 26 5 29 11 4 6 21 9 38 7 34 -3 46 16 31 50
-4 9 -6 25 -5 35 1 9 -2 17 -7 17 -6 0 -13 8 -17 18 -5 14 -4 15 6 5 7 -7 24
-13 38 -13 26 0 61 -25 61 -44 0 -16 35 -44 64 -52 21 -5 35 -26 40 -59 0 -5
8 -10 16 -10 8 0 32 -6 53 -14 21 -7 49 -10 62 -7 26 7 86 91 79 111 -4 9 6
16 28 20 43 9 58 22 58 49 0 25 60 62 84 53 9 -3 18 -2 21 4 8 12 25 2 25 -15z
m298 -552 c15 -10 22 -25 22 -48 0 -28 -5 -36 -30 -46 -17 -7 -37 -21 -44 -32
-8 -12 -26 -19 -50 -20 -71 -3 -114 -100 -53 -121 22 -7 33 -4 58 17 43 36 72
34 62 -4 -6 -22 -56 -45 -78 -36 -9 3 -13 2 -10 -4 3 -6 -16 -9 -48 -8 -36 1
-73 -6 -111 -22 -56 -22 -65 -23 -253 -17 -114 3 -200 10 -206 16 -6 6 -50 8
-121 4 l-111 -6 -11 36 c-10 32 -8 39 10 56 40 37 133 32 174 -9 17 -16 35
-30 40 -30 16 0 22 28 13 53 -11 28 -28 42 -61 50 -14 4 -44 24 -68 46 -43 39
-43 40 -27 65 10 16 29 27 48 30 82 12 236 21 374 20 121 -1 157 -4 176 -17
23 -15 27 -14 68 6 30 15 66 22 113 24 37 1 71 4 74 7 9 10 27 7 50 -10z
m-557 -420 c13 -7 -1 -117 -19 -153 -16 -33 -16 -34 11 -55 15 -12 27 -29 27
-39 0 -9 5 -17 10 -17 6 0 10 7 10 16 0 12 3 14 13 6 8 -7 29 -3 70 14 69 30
157 36 229 18 111 -28 155 -42 193 -63 22 -12 49 -21 60 -22 11 0 14 -3 7 -6
-13 -5 56 -80 93 -101 11 -6 14 -12 7 -12 -8 0 -10 -5 -5 -12 18 -30 22 -128
5 -128 -4 0 -6 15 -4 34 2 20 -1 37 -9 41 -9 6 -11 3 -6 -7 3 -9 -2 -23 -12
-32 -22 -20 -31 -20 -31 0 0 12 -5 11 -19 -7 l-20 -24 6 24 c4 17 3 22 -5 17
-14 -8 -16 -73 -3 -78 11 -4 -16 -88 -35 -107 -7 -8 -17 -11 -21 -7 -5 5 -2
11 5 13 6 3 12 10 12 18 0 7 7 18 15 25 8 7 15 20 15 28 0 13 -3 12 -15 -4
-15 -18 -15 -18 -8 0 4 13 3 17 -5 12 -7 -4 -12 -19 -12 -34 0 -24 -38 -82
-54 -82 -4 0 0 13 9 30 17 33 20 66 5 75 -5 3 -7 0 -4 -9 6 -16 -14 -59 -59
-126 -19 -28 -24 -39 -12 -30 17 14 18 13 11 -5 -4 -11 -11 -39 -16 -63 -8
-43 -20 -67 -20 -41 -1 10 -5 8 -15 -5 -15 -20 -15 -20 -15 0 -1 18 -1 18 -13
-1 -18 -30 -32 -27 -31 6 3 61 4 65 13 51 12 -20 20 5 13 47 l-5 34 -14 -24
-13 -24 1 25 c3 64 -1 83 -15 71 -8 -6 -16 -21 -19 -32 -4 -16 -3 -18 9 -8 11
9 14 7 14 -15 0 -16 -4 -25 -10 -21 -5 3 -10 -3 -10 -15 0 -13 -4 -19 -12 -14
-7 4 -8 3 -4 -4 4 -6 12 -9 19 -6 8 3 12 -7 12 -30 0 -25 -3 -32 -12 -25 -7 7
-13 5 -16 -3 -4 -9 -6 -7 -6 4 -1 9 5 18 11 20 8 3 4 9 -10 17 -22 12 -31 41
-12 41 6 0 10 7 10 16 0 13 -2 13 -13 2 -7 -7 -18 -22 -25 -33 -10 -18 -11
-18 -12 10 l-1 30 -17 -30 c-16 -30 -17 -30 -20 -6 -5 30 9 121 15 103 4 -9
10 -6 24 9 10 12 16 26 13 30 -8 13 -24 1 -24 -17 0 -8 -5 -12 -11 -9 -6 4
-13 -2 -15 -12 -3 -10 -14 -24 -25 -31 -17 -11 -19 -9 -19 18 0 16 -4 30 -10
30 -5 0 -10 -11 -10 -24 0 -13 -3 -32 -7 -42 -5 -13 -3 -15 8 -8 8 4 22 10 31
11 14 2 16 -3 11 -35 -3 -20 -9 -39 -13 -42 -4 -3 -10 -14 -13 -25 -4 -15 -5
-14 -6 8 -1 29 -18 37 -27 12 -4 -8 -10 -13 -14 -10 -4 3 -10 -14 -12 -38 -3
-30 0 -45 11 -54 22 -17 44 -16 38 2 -4 8 -1 17 6 21 7 4 9 4 5 -1 -4 -4 -3
-17 3 -28 9 -15 8 -18 -2 -12 -9 6 -11 3 -6 -8 5 -13 -2 -12 -31 7 -20 13 -36
31 -36 40 1 9 -2 16 -7 16 -5 0 -9 8 -9 18 0 9 -5 24 -10 32 -8 11 -10 2 -8
-34 1 -30 9 -58 22 -75 l19 -26 -22 21 c-12 11 -24 29 -25 39 -2 11 -8 21 -15
23 -10 3 -10 0 -2 -16 15 -28 14 -32 -6 -25 -12 5 -14 3 -7 -8 17 -27 14 -40
-7 -28 -11 5 -17 14 -14 20 4 5 1 8 -6 7 -7 -2 -19 9 -26 25 -8 15 -18 27 -22
27 -5 0 0 30 10 68 30 108 31 120 5 67 -13 -27 -25 -45 -25 -39 -1 7 6 25 14
40 8 16 15 44 15 62 0 17 4 32 9 32 5 0 7 10 4 21 -6 21 -7 21 -20 4 -7 -11
-14 -37 -14 -59 -2 -36 -3 -37 -7 -11 l-5 30 -8 -25 c-6 -17 -7 -9 -4 28 3 46
2 52 -11 41 -10 -8 -13 -24 -9 -58 7 -52 -2 -71 -33 -74 -38 -2 -29 -58 20
-133 23 -35 49 -64 56 -64 9 0 12 6 8 16 -3 8 -2 12 3 9 6 -3 9 -13 8 -23 -2
-27 -36 -21 -59 10 -22 32 -38 36 -38 10 0 -10 -4 -22 -10 -28 -6 -6 -6 -21
-1 -41 11 -38 -8 -52 -33 -24 -22 25 -20 73 6 117 l21 36 -23 18 c-17 13 -24
30 -28 71 -3 30 -9 57 -14 60 -6 4 -6 15 2 29 8 15 9 25 1 33 -6 6 -7 17 -2
26 5 9 7 54 6 101 -5 126 3 188 27 201 25 13 48 -4 48 -36 0 -12 7 -28 15 -35
11 -9 19 -7 39 13 14 14 27 23 30 20 3 -3 4 4 3 16 -1 15 -8 21 -24 21 -13 0
-40 7 -60 15 -28 12 -34 18 -25 27 19 19 14 42 -10 53 -29 13 -28 57 2 97 12
16 18 33 15 38 -3 6 1 10 9 10 10 0 13 -6 10 -15 -4 -8 -1 -15 5 -15 6 0 11
-7 11 -15 0 -8 9 -15 20 -15 11 0 20 7 20 15 0 8 -6 15 -14 15 -8 0 -17 8 -20
18 -5 15 -17 18 -71 19 -96 1 -148 41 -109 84 16 18 26 20 69 14 36 -4 59 -2
79 9 26 13 126 13 147 0z m-332 -117 c1 -12 1 -34 2 -49 0 -20 7 -29 31 -37
17 -6 39 -11 48 -11 25 0 34 -29 12 -37 -27 -9 -62 -45 -62 -63 0 -9 10 -34
22 -55 21 -38 22 -52 22 -309 1 -285 -1 -299 -46 -303 -13 -1 -35 -5 -50 -9
l-28 -6 0 131 c0 159 -11 193 -62 189 -24 -2 -33 2 -36 14 -3 15 3 17 34 15
31 -2 39 2 42 18 3 11 13 32 23 47 22 31 25 68 5 68 -18 0 -10 35 17 72 17 22
18 33 10 65 -5 21 -7 64 -3 96 3 32 4 60 1 63 -3 2 -5 20 -6 38 0 18 -6 41
-14 50 -10 12 -11 19 -1 30 16 20 38 10 39 -17z m3408 -698 c94 -45 193 -130
193 -166 0 -29 -61 -80 -149 -125 -70 -35 -71 -36 -76 -15 -9 40 -65 332 -65
340 0 11 7 9 97 -34z m-3239 -579 c17 -54 15 -80 -7 -116 -18 -29 -22 -31 -58
-24 -61 12 -72 20 -79 58 -9 48 12 87 50 88 15 1 35 8 44 18 25 25 36 20 50
-24z m2173 -1005 c2 -35 -2 -50 -21 -70 -19 -20 -21 -27 -10 -40 10 -12 10
-15 0 -15 -9 0 -10 -3 -1 -13 8 -11 5 -26 -13 -62 -23 -45 -25 -75 -5 -75 13
0 11 -21 -5 -51 -9 -18 -10 -32 -4 -43 5 -9 7 -22 5 -29 -3 -7 -8 -4 -12 8 -4
11 -19 47 -34 80 -14 33 -26 62 -26 65 -1 3 -7 16 -14 29 -8 14 -9 21 -2 17
10 -7 14 20 15 85 0 11 5 15 14 11 12 -4 12 -1 2 17 -11 22 -11 22 20 6 18 -9
34 -14 38 -11 3 3 1 6 -4 6 -6 0 -19 7 -30 15 -10 8 -14 15 -9 14 6 -1 17 -1
25 0 12 1 12 3 2 10 -10 6 -11 21 -3 72 6 35 11 67 11 71 0 3 13 -7 30 -23 22
-23 30 -40 31 -74z"/>
<path d="M2865 5333 c-10 -24 -21 -33 -37 -33 -13 0 -38 -9 -55 -20 -37 -22
-41 -46 -24 -168 6 -37 18 -150 27 -252 l18 -184 34 -38 c36 -40 65 -47 91
-24 9 8 61 22 116 31 55 9 120 23 144 31 25 7 68 14 96 14 91 0 140 66 73 98
-40 19 -237 18 -318 -2 -104 -25 -100 -28 -100 63 l0 78 65 22 c36 11 89 21
118 21 59 0 69 5 87 39 11 22 10 27 -8 41 -24 20 -170 34 -244 24 l-48 -7 0
31 c0 29 2 31 48 37 111 13 177 27 213 46 28 14 59 19 112 19 60 0 77 4 95 20
43 41 20 90 -42 90 -14 0 -26 6 -26 13 0 9 -3 8 -9 -2 -6 -9 -11 -10 -15 -2
-4 5 -19 10 -34 10 -15 0 -61 0 -102 1 -41 0 -117 -3 -167 -8 -73 -6 -93 -5
-93 5 0 7 4 13 8 13 5 0 17 6 27 14 19 13 18 14 -9 13 -21 -2 -31 -10 -41 -34z"/>
<path d="M2571 5316 c-46 -16 -56 -34 -71 -122 -10 -59 -11 -87 -1 -126 6 -28
10 -52 9 -53 -2 -1 -46 -9 -99 -17 l-97 -14 -4 53 c-5 56 -26 89 -66 104 -19
7 -21 12 -12 28 18 35 11 60 -22 82 -37 23 -41 23 -393 -12 -124 -12 -269 -43
-302 -65 -34 -21 -30 -68 7 -106 29 -28 34 -30 88 -25 31 3 78 11 103 18 63
17 79 9 72 -35 -8 -51 48 -305 76 -345 10 -14 23 -42 30 -61 11 -37 55 -71 79
-63 28 10 42 62 43 155 0 83 -24 327 -37 369 -4 13 5 18 43 23 26 4 69 14 95
23 53 19 70 13 44 -16 -14 -16 -17 -43 -19 -167 -1 -134 2 -159 26 -244 33
-118 62 -145 107 -100 15 15 20 34 21 83 2 110 1 109 108 125 52 7 103 19 115
27 30 22 34 20 50 -33 7 -27 28 -76 45 -110 25 -49 36 -62 55 -62 32 0 56 30
56 73 0 19 4 46 8 59 5 13 5 64 0 113 -5 50 -12 161 -16 248 -7 158 -8 159
-35 183 -31 26 -55 29 -106 10z"/>
<path d="M3885 4636 c-18 -20 -39 -53 -45 -73 -7 -21 -18 -47 -24 -58 -7 -11
-37 -93 -67 -182 -29 -90 -56 -163 -59 -162 -3 0 -20 21 -37 47 -18 26 -56 81
-85 122 -116 169 -157 202 -224 180 -53 -18 -58 -37 -40 -153 8 -56 20 -142
26 -192 6 -49 18 -114 26 -145 8 -30 17 -70 19 -88 5 -31 34 -126 56 -183 6
-15 21 -31 35 -37 20 -10 26 -8 38 11 25 37 29 134 12 291 -9 82 -15 151 -13
152 2 2 39 -33 83 -78 132 -135 125 -128 144 -118 20 10 63 81 75 120 4 14 26
68 48 120 l41 95 7 -40 c4 -22 12 -91 18 -154 13 -129 42 -264 71 -333 11 -26
20 -56 20 -67 0 -22 25 -51 43 -51 31 1 49 30 54 87 14 141 -2 522 -26 643
-11 52 -23 117 -26 145 -12 87 -40 121 -107 132 -24 4 -36 -2 -63 -31z"/>
<path d="M2670 4475 c-63 -6 -130 -8 -148 -4 -80 17 -138 -29 -112 -91 20 -49
49 -62 125 -58 55 2 68 0 76 -15 6 -9 14 -72 19 -140 11 -135 47 -393 59 -417
12 -22 53 -25 68 -4 16 22 18 435 3 528 -5 33 -9 61 -7 62 1 1 16 5 32 8 28 6
31 4 43 -31 8 -21 20 -83 27 -138 17 -133 45 -281 61 -329 8 -21 14 -51 14
-67 0 -34 18 -76 35 -83 13 -5 157 16 245 35 30 7 75 13 100 13 37 1 47 5 59
28 21 36 2 58 -50 58 -24 0 -39 5 -39 13 0 8 -3 9 -8 1 -8 -12 -65 -22 -186
-31 l-79 -6 6 24 c4 13 7 40 7 59 0 35 0 36 43 34 23 -1 62 4 87 11 52 14 55
15 75 15 20 0 48 57 41 85 -8 32 -32 37 -115 25 -99 -16 -136 -3 -145 48 -9
56 -7 120 4 127 5 3 56 6 112 7 108 1 131 7 147 37 17 30 1 61 -43 83 -31 16
-67 23 -154 28 l-114 6 -31 37 c-53 60 -64 62 -257 42z"/>
<path d="M1903 4439 c-37 -11 -54 -39 -73 -119 -27 -117 -25 -117 -85 -1 -29
57 -59 108 -67 112 -7 5 -29 9 -49 9 -40 0 -69 -24 -69 -58 0 -27 85 -172 139
-237 23 -28 44 -61 48 -74 3 -14 -2 -65 -11 -115 -25 -136 -49 -306 -50 -351
-1 -33 2 -40 20 -43 23 -3 49 56 172 388 28 74 71 182 97 240 73 167 78 222
18 249 -28 13 -46 13 -90 0z"/>
<path d="M1309 4416 c-60 -21 -103 -50 -127 -87 -20 -28 -23 -43 -18 -81 9
-86 48 -135 170 -217 92 -62 118 -98 123 -165 3 -39 -1 -61 -19 -95 -34 -65
-51 -72 -88 -36 -16 16 -35 44 -42 62 -7 18 -16 33 -20 33 -4 0 -8 15 -8 33 0
40 -16 63 -51 71 -21 5 -30 1 -43 -19 -25 -37 -6 -164 31 -218 53 -76 132
-124 187 -113 113 23 220 201 196 326 -10 52 -37 111 -67 145 -10 11 -55 51
-101 89 -101 84 -122 136 -52 136 45 0 77 -16 96 -49 30 -51 71 -47 94 9 20
47 -19 115 -90 158 -60 35 -108 41 -171 18z"/>
<path d="M2165 4406 c-58 -27 -78 -47 -100 -100 -31 -74 -3 -151 98 -268 34
-40 70 -85 80 -100 35 -56 11 -118 -45 -118 -33 0 -97 44 -143 98 -27 31 -44
42 -65 42 -47 0 -55 -56 -15 -110 14 -19 25 -39 25 -45 0 -19 52 -63 100 -84
67 -31 133 -27 197 9 146 84 143 234 -9 409 -39 46 -52 76 -46 108 5 26 41 28
63 3 24 -26 36 -25 69 5 42 38 37 88 -14 137 -37 34 -46 38 -93 38 -34 0 -70
-9 -102 -24z"/>
<path d="M4221 3814 c-1 -65 15 -375 25 -481 5 -54 8 -61 20 -49 11 12 14 61
14 255 0 154 -4 241 -10 241 -5 0 -10 6 -10 14 0 7 -6 19 -14 26 -8 6 -17 21
-19 33 -2 12 -5 -6 -6 -39z"/>
<path d="M2193 3644 c-40 -20 -45 -41 -27 -122 8 -37 19 -94 24 -128 5 -34 12
-68 16 -77 6 -18 -19 -28 -77 -30 l-32 -2 -17 103 c-21 122 -41 152 -99 152
-20 -1 -45 -6 -57 -13 l-21 -12 18 -75 c10 -41 19 -84 19 -94 0 -11 5 -34 12
-53 11 -29 10 -35 -11 -57 -20 -21 -22 -30 -14 -63 6 -29 16 -42 41 -53 24
-11 34 -24 42 -55 6 -22 17 -63 25 -91 8 -28 15 -64 15 -80 0 -55 45 -87 76
-53 15 17 16 33 10 136 -3 65 -9 132 -12 148 -5 28 -3 31 44 48 67 23 79 22
87 -10 6 -24 24 -66 79 -183 16 -34 52 -38 77 -9 17 20 19 32 14 84 -6 49 -4
58 6 47 9 -8 13 -40 14 -93 0 -66 3 -84 17 -92 26 -17 54 15 66 76 19 93 36
122 80 135 59 18 79 15 99 -14 10 -15 30 -40 45 -58 15 -17 37 -43 49 -58 26
-35 56 -36 71 -2 10 21 9 31 -5 56 -9 16 -17 40 -17 52 0 48 -142 351 -210
451 -37 54 -66 75 -103 75 -30 0 -67 -16 -79 -34 -12 -18 -9 -52 8 -103 16
-45 16 -54 -1 -143 -21 -118 -29 -143 -41 -147 -8 -3 -55 207 -80 359 -12 71
-88 113 -151 82z"/>
<path d="M2970 3626 c-74 -17 -101 -30 -127 -57 -44 -48 -55 -118 -29 -180 26
-61 76 -97 219 -159 144 -61 197 -93 197 -115 0 -8 -10 -26 -23 -41 -19 -21
-33 -27 -68 -28 -58 -1 -95 23 -120 79 -24 54 -38 65 -66 54 -44 -16 -21 -91
52 -176 70 -82 188 -84 304 -8 52 35 86 101 76 151 -10 56 -67 110 -164 155
-174 82 -211 107 -211 141 0 14 8 18 35 18 29 0 39 -6 61 -40 32 -47 68 -53
102 -17 34 36 30 95 -11 149 -55 71 -131 97 -227 74z"/>
<path d="M2805 2913 c-43 -6 -65 -30 -65 -70 0 -31 14 -70 29 -83 28 -23 55
-103 67 -195 7 -47 45 -181 81 -280 14 -38 27 -87 30 -108 4 -26 13 -43 30
-54 22 -15 27 -15 57 -1 18 9 91 22 163 29 115 10 135 15 157 36 29 26 31 35
16 64 -10 18 -19 18 -158 12 l-148 -6 -17 95 c-9 52 -17 98 -17 103 0 4 46 6
103 3 56 -3 108 -3 115 -1 21 8 41 57 31 76 -18 31 -53 42 -156 47 -56 3 -104
8 -108 11 -3 3 -8 36 -12 72 l-6 65 108 1 c105 0 109 1 132 27 61 71 -9 123
-177 131 -52 2 -117 9 -145 14 -75 16 -78 16 -110 12z"/>
<path d="M2468 2866 c-13 -6 -29 -23 -35 -37 -13 -28 -8 -68 63 -449 15 -80
29 -175 31 -212 7 -97 12 -100 152 -88 146 13 197 26 221 58 24 30 24 36 5 55
-11 12 -38 14 -143 9 l-129 -5 -7 169 c-17 436 -18 445 -40 471 -26 30 -86 45
-118 29z"/>
<path d="M1685 2795 c-40 -19 -100 -39 -139 -45 -38 -6 -81 -17 -97 -26 -25
-12 -29 -21 -29 -55 0 -59 22 -95 63 -103 31 -6 35 -10 45 -59 6 -28 11 -78
10 -111 -1 -56 1 -60 41 -96 22 -21 41 -44 41 -51 0 -25 70 -197 85 -209 8 -7
15 -23 15 -36 0 -50 73 -65 90 -18 11 29 -4 165 -29 262 -14 53 -16 74 -8 77
79 28 202 64 205 60 2 -2 -5 -23 -17 -46 -22 -41 -22 -44 -5 -87 13 -34 15
-61 10 -117 -7 -79 4 -103 43 -90 23 7 29 23 45 119 l12 70 50 13 c27 7 56 13
64 13 15 0 40 -36 91 -128 28 -53 61 -66 78 -33 13 23 -20 131 -112 366 -29
77 -62 162 -72 190 -27 72 -55 97 -107 93 -60 -4 -77 -35 -59 -110 10 -43 11
-66 2 -111 -11 -52 -14 -55 -34 -48 -20 8 -159 -8 -213 -24 -19 -6 -23 1 -43
80 -12 48 -20 89 -18 91 10 10 154 54 177 54 37 0 72 40 68 76 -4 36 -49 59
-128 68 -49 5 -63 1 -125 -29z"/>
<path d="M2273 2809 c-26 -9 -43 -38 -43 -72 0 -30 89 -327 134 -450 19 -51
38 -108 43 -127 7 -28 15 -36 36 -38 40 -5 42 25 13 199 -14 85 -30 195 -36
244 -20 158 -29 209 -43 223 -19 19 -78 31 -104 21z"/>
<path d="M2775 2008 c-135 -47 -165 -189 -62 -296 32 -33 150 -103 197 -117
37 -11 176 -95 221 -134 22 -18 47 -47 55 -63 15 -29 15 -32 -4 -57 -26 -35
-75 -38 -127 -8 -23 13 -82 73 -138 140 -88 105 -102 117 -130 117 -48 0 -77
-24 -77 -64 0 -34 41 -100 129 -206 89 -106 105 -121 168 -152 55 -27 70 -30
120 -25 71 7 137 41 176 90 25 30 32 49 35 97 4 50 0 66 -21 103 -51 87 -148
159 -364 271 -100 52 -153 100 -153 137 0 72 128 37 188 -51 43 -65 107 -77
130 -25 19 41 14 69 -18 113 -78 108 -222 166 -325 130z"/>
</g>
</svg>
