<?xml version="1.0" standalone="no"?>
<!DOCTYPE svg PUBLIC "-//W3C//DTD SVG 20010904//EN"
 "http://www.w3.org/TR/2001/REC-SVG-20010904/DTD/svg10.dtd">
<svg version="1.0" xmlns="http://www.w3.org/2000/svg"
 width="650.000000pt" height="500.000000pt" viewBox="0 0 650.000000 500.000000"
 preserveAspectRatio="xMidYMid meet">
<metadata>
Created by potrace 1.13, written by Peter Selinger 2001-2015
</metadata>
<g transform="translate(0.000000,500.000000) scale(0.100000,-0.100000)"
fill="#000000" stroke="none">
<path d="M1391 4938 c-11 -35 -63 -207 -116 -383 -53 -176 -139 -457 -190
-625 -51 -168 -148 -494 -215 -725 -67 -231 -146 -494 -176 -584 -30 -91 -54
-172 -54 -181 0 -9 8 -24 18 -33 28 -26 480 -153 557 -157 51 -3 55 -1 55 28
0 16 -6 36 -12 45 -8 9 -73 34 -153 57 -197 57 -317 99 -344 120 l-24 17 30
79 c51 133 168 513 212 689 16 61 40 146 54 190 66 203 188 599 316 1025 77
256 143 473 146 483 6 15 1 17 -38 17 l-45 0 -21 -62z"/>
<path d="M2680 4990 c14 -5 119 -34 234 -65 251 -67 555 -158 886 -265 135
-43 396 -120 580 -170 515 -140 1723 -490 1738 -504 10 -10 5 -34 -22 -121
-52 -166 -210 -695 -246 -825 -37 -135 -103 -363 -247 -850 -227 -773 -286
-966 -297 -978 -10 -10 -96 11 -432 102 -668 183 -694 191 -694 219 0 5 29 41
65 78 55 59 65 75 65 105 0 74 -62 120 -149 112 -59 -6 -167 -64 -268 -145
-37 -29 -73 -53 -82 -53 -8 0 -95 26 -193 57 l-178 57 -44 70 c-57 91 -122
167 -200 233 -59 51 -88 63 -101 43 -3 -6 31 -57 77 -114 46 -57 111 -151 146
-208 52 -86 68 -124 94 -223 28 -109 31 -135 32 -275 1 -177 -10 -235 -73
-365 -69 -144 -175 -260 -303 -333 -58 -33 -179 -73 -275 -92 -64 -13 -77 -26
-48 -50 13 -10 33 -11 100 -1 46 6 103 18 126 26 23 8 50 15 60 15 24 0 323
-340 310 -353 -12 -12 -43 -1 -256 83 -93 37 -215 82 -270 100 -108 34 -130
48 -149 95 -20 46 -69 82 -128 94 -68 14 -414 7 -432 -8 -10 -9 -36 -6 -102 9
-154 35 -143 28 -235 163 -46 67 -116 168 -156 224 -95 132 -101 145 -79 178
10 15 26 25 39 25 39 0 114 -56 163 -122 51 -70 69 -105 114 -223 37 -99 95
-179 133 -183 39 -5 35 22 -15 99 -22 35 -56 98 -75 139 -67 148 -87 183 -136
237 -86 94 -179 133 -317 133 -85 0 -135 -22 -146 -64 -13 -51 22 -62 48 -16
20 35 58 52 107 48 27 -2 35 -7 32 -18 -3 -8 -6 -35 -9 -60 -3 -41 1 -52 42
-110 95 -134 96 -151 14 -140 -76 11 -147 50 -227 126 -84 79 -108 129 -92
191 28 103 96 129 276 109 l71 -8 12 53 c7 30 31 92 54 139 46 93 55 157 27
185 -9 9 -34 22 -55 30 -43 15 -43 19 -24 95 12 49 8 81 -16 104 -24 24 -41
20 -89 -25 -44 -40 -75 -47 -75 -16 0 14 58 71 143 140 42 34 47 42 47 78 0
41 -14 78 -34 91 -20 14 -71 8 -109 -12 -31 -17 -37 -18 -37 -5 0 9 14 24 30
33 51 28 54 92 5 92 -35 0 -170 -53 -230 -91 -106 -66 -146 -122 -166 -230
-27 -148 58 -323 246 -509 36 -35 65 -70 65 -76 0 -6 -19 -15 -43 -18 -146
-22 -223 -199 -151 -345 63 -126 279 -231 475 -231 l59 0 30 -60 c40 -79 39
-90 -7 -90 -48 0 -94 -28 -122 -74 -35 -55 -36 -93 -7 -151 14 -27 26 -54 26
-59 0 -4 -28 -5 -63 -2 -55 6 -66 5 -90 -14 -17 -13 -31 -39 -38 -66 -9 -33
-19 -49 -40 -60 -33 -17 -56 -48 -69 -93 -8 -29 -7 -31 19 -31 24 0 30 5 34
30 4 16 18 36 31 45 24 16 29 16 78 0 29 -10 82 -31 117 -46 36 -17 81 -29
104 -29 l40 0 -49 26 c-27 15 -80 42 -119 60 -100 49 -100 49 -103 77 -2 19 4
30 24 43 25 17 29 17 98 -6 99 -34 190 -96 194 -133 2 -17 -4 -37 -14 -48 -17
-18 -16 -19 29 -19 l47 0 0 40 c0 37 -8 48 -86 132 -148 158 -174 230 -109
295 l35 35 93 -4 c51 -2 105 -10 122 -19 27 -13 31 -20 35 -69 6 -54 12 -53
25 4 5 26 9 28 37 22 48 -10 78 -33 78 -61 0 -48 -105 -60 -220 -25 -78 24
-100 25 -100 5 0 -8 7 -15 15 -15 32 0 62 -45 75 -113 8 -42 17 -67 25 -67 15
0 20 13 31 73 l6 37 62 1 c33 0 79 3 101 8 25 4 57 2 84 -6 24 -7 82 -20 128
-29 68 -12 91 -13 114 -4 34 15 47 46 26 67 -12 13 -26 13 -88 4 -80 -13 -168
-1 -190 25 -18 21 -7 26 64 29 73 2 87 8 87 35 0 33 36 43 124 36 160 -12 188
-31 194 -133 5 -75 -8 -146 -44 -233 -13 -33 -24 -62 -24 -65 0 -3 226 -5 503
-5 l502 1 -39 22 c-71 40 -82 56 -100 153 -18 101 -21 239 -5 249 14 9 103
-46 219 -138 54 -42 101 -77 104 -77 14 0 3 61 -28 154 -42 125 -180 416 -207
436 -20 16 -20 16 5 72 65 146 74 312 30 568 -14 84 -24 154 -21 156 5 5 196
-45 219 -57 26 -14 23 -30 -22 -120 -72 -143 -83 -246 -36 -336 24 -46 97
-109 165 -145 59 -30 66 -37 82 -83 9 -27 30 -80 47 -116 16 -36 33 -81 37
-100 3 -19 18 -69 32 -112 14 -43 22 -84 19 -92 -7 -18 -40 -7 -191 64 -59 28
-114 51 -121 51 -18 0 -18 -18 2 -71 42 -117 114 -369 120 -421 l7 -58 599 0
599 0 -7 23 c-17 55 -86 201 -139 292 -93 162 -188 295 -312 437 -125 143
-145 174 -123 188 16 10 6 40 -15 40 -8 0 -54 -14 -103 -31 -322 -114 -351
-122 -378 -104 -37 24 -39 41 -10 76 14 17 26 37 26 44 0 19 -44 51 -88 66
-61 19 -145 65 -170 92 -53 57 -47 160 16 282 27 51 68 102 150 187 63 65 122
120 132 123 11 3 34 -5 57 -20 37 -26 64 -28 104 -11 11 5 19 1 23 -9 9 -24
-88 -110 -180 -159 -98 -52 -100 -66 -20 -115 33 -20 69 -49 80 -64 34 -45 24
-107 -26 -179 -10 -13 -10 -20 -1 -29 16 -16 55 -4 86 27 23 23 26 34 25 87
-2 59 -3 61 -62 125 l-61 65 45 -8 c25 -4 79 -18 120 -30 41 -13 120 -36 175
-50 55 -15 108 -31 118 -36 27 -15 22 -70 -12 -115 -43 -58 -142 -151 -173
-163 -39 -14 -35 -31 6 -31 26 0 51 12 98 48 55 41 89 80 174 198 20 28 23 28
60 18 21 -7 190 -57 374 -113 184 -55 339 -101 343 -101 17 0 32 48 287 900
171 573 550 1809 584 1905 45 125 46 159 8 179 -48 25 -270 94 -533 165 -140
38 -342 96 -449 129 -221 68 -387 115 -710 203 -300 81 -350 96 -590 172 -113
36 -308 95 -435 132 -126 37 -305 89 -397 116 l-168 49 -167 -1 c-107 0 -159
-4 -143 -9z m1758 -4096 c12 -8 22 -21 22 -29 0 -44 -251 -170 -378 -191 -38
-6 -39 -5 -60 37 -12 24 -18 47 -14 51 4 4 59 23 122 42 63 19 151 51 195 70
44 20 82 36 85 36 3 0 16 -7 28 -16z m-1011 -186 c-8 -77 -49 -209 -69 -221
-22 -15 -88 6 -128 40 l-31 26 103 102 c57 56 109 103 117 104 11 1 13 -10 8
-51z"/>
<path d="M1911 4788 c-22 -58 -111 -367 -111 -386 0 -18 16 -26 118 -57 64
-20 121 -40 126 -45 4 -4 -38 -163 -94 -352 -211 -711 -233 -786 -228 -800 7
-16 381 -130 402 -122 7 3 87 256 180 567 92 309 171 566 176 571 6 6 51 -3
119 -22 95 -28 151 -39 151 -29 0 1 27 92 60 202 65 218 65 215 0 233 -19 5
-226 67 -459 136 -233 69 -425 126 -427 126 -3 0 -8 -10 -13 -22z"/>
<path d="M3021 4373 c-16 -54 -91 -305 -166 -558 -75 -253 -166 -558 -201
-678 -36 -120 -64 -227 -62 -239 3 -18 29 -28 182 -74 99 -30 188 -54 197 -54
22 0 6 -52 405 1296 66 224 83 294 70 294 -2 0 -87 25 -190 55 -102 30 -190
55 -196 55 -5 0 -22 -44 -39 -97z"/>
<path d="M3652 4277 c-12 -14 -27 -65 -281 -920 -100 -334 -181 -618 -181
-632 0 -22 9 -27 98 -54 241 -74 322 -95 331 -86 7 8 211 684 211 700 0 10 48
5 88 -9 113 -40 246 -24 349 43 140 91 203 216 205 403 1 210 -119 368 -326
429 -39 11 -160 47 -270 80 -109 32 -202 59 -206 59 -4 0 -12 -6 -18 -13z"/>
<path d="M4925 3842 c-142 -49 -254 -158 -303 -295 -38 -108 -31 -274 17 -387
15 -36 71 -130 124 -210 115 -171 135 -216 117 -260 -17 -41 -54 -50 -83 -21
-19 19 -22 33 -23 116 0 52 -3 97 -6 100 -8 8 -287 75 -313 75 -19 0 -26 -8
-35 -37 -36 -132 -39 -328 -5 -413 69 -173 225 -278 427 -288 80 -3 107 -1
160 17 188 63 342 284 341 491 0 135 -46 247 -162 395 -93 118 -133 194 -129
242 7 81 68 63 78 -24 l5 -48 165 -42 c209 -53 207 -53 219 -5 43 160 6 335
-95 451 -51 58 -142 117 -222 141 -82 25 -207 26 -277 2z"/>
<path d="M1953 2926 c-108 -110 -140 -176 -93 -191 31 -10 54 2 99 50 31 33
50 45 70 45 72 0 66 -70 -16 -178 -79 -106 -94 -118 -176 -138 -124 -30 -202
-71 -279 -150 -44 -43 -45 -49 -17 -64 16 -9 28 -7 57 9 129 73 200 96 385
125 118 19 176 47 315 150 56 42 111 76 121 76 11 0 56 -13 101 -30 122 -45
175 -38 133 18 -15 20 -43 33 -114 54 -100 30 -119 44 -119 91 0 21 -10 39
-35 62 -45 43 -96 66 -240 109 l-120 35 -72 -73z"/>
<path d="M1590 2722 c-107 -44 -193 -115 -242 -201 -26 -45 -32 -69 -36 -131
-6 -104 12 -140 68 -140 47 0 72 23 94 88 25 71 61 126 118 177 62 56 89 71
193 106 68 23 80 30 80 49 0 13 -12 32 -27 43 -40 30 -184 35 -248 9z"/>
<path d="M2701 2379 c-111 -22 -184 -84 -196 -168 -19 -141 52 -258 297 -492
101 -97 110 -108 104 -133 -6 -23 -22 -35 -90 -66 -78 -36 -104 -59 -90 -81
25 -41 282 59 292 114 3 12 -48 71 -160 185 -176 180 -239 263 -264 349 -45
153 30 191 261 133 156 -39 160 -37 160 68 l0 66 -100 18 c-110 19 -148 20
-214 7z"/>
<path d="M2776 2065 c-60 -55 -13 -155 74 -155 94 0 136 61 95 139 -17 35 -32
41 -94 41 -37 0 -54 -6 -75 -25z"/>
<path d="M1925 1957 c-88 -34 -153 -107 -129 -145 7 -10 21 -16 35 -14 13 1
115 4 227 7 201 4 232 9 232 39 0 13 -128 98 -174 115 -36 14 -153 13 -191 -2z"/>
<path d="M2182 1691 c-95 -28 -176 -72 -180 -99 -5 -34 33 -28 198 31 104 37
146 57 148 70 3 14 -4 17 -50 16 -29 0 -81 -9 -116 -18z"/>
<path d="M3183 1583 c-8 -3 -13 -24 -13 -52 0 -179 -99 -349 -246 -424 -106
-54 -171 -69 -315 -75 -151 -5 -252 10 -323 51 -67 38 -68 49 -8 110 28 29 52
58 52 65 0 23 -45 12 -96 -23 -86 -60 -144 -160 -144 -249 0 -77 41 -96 100
-48 21 17 22 21 11 55 -7 20 -10 41 -7 46 3 5 59 -9 123 -31 136 -46 229 -58
356 -47 157 15 288 75 402 184 84 81 118 151 146 300 21 114 21 119 4 132 -20
14 -23 14 -42 6z"/>
</g>
</svg>
