<?xml version="1.0" standalone="no"?>
<!DOCTYPE svg PUBLIC "-//W3C//DTD SVG 20010904//EN"
 "http://www.w3.org/TR/2001/REC-SVG-20010904/DTD/svg10.dtd">
<svg version="1.0" xmlns="http://www.w3.org/2000/svg"
 width="300.000000pt" height="300.000000pt" viewBox="0 0 300.000000 300.000000"
 preserveAspectRatio="xMidYMid meet">
<metadata>
Created by potrace 1.13, written by Peter Selinger 2001-2015
</metadata>
<g transform="translate(0.000000,300.000000) scale(0.100000,-0.100000)"
fill="#000000" stroke="none">
<path d="M1955 2325 c44 -25 102 -65 128 -88 l48 -42 -137 -137 -136 -136 -47
35 c-203 157 -503 132 -691 -57 -223 -223 -225 -573 -5 -796 63 -63 117 -97
212 -135 49 -19 76 -23 178 -23 100 1 131 5 185 24 115 41 187 96 247 188 26
41 62 125 63 150 0 1 -112 2 -250 2 l-250 0 0 185 0 185 444 0 443 0 7 -46 c9
-72 7 -262 -5 -334 -46 -289 -213 -522 -464 -648 -183 -91 -449 -117 -660 -62
-143 36 -300 124 -413 228 -36 34 -52 40 -80 33 -1 -1 5 -12 14 -26 9 -14 21
-22 27 -18 5 3 7 2 4 -4 -7 -12 154 -172 200 -198 18 -10 30 -22 28 -25 -2 -4
19 -18 48 -31 40 -18 97 -69 240 -211 l188 -188 -63 0 c-418 0 -865 246 -1101
605 -69 106 -82 121 -40 46 80 -141 227 -304 369 -408 145 -106 340 -195 529
-239 116 -27 454 -27 570 0 337 79 625 266 821 531 70 95 138 220 128 237 -4
6 -3 8 3 5 13 -8 26 20 16 35 -4 7 -1 8 7 3 10 -6 12 -3 8 13 -4 12 -2 20 2
17 12 -7 23 32 14 46 -5 8 -3 9 6 4 9 -6 10 -2 5 15 -5 16 -4 20 5 15 9 -5 10
-1 5 15 -4 14 -3 20 3 16 13 -8 23 33 16 64 -5 20 -4 22 6 10 9 -12 10 -8 5
19 -6 26 -4 32 5 26 10 -6 12 0 7 26 -4 20 -3 29 2 21 12 -19 22 84 15 144 -6
49 -9 52 -340 384 -192 193 -334 343 -334 354 0 21 -30 60 -50 64 -7 2 -18 9
-24 16 -13 17 -216 136 -230 136 -6 0 25 -20 69 -45z"/>
</g>
</svg>
