<?xml version="1.0" standalone="no"?>
<!DOCTYPE svg PUBLIC "-//W3C//DTD SVG 20010904//EN"
 "http://www.w3.org/TR/2001/REC-SVG-20010904/DTD/svg10.dtd">
<svg version="1.0" xmlns="http://www.w3.org/2000/svg"
 width="832.000000pt" height="1024.000000pt" viewBox="0 0 832.000000 1024.000000"
 preserveAspectRatio="xMidYMid meet">
<metadata>
Created by potrace 1.13, written by Peter Selinger 2001-2015
</metadata>
<g transform="translate(0.000000,1024.000000) scale(0.100000,-0.100000)"
fill="#000000" stroke="none">
<path d="M1168 7759 c-2 -781 -1 -1423 1 -1425 2 -2 643 -4 1423 -4 l1418 0 0
1425 0 1425 -1420 0 -1420 0 -2 -1421z"/>
<path d="M6570 2178 c-67 -12 -130 -56 -166 -116 -35 -58 -44 -96 -44 -195 0
-48 -4 -67 -12 -66 -7 1 -34 1 -60 0 l-48 -1 0 -65 0 -65 60 0 60 0 0 -310 0
-311 88 3 87 3 2 305 2 305 135 3 136 3 0 -215 c0 -263 8 -306 64 -362 55 -55
124 -72 223 -52 l68 13 3 72 3 72 -37 -15 c-48 -20 -100 -8 -128 29 -20 27
-21 41 -21 240 l0 212 93 3 93 3 -3 67 -3 66 -90 1 -90 0 -3 113 c-2 90 -5
113 -16 109 -7 -3 -46 -15 -85 -27 l-72 -21 2 -87 2 -87 -139 0 -139 0 4 80
c1 44 10 93 18 108 25 49 83 64 164 41 14 -4 15 5 11 68 -2 40 -5 74 -6 75 -6
7 -119 8 -156 1z"/>
<path d="M2535 2121 c-42 -18 -60 -54 -56 -114 2 -31 56 -77 91 -77 38 0 86
24 100 49 17 34 12 88 -13 116 -24 28 -86 42 -122 26z"/>
<path d="M1170 1580 l0 -530 80 0 81 0 -3 430 c-2 237 0 430 4 430 3 0 10 -15
13 -32 8 -34 116 -304 254 -633 l80 -190 57 0 57 0 29 70 c109 265 291 722
302 757 11 37 13 -23 12 -392 l-1 -435 88 -3 87 -3 0 530 0 530 -122 -2 -123
-2 -57 -140 c-32 -77 -101 -248 -154 -380 -52 -132 -100 -251 -106 -265 -10
-24 -12 -21 -33 40 -23 66 -208 537 -265 674 l-32 76 -124 0 -124 0 0 -530z"/>
<path d="M3137 1818 c-154 -15 -271 -111 -322 -263 -17 -52 -23 -186 -10 -246
20 -93 107 -203 189 -239 98 -44 252 -46 350 -5 l36 15 0 75 c0 41 -2 75 -5
75 -3 0 -16 -7 -28 -15 -12 -8 -50 -21 -84 -30 -99 -25 -190 3 -242 76 -53 72
-64 194 -27 283 51 123 198 173 330 113 l56 -26 0 78 c0 76 -1 79 -27 90 -45
18 -143 27 -216 19z"/>
<path d="M4314 1820 c-156 -22 -260 -103 -310 -240 -22 -63 -29 -195 -14 -261
48 -202 223 -313 441 -280 156 25 260 112 304 257 19 64 19 216 0 281 -20 66
-69 139 -121 178 -69 53 -193 79 -300 65z m116 -144 c85 -15 143 -112 144
-241 0 -130 -33 -203 -108 -242 -40 -22 -150 -22 -191 0 -75 38 -108 104 -112
222 -3 76 0 98 19 144 14 32 37 66 59 83 33 27 106 49 139 43 8 -2 31 -6 50
-9z"/>
<path d="M5078 1819 c-97 -14 -183 -72 -214 -146 -30 -70 -8 -180 47 -233 13
-12 67 -43 119 -67 103 -49 128 -66 141 -100 13 -34 -8 -79 -42 -93 -48 -20
-148 -8 -218 26 l-61 31 0 -83 0 -83 42 -11 c137 -37 241 -32 338 17 127 65
159 234 61 331 -19 20 -79 56 -136 82 -109 52 -122 62 -131 107 -4 23 0 36 19
59 24 27 30 29 99 29 53 -1 86 -7 121 -22 l48 -22 -3 77 -3 77 -45 11 c-72 17
-121 21 -182 13z"/>
<path d="M5760 1818 c-131 -17 -234 -91 -289 -207 -24 -51 -26 -66 -26 -186 0
-127 1 -132 33 -197 54 -110 135 -167 267 -188 143 -23 302 28 375 121 63 80
84 146 84 269 1 119 -9 162 -56 239 -70 116 -212 171 -388 149z m147 -150 c46
-13 99 -79 113 -140 19 -75 9 -195 -21 -254 -39 -79 -128 -116 -225 -94 -67
15 -103 45 -133 109 -47 102 -27 287 37 338 77 61 131 71 229 41z"/>
<path d="M3835 1807 c-56 -22 -76 -38 -106 -85 -29 -45 -29 -46 -30 -16 0 16
-1 44 -2 62 l-2 34 -70 0 c-38 0 -76 0 -82 -1 -10 -1 -13 -83 -13 -376 l0
-375 80 0 c74 0 80 1 85 23 2 12 6 121 7 242 3 214 4 221 28 265 18 32 38 51
72 68 44 22 49 23 102 9 l56 -14 0 82 c0 66 -3 84 -16 89 -24 9 -76 6 -109 -7z"/>
<path d="M2494 1801 c-2 -2 -4 -172 -4 -378 l0 -373 85 0 85 0 -2 376 -3 376
-78 1 c-43 1 -81 0 -83 -2z"/>
</g>
</svg>
