<?xml version="1.0" standalone="no"?>
<!DOCTYPE svg PUBLIC "-//W3C//DTD SVG 20010904//EN"
 "http://www.w3.org/TR/2001/REC-SVG-20010904/DTD/svg10.dtd">
<svg version="1.0" xmlns="http://www.w3.org/2000/svg"
 width="200.000000pt" height="200.000000pt" viewBox="0 0 200.000000 200.000000"
 preserveAspectRatio="xMidYMid meet">
<metadata>
Created by potrace 1.13, written by Peter Selinger 2001-2015
</metadata>
<g transform="translate(0.000000,200.000000) scale(0.100000,-0.100000)"
fill="#000000" stroke="none">
<path d="M0 1000 l0 -1000 1000 0 1000 0 0 1000 0 1000 -1000 0 -1000 0 0
-1000z m970 229 c228 -270 417 -495 418 -500 2 -5 8 -9 13 -9 5 0 9 166 9 403
l0 404 -23 21 c-13 13 -55 29 -102 40 l-80 19 -3 51 -3 52 275 0 276 0 0 -50
c0 -30 -4 -50 -11 -50 -6 0 -49 -12 -95 -26 l-84 -25 0 -645 0 -644 -48 0 -47
0 -375 447 c-206 245 -403 480 -437 520 l-63 74 0 -423 c0 -386 2 -425 18
-445 11 -14 46 -29 100 -43 l82 -22 0 -49 0 -49 -270 0 -270 0 0 48 c0 55 -15
45 133 87 l57 16 0 527 0 527 -70 79 c-61 69 -70 84 -70 118 l0 38 128 0 127
0 415 -491z"/>
</g>
</svg>
