<?xml version="1.0" standalone="no"?>
<!DOCTYPE svg PUBLIC "-//W3C//DTD SVG 20010904//EN"
 "http://www.w3.org/TR/2001/REC-SVG-20010904/DTD/svg10.dtd">
<svg version="1.0" xmlns="http://www.w3.org/2000/svg"
 width="1502.000000pt" height="1982.000000pt" viewBox="0 0 1502.000000 1982.000000"
 preserveAspectRatio="xMidYMid meet">
<metadata>
Created by potrace 1.13, written by Peter Selinger 2001-2015
</metadata>
<g transform="translate(0.000000,1982.000000) scale(0.100000,-0.100000)"
fill="#000000" stroke="none">
<path d="M0 9910 l0 -9910 7510 0 7510 0 0 9910 0 9910 -7510 0 -7510 0 0
-9910z m8893 7033 c-749 -2 -1977 -2 -2730 0 -752 1 -140 2 1362 2 1502 0
2117 -1 1368 -2z m1404 -2586 c-1 -474 -2 -86 -2 863 0 949 1 1337 2 862 2
-474 2 -1250 0 -1725z m-5405 1066 c2 -358 0 -649 -4 -646 -5 2 -7 457 -6
1011 2 554 4 845 5 647 2 -198 4 -653 5 -1012z m3948 1241 c0 6 9 0 20 -12 23
-25 40 -28 58 -10 9 9 12 9 12 0 0 -9 8 -8 25 4 14 9 25 12 25 6 0 -6 -8 -12
-17 -15 -13 -3 -9 -6 12 -11 17 -4 56 -18 88 -31 46 -19 58 -21 53 -9 -3 8 -2
12 4 9 6 -3 10 -12 10 -18 1 -17 127 -98 144 -91 8 3 17 1 21 -5 4 -7 0 -8
-11 -4 -13 5 -15 3 -9 -7 6 -9 4 -11 -4 -5 -21 12 6 -32 28 -47 10 -7 19 -16
20 -20 4 -21 36 -78 43 -78 5 0 6 -4 3 -10 -9 -14 18 -12 35 3 12 10 12 9 2
-4 -6 -9 -9 -19 -5 -23 4 -4 0 -4 -10 0 -12 4 -17 1 -17 -11 0 -10 5 -13 12
-9 7 4 8 3 4 -4 -4 -6 -1 -31 5 -54 7 -24 11 -51 10 -62 -2 -11 2 -16 8 -12 6
4 11 0 11 -9 0 -9 -4 -13 -10 -10 -17 10 -11 -7 7 -20 13 -9 13 -14 3 -20 -9
-5 -11 -4 -6 3 4 7 3 12 -2 12 -5 0 -9 -17 -10 -37 -1 -21 -8 -62 -16 -91 -8
-28 -10 -50 -5 -46 5 3 9 -2 9 -10 0 -9 -6 -13 -14 -10 -8 3 -16 -3 -19 -15
-3 -12 -1 -18 4 -15 5 3 8 0 7 -8 -2 -7 3 -12 10 -10 8 1 11 -2 7 -9 -5 -8
-10 -8 -18 0 -13 13 -30 15 -23 2 3 -5 -2 -12 -11 -15 -10 -4 -13 -10 -8 -14
6 -4 17 -16 25 -27 8 -11 10 -17 5 -12 -4 4 -18 -1 -29 -10 -21 -18 -21 -18
-3 4 14 16 15 23 6 29 -7 4 -18 -1 -26 -12 -8 -10 -24 -32 -36 -48 -25 -32
-28 -54 -13 -76 10 -13 9 -13 -6 -1 -10 7 -15 17 -12 22 3 5 -2 9 -10 9 -9 0
-16 -6 -16 -12 -1 -13 -170 -103 -192 -103 -7 0 -15 -12 -19 -27 -5 -21 -4
-28 6 -28 18 0 28 17 13 22 -8 3 -6 7 5 11 10 4 16 2 14 -5 -1 -6 4 -13 12
-16 8 -3 11 0 7 7 -5 7 -1 9 8 5 9 -3 17 -12 17 -20 1 -8 2 -20 3 -26 1 -7 -3
-29 -10 -49 -9 -28 -10 -40 -1 -49 9 -10 9 -11 0 -6 -8 4 -15 -3 -19 -21 -4
-15 -11 -33 -16 -40 -5 -7 -7 -17 -3 -23 3 -5 1 -10 -5 -10 -6 0 -8 -4 -5 -10
3 -5 1 -10 -4 -10 -6 0 -11 -7 -11 -15 0 -9 -7 -18 -15 -21 -8 -4 -12 -11 -8
-18 4 -6 -2 -4 -12 4 -10 8 -16 10 -12 3 4 -6 2 -15 -4 -19 -7 -4 -9 -3 -5 4
3 6 -9 26 -27 45 -29 32 -35 53 -18 67 22 18 31 52 20 73 -11 20 -11 21 4 8
14 -11 17 -11 18 0 0 8 3 26 5 42 3 15 0 27 -6 27 -6 0 -8 -6 -4 -12 5 -9 2
-9 -9 1 -9 7 -17 10 -17 6 0 -5 -3 -6 -6 -2 -4 3 1 13 9 22 10 9 18 11 22 5
10 -16 28 -12 21 6 -3 8 -2 12 4 9 6 -3 10 -3 11 2 0 4 2 18 3 31 2 21 0 23
-23 16 -14 -4 -51 -7 -81 -6 -39 0 -49 -2 -35 -8 19 -8 19 -9 -2 -9 -31 -1
-44 43 -26 93 7 22 11 41 8 44 -3 3 0 11 6 18 9 10 7 15 -5 20 -14 5 -14 8 -1
21 19 19 9 39 -11 22 -8 -6 -12 -14 -9 -17 3 -3 -2 -14 -12 -24 -9 -10 -11
-18 -5 -18 6 0 12 5 14 12 3 9 6 9 12 0 4 -7 -3 -14 -19 -18 -20 -5 -25 -11
-22 -25 3 -11 1 -19 -5 -19 -6 0 -8 -7 -5 -15 4 -8 3 -16 -1 -19 -4 -3 -9 -22
-9 -43 -2 -30 0 -34 7 -18 7 16 9 17 9 3 1 -9 -3 -20 -9 -23 -5 -3 -9 -17 -8
-30 1 -13 6 -21 12 -18 5 4 6 -5 2 -21 -5 -19 1 -39 18 -70 14 -24 22 -48 18
-52 -4 -4 -1 -4 6 0 9 5 9 13 1 29 -10 22 -10 22 6 2 9 -11 21 -19 26 -17 6 1
8 -2 4 -8 -3 -6 -10 -8 -15 -5 -16 10 -18 -23 -3 -45 10 -14 22 -20 35 -17 16
5 17 3 6 -10 -10 -13 -9 -18 7 -29 11 -8 29 -22 40 -32 31 -29 75 -55 75 -46
0 5 4 3 9 -4 4 -7 17 -15 27 -17 10 -2 20 -4 22 -5 1 -2 7 -4 12 -5 6 -1 11
-3 13 -5 2 -2 14 -4 70 -15 26 -5 37 -4 37 4 0 7 -4 9 -10 6 -5 -3 -10 -2 -10
3 0 5 10 13 23 17 36 11 74 11 74 -1 0 -5 -15 -9 -32 -8 -22 2 -32 -1 -32 -12
0 -11 7 -13 30 -8 16 3 35 7 41 8 6 1 17 5 24 9 6 5 17 5 22 2 6 -3 10 -1 10
5 0 6 5 8 10 5 6 -3 13 1 16 9 3 9 10 14 14 11 13 -8 40 6 33 18 -4 6 0 8 8 5
29 -11 61 25 62 70 0 22 4 39 9 36 5 -3 6 -9 3 -14 -3 -4 3 -11 12 -14 19 -8
56 31 48 51 -2 7 1 15 7 19 7 4 8 3 4 -4 -4 -7 -5 -12 -2 -12 9 0 36 57 30 63
-3 3 -12 3 -20 0 -9 -3 -14 2 -14 13 0 11 4 15 8 9 4 -5 14 -11 24 -13 12 -2
16 5 14 27 -1 16 1 28 6 25 4 -3 10 5 12 18 7 35 3 117 -6 112 -4 -3 -8 0 -8
5 0 6 5 11 10 11 16 0 12 33 -7 59 -9 14 -12 21 -6 18 21 -13 1 33 -20 48 -12
8 -16 15 -9 15 17 0 -32 76 -80 123 -21 20 -40 37 -42 37 -17 0 -35 -14 -29
-23 4 -6 1 -7 -7 -2 -10 6 -9 11 4 21 21 15 48 101 41 125 -3 10 -1 20 5 24
14 9 12 25 -3 25 -8 0 -19 -10 -25 -22 -7 -16 -11 -18 -11 -7 -1 9 7 23 18 33
16 15 19 15 31 1 10 -12 10 -19 2 -27 -18 -18 -14 -30 6 -19 11 6 24 6 33 0
19 -12 32 -11 24 1 -10 17 1 11 28 -14 14 -13 23 -26 20 -30 -3 -3 -13 4 -22
15 -15 19 -18 19 -30 5 -16 -19 -6 -36 20 -36 10 0 18 -3 17 -7 -3 -8 7 -21
49 -68 10 -12 14 -14 8 -5 -9 13 -8 13 7 1 10 -7 15 -17 12 -23 -10 -16 26
-60 44 -53 13 5 14 3 5 -5 -11 -12 -4 -54 14 -82 4 -7 8 -16 9 -20 1 -5 2 -9
4 -10 9 -11 14 -223 6 -236 -4 -7 -2 -21 4 -32 9 -16 8 -18 -5 -14 -8 4 -15 2
-15 -4 0 -6 -3 -18 -7 -28 -4 -12 -3 -15 5 -10 7 4 12 5 12 2 0 -2 3 -13 6
-23 5 -15 4 -15 -5 -3 -9 12 -11 11 -12 -10 0 -22 -1 -23 -8 -6 -7 18 -8 18
-14 2 -4 -10 -4 -23 0 -29 3 -7 3 -9 -2 -5 -13 12 -37 -30 -30 -52 4 -12 2
-20 -5 -20 -6 0 -8 6 -4 13 3 6 -12 -8 -35 -33 -22 -25 -41 -48 -41 -52 0 -4
-13 -14 -30 -23 -16 -9 -30 -23 -30 -33 0 -13 -2 -14 -9 -3 -7 11 -13 8 -26
-13 -10 -14 -22 -26 -29 -26 -6 0 -4 5 4 10 28 18 0 10 -43 -12 -38 -19 -54
-25 -94 -30 -9 -1 -10 -5 -2 -14 7 -9 6 -12 -5 -10 -9 1 -19 5 -22 9 -10 10
-36 9 -30 -1 2 -4 -4 -8 -15 -8 -10 0 -19 3 -19 6 0 3 -11 6 -25 6 -14 1 -25
-3 -25 -8 0 -7 -4 -7 -12 0 -8 5 -22 6 -33 1 -11 -4 -14 -8 -6 -8 8 -1 11 -4
8 -8 -4 -3 -18 4 -32 17 -15 14 -31 21 -44 17 -11 -3 -21 -1 -23 4 -5 15 -58
21 -58 7 0 -7 -6 -2 -13 12 -8 14 -19 24 -25 23 -7 -2 -12 1 -12 6 0 5 -12 16
-26 26 -15 9 -23 12 -20 6 4 -6 3 -11 -2 -11 -5 0 -12 9 -15 20 -6 22 -23 27
-24 8 0 -7 -2 -20 -4 -28 -3 -11 3 -14 19 -12 12 2 22 -1 22 -7 0 -6 -7 -7
-17 -4 -11 4 -14 3 -9 -5 4 -7 1 -12 -8 -12 -8 0 -16 6 -19 13 -3 9 -9 7 -24
-6 -11 -9 -23 -14 -26 -10 -4 3 -7 1 -7 -6 0 -8 -6 -11 -16 -7 -9 4 -13 2 -8
-5 4 -8 -1 -9 -17 -4 -20 7 -22 6 -12 -6 10 -12 8 -18 -10 -29 -19 -12 -21
-11 -10 2 14 17 8 28 -16 28 -14 0 -14 -2 -1 -11 11 -8 5 -9 -23 -4 -22 3 -37
2 -34 -2 3 -5 -3 -9 -14 -9 -10 0 -19 3 -19 6 0 3 -11 6 -25 6 -14 1 -25 -3
-25 -8 0 -6 -6 -6 -14 1 -11 9 -16 9 -21 0 -6 -8 -9 -8 -15 0 -3 7 -24 14 -44
18 -36 6 -38 5 -31 -17 l7 -23 -23 22 c-26 24 -48 29 -29 6 7 -9 10 -18 6 -22
-3 -3 -6 -1 -6 6 0 7 -4 10 -9 7 -10 -7 -9 20 2 30 3 4 13 1 22 -6 9 -7 15 -8
15 -2 0 10 -68 38 -82 34 -5 -1 -14 -3 -20 -4 -7 -2 -17 -7 -21 -13 -5 -6 -7
-4 -4 5 2 8 9 15 15 15 25 0 21 13 -7 23 -17 6 -31 16 -31 22 0 6 -4 9 -9 6
-5 -4 -11 -1 -13 4 -2 6 -13 12 -24 12 -11 1 -21 8 -21 15 0 10 4 10 16 1 9
-6 -3 7 -26 30 -24 23 -43 45 -43 49 -1 14 -38 53 -52 54 -10 0 -10 2 1 6 10
4 3 16 -25 40 -21 20 -32 30 -22 24 12 -9 18 -9 24 0 4 7 3 14 -4 17 -6 2 -8
10 -5 18 3 8 0 14 -7 14 -7 0 -10 7 -6 15 3 8 2 15 -2 15 -4 0 -8 45 -7 100 0
60 -4 100 -10 100 -5 0 -4 4 3 9 7 4 15 21 17 37 2 16 4 30 6 32 1 1 2 6 3 11
0 5 4 13 8 17 4 4 3 13 -4 21 -9 11 -8 13 2 11 10 -2 14 7 15 29 0 28 -3 32
-20 27 l-20 -6 20 16 c23 17 39 21 30 6 -3 -5 0 -10 8 -10 15 0 61 65 62 87 0
6 4 15 9 20 5 4 6 3 2 -4 -4 -7 -2 -13 3 -13 6 0 11 4 11 8 0 4 24 26 53 47
28 22 54 42 57 45 3 3 16 10 29 16 18 7 25 19 26 45 5 68 15 141 21 150 3 6 0
18 -7 27 -7 9 -9 14 -5 10 12 -10 35 22 36 49 0 12 5 25 11 28 7 5 5 15 -6 31
-8 13 -12 23 -8 22 4 -1 18 3 29 10 12 6 24 9 26 6 3 -2 13 7 23 22 9 15 12
23 6 20 -18 -11 -13 10 6 25 14 12 16 12 9 0 -6 -9 -5 -12 5 -9 8 3 13 12 11
19 -2 8 0 11 4 6 9 -9 55 33 49 44 -3 4 0 11 6 15 8 4 9 3 5 -4 -4 -7 -3 -12
3 -12 5 0 14 8 20 18 5 9 11 16 13 14 7 -7 37 11 32 19 -3 5 2 9 10 9 9 0 16
5 16 10 0 6 10 8 24 4 17 -4 27 0 34 12 5 10 17 19 26 20 9 1 14 -2 10 -7 -3
-5 -1 -9 5 -9 5 0 15 8 20 18 6 10 11 12 11 4 0 -17 82 -12 88 6 2 7 -2 11 -8
10 -7 -2 -15 4 -17 12 -4 13 -3 13 6 0 6 -8 11 -11 11 -6z m-3079 -118 c-14
-17 -4 -25 24 -20 41 8 163 9 152 2 -7 -4 2 -8 19 -8 17 0 37 7 44 15 7 8 18
15 24 15 6 0 3 -7 -7 -15 -17 -12 -15 -14 27 -20 26 -4 60 -8 76 -9 17 0 30
-5 30 -10 0 -5 3 -7 6 -3 3 3 17 2 31 -4 13 -5 22 -5 19 -1 -3 5 1 9 8 9 8 0
12 -6 9 -13 -5 -13 14 -14 35 -1 17 11 15 30 -3 23 -9 -3 -15 0 -15 9 0 7 8
13 19 12 13 -1 18 -8 17 -27 -1 -17 4 -25 16 -25 20 0 31 -10 35 -33 1 -9 3
-255 3 -547 1 -441 3 -527 14 -512 7 9 17 17 21 17 5 0 0 -9 -9 -19 -19 -21
-66 -34 -66 -18 0 6 -3 7 -7 4 -3 -4 -11 -3 -17 2 -6 4 -21 11 -34 14 -18 4
-22 2 -18 -9 4 -9 -5 -7 -24 7 -16 12 -35 19 -43 16 -8 -3 -18 -3 -21 1 -9 8
-33 13 -83 17 -22 1 -45 5 -51 9 -16 10 -447 0 -467 -11 -10 -6 -26 -8 -35 -6
-10 3 -30 -3 -44 -12 -21 -14 -24 -21 -15 -36 8 -15 6 -19 -6 -19 -9 0 -13 5
-10 10 4 6 1 18 -7 27 -8 10 -8 14 -1 10 6 -4 14 -3 18 3 3 5 1 10 -4 10 -8 0
-11 164 -11 530 0 323 -4 530 -9 530 -6 0 -9 8 -8 18 1 14 7 17 24 14 13 -2
23 0 23 5 0 5 16 7 35 5 37 -4 69 13 58 31 -3 6 -1 7 6 3 6 -4 9 -11 7 -15 -7
-10 36 -8 53 3 10 6 12 6 7 -2 -4 -7 -2 -12 3 -12 6 0 11 4 11 8 0 4 15 6 34
4 18 -2 37 1 40 7 4 6 13 11 19 11 7 0 6 -4 -3 -10 -13 -8 -13 -10 1 -10 9 0
24 9 34 20 20 23 34 28 16 6z m1183 -10 c-5 -12 4 -14 43 -11 26 2 58 6 71 9
13 3 20 1 17 -5 -4 -5 1 -9 10 -9 10 0 13 5 9 13 -4 6 1 5 12 -4 10 -9 26 -17
34 -17 45 -1 138 -12 155 -17 16 -6 17 -5 5 4 -12 8 -12 11 -2 11 8 0 16 -9
19 -20 3 -11 10 -17 17 -13 6 3 6 0 -1 -8 -10 -10 -13 -132 -13 -537 0 -310 4
-521 9 -518 5 4 7 -4 3 -16 -4 -16 -2 -19 9 -13 8 5 11 5 7 0 -4 -4 -3 -16 2
-25 7 -14 6 -18 -5 -16 -8 1 -18 6 -22 11 -4 4 -2 5 5 1 6 -4 12 -2 12 4 0 6
-7 13 -15 16 -8 4 -13 10 -10 14 10 16 -166 33 -360 35 -222 2 -295 -2 -295
-17 0 -5 6 -6 13 -2 7 4 7 2 -2 -7 -10 -11 -15 -11 -18 -1 -6 15 -39 16 -48 1
-4 -6 -13 -8 -21 -5 -7 3 -17 0 -21 -7 -5 -7 -16 -18 -26 -26 -15 -12 -20 -12
-33 5 -9 10 -13 14 -10 8 6 -12 -43 -39 -52 -29 -3 3 0 5 7 5 7 0 10 4 6 10
-3 5 -12 7 -20 4 -8 -4 -13 -10 -10 -14 3 -5 -4 -6 -15 -3 -19 5 -25 16 -21
37 1 4 -4 15 -11 24 -7 9 -8 13 -3 10 7 -4 9 164 8 498 -1 278 1 512 4 520 3
8 12 13 19 10 7 -3 21 2 29 11 14 13 14 18 3 25 -10 8 -10 9 2 5 8 -2 14 -10
12 -16 -1 -8 2 -9 10 -5 7 4 21 9 33 11 47 6 57 10 66 24 6 10 9 10 9 1 0 -18
51 -5 71 19 13 14 18 15 22 6 4 -10 22 -12 64 -10 32 2 65 7 73 10 8 3 41 6
72 7 31 0 60 4 64 9 11 11 14 9 8 -7z m3215 -2457 c0 -380 -5 -705 -10 -721
-4 -16 -4 -40 1 -53 7 -18 5 -25 -7 -29 -12 -5 -13 -9 -3 -21 7 -9 10 -18 6
-22 -3 -3 -7 0 -7 8 -1 8 -5 -4 -9 -26 -4 -22 -4 -48 2 -58 6 -12 5 -16 -3
-15 -19 5 -42 -122 -27 -149 6 -13 8 -26 5 -30 -4 -3 -7 1 -7 11 0 10 -5 14
-11 10 -6 -3 -9 -15 -6 -25 3 -11 1 -19 -5 -19 -6 0 -8 -9 -5 -20 3 -11 0 -20
-6 -20 -7 0 -5 -5 3 -10 9 -6 10 -10 3 -10 -6 0 -14 -9 -17 -20 -3 -11 -9 -29
-12 -40 -3 -12 -1 -20 6 -20 6 0 8 6 4 13 -4 7 -3 9 2 4 5 -5 9 -12 9 -15 0
-4 4 -14 9 -22 7 -12 6 -13 -5 -2 -19 18 -36 15 -42 -9 -5 -17 -2 -20 14 -16
17 5 18 3 8 -9 -13 -16 -13 -16 16 -32 11 -6 14 -12 8 -12 -7 0 -15 0 -18 -1
-10 -1 -67 -60 -69 -71 -1 -7 -4 -17 -8 -23 -3 -5 -13 -32 -21 -60 -8 -27 -22
-66 -30 -85 -8 -19 -13 -43 -12 -53 2 -9 0 -15 -4 -12 -10 6 -42 -75 -35 -86
3 -5 0 -9 -5 -9 -6 0 -11 -5 -11 -11 0 -5 5 -7 10 -4 6 3 10 0 10 -7 1 -7 7
-2 14 11 11 20 14 21 19 7 4 -10 3 -15 -3 -11 -10 6 -14 -6 -11 -35 1 -11 -1
-11 -9 3 -6 9 -17 17 -24 17 -16 0 -49 -68 -40 -82 4 -6 3 -9 -2 -5 -5 3 -17
-12 -26 -34 -11 -25 -12 -37 -5 -33 7 3 4 -1 -7 -10 -10 -8 -16 -22 -13 -31 4
-9 1 -15 -8 -15 -8 0 -15 -3 -14 -7 2 -15 -13 -53 -21 -53 -8 0 -32 -52 -32
-67 0 -4 -6 -16 -15 -25 -8 -9 -12 -21 -9 -27 4 -5 0 -13 -8 -18 -8 -4 -16
-15 -18 -23 -2 -8 -7 -18 -13 -22 -6 -5 -5 -12 3 -20 6 -6 12 -17 12 -22 0 -6
-5 -3 -11 7 -6 9 -15 15 -20 11 -6 -4 -4 -13 7 -25 9 -10 21 -16 27 -12 6 3 7
1 3 -6 -4 -6 -13 -8 -19 -4 -23 14 -39 11 -44 -8 -3 -10 -10 -19 -15 -19 -5 0
-6 -4 -3 -10 3 -5 2 -10 -3 -10 -5 0 -17 -17 -28 -37 -10 -21 -25 -44 -31 -51
-7 -7 -13 -19 -13 -26 0 -6 6 -18 13 -25 10 -11 8 -11 -10 -2 -13 6 -23 10
-23 7 0 -2 -3 -12 -7 -22 -5 -13 -3 -15 8 -9 8 5 11 5 6 -1 -5 -5 -13 -9 -18
-9 -5 0 -9 -4 -8 -9 0 -5 -6 -13 -15 -18 -9 -5 -14 -13 -11 -19 4 -5 -1 -12
-9 -15 -9 -3 -16 -12 -16 -18 0 -7 -11 -23 -25 -36 -18 -17 -22 -27 -15 -35 8
-9 6 -14 -5 -19 -9 -3 -13 -2 -10 4 14 22 -3 8 -23 -20 l-22 -29 26 -24 c18
-17 21 -24 10 -24 -8 0 -13 4 -10 9 3 4 1 8 -5 8 -5 0 -13 -4 -16 -10 -3 -5
-11 -10 -18 -10 -6 0 -2 7 9 15 18 15 18 16 0 13 -19 -3 -23 -8 -45 -58 -7
-14 -9 -16 -6 -5 5 16 4 17 -6 8 -15 -15 -21 -46 -8 -38 5 4 17 1 26 -5 14 -8
11 -10 -18 -6 -27 4 -39 1 -52 -14 -9 -11 -17 -21 -17 -23 0 -6 -113 -128
-186 -201 -44 -45 -83 -89 -87 -98 -3 -10 -13 -18 -22 -18 -8 0 -23 -8 -34
-17 -10 -10 -48 -42 -84 -71 -46 -38 -64 -59 -60 -70 4 -13 3 -14 -5 -3 -10
14 -32 7 -32 -10 0 -6 4 -8 9 -4 5 3 13 0 17 -7 4 -7 3 -10 -1 -5 -5 4 -17 -1
-28 -10 -11 -10 -17 -12 -13 -5 4 7 1 12 -9 12 -12 0 -14 -7 -10 -32 4 -23 2
-29 -4 -18 -5 8 -7 18 -5 22 3 4 0 8 -5 8 -6 0 -11 -5 -11 -11 0 -5 -4 -8 -8
-5 -5 3 -21 -6 -38 -20 -16 -14 -23 -22 -15 -18 10 5 12 3 7 -5 -5 -7 -14 -10
-22 -7 -7 3 -17 -2 -22 -10 -5 -9 -13 -17 -18 -17 -5 -1 -8 -5 -7 -9 3 -7 -5
-9 -23 -7 -3 0 -14 -9 -23 -20 -10 -11 -21 -18 -25 -14 -3 3 -6 1 -6 -5 0 -7
-3 -11 -7 -10 -5 1 -20 -5 -36 -12 -20 -10 -26 -18 -21 -32 6 -19 -6 -24 -22
-8 -6 6 -25 -3 -52 -25 -24 -18 -43 -36 -43 -39 2 -21 0 -26 -11 -20 -9 6 -9
9 0 12 7 2 10 8 7 12 -8 13 -65 -22 -65 -40 0 -12 -2 -12 -9 -2 -7 11 -10 10
-15 -3 -3 -9 -4 -21 0 -26 3 -5 -4 -9 -16 -9 -19 0 -20 1 -6 16 25 25 19 30
-7 6 -13 -12 -27 -22 -32 -22 -23 0 -85 -36 -85 -49 0 -11 -3 -12 -8 -4 -4 7
-13 9 -21 4 -11 -7 -10 -11 4 -18 16 -9 16 -12 2 -39 -14 -26 -16 -26 -14 -6
1 12 5 22 10 22 4 0 5 5 2 10 -4 6 -12 7 -18 3 -18 -11 -38 -13 -32 -2 3 4
-14 0 -37 -11 -24 -11 -42 -25 -40 -31 1 -6 -2 -8 -8 -4 -14 9 -82 -14 -75
-26 4 -5 -1 -6 -9 -3 -10 4 -16 1 -16 -9 0 -9 -4 -19 -10 -22 -6 -3 -7 1 -4 9
7 18 3 19 -20 10 -9 -3 -14 -10 -11 -14 3 -5 -3 -7 -12 -6 -10 2 -29 -4 -43
-13 -13 -9 -25 -15 -27 -13 -8 7 -33 1 -33 -9 0 -5 5 -7 12 -3 7 4 8 3 4 -4
-4 -7 -14 -12 -22 -12 -8 0 -13 3 -11 8 3 4 -5 8 -16 8 -49 4 -73 8 -82 15 -6
4 -23 13 -39 19 -24 9 -27 8 -23 -4 4 -10 1 -13 -8 -10 -8 3 -11 13 -8 21 4
10 2 14 -4 10 -6 -4 -14 -1 -17 5 -3 7 -4 4 -3 -6 1 -10 -4 -20 -11 -22 -7 -1
-8 0 -3 2 15 8 2 33 -23 45 -20 10 -20 10 -2 -5 17 -13 17 -16 4 -16 -9 0 -20
9 -23 20 -6 18 -19 24 -52 23 -7 -1 -11 3 -8 7 6 10 -31 23 -44 16 -5 -3 -12
1 -15 10 -4 9 -13 14 -22 10 -8 -3 -13 -2 -10 3 3 5 -1 11 -9 15 -8 3 -17 0
-21 -6 -5 -7 -2 -8 7 -3 11 6 12 5 2 -5 -10 -11 -15 -11 -28 0 -17 14 -21 35
-3 24 7 -4 8 -3 4 5 -6 9 -11 9 -22 0 -12 -10 -13 -9 -8 6 6 14 4 16 -6 10 -8
-5 -17 -3 -24 6 -18 22 -56 40 -68 33 -7 -4 -8 -3 -4 4 7 11 -27 35 -37 26 -3
-3 -29 12 -59 33 -29 21 -64 46 -78 54 -27 17 -55 15 -44 -3 4 -7 2 -8 -5 -4
-9 6 -9 11 1 24 11 13 10 15 -5 9 -10 -4 -16 -3 -12 2 3 5 1 12 -4 15 -9 6
-40 -23 -40 -39 0 -5 -4 -10 -10 -11 -8 -2 -8 -1 -1 3 8 3 7 9 -1 19 -9 11 -9
14 0 14 7 0 10 4 6 9 -3 5 0 13 6 17 8 4 9 3 5 -4 -4 -7 -2 -12 4 -12 7 0 10
6 7 13 -4 12 -8 12 -37 4 -8 -2 -12 -2 -7 0 4 3 4 10 1 15 -4 7 -2 8 4 4 7 -4
12 -5 12 -3 0 2 -18 16 -40 31 -22 14 -40 23 -40 19 0 -4 -12 5 -27 19 -16 14
-41 34 -58 44 -28 19 -29 19 -22 0 6 -16 5 -17 -7 -7 -8 7 -12 19 -9 27 3 9
-6 19 -26 27 -17 7 -29 16 -26 19 3 3 -6 8 -19 12 -14 3 -25 12 -23 19 1 7 -6
11 -17 9 -10 -2 -15 1 -12 6 8 14 -35 48 -63 50 -13 0 -29 6 -35 12 -8 8 -3 8
19 0 24 -9 19 -2 -30 44 -33 30 -62 52 -65 49 -3 -3 1 -8 8 -10 6 -3 10 -9 6
-14 -10 -17 -20 -9 -22 17 -3 36 -11 47 -32 41 -10 -2 -24 0 -31 5 -11 8 -10
9 3 4 10 -3 20 -1 23 4 4 6 0 10 -7 11 -7 0 -46 39 -87 85 -53 61 -77 81 -82
72 -6 -9 -9 -5 -9 11 0 13 -3 21 -7 18 -3 -4 -11 3 -17 15 -6 12 -17 23 -25
26 -8 3 -11 0 -7 -6 3 -6 3 -13 -2 -16 -4 -2 -9 4 -9 15 -1 10 3 19 9 19 6 0
5 6 -2 15 -7 9 -20 13 -28 10 -10 -4 -12 0 -8 11 8 22 -27 57 -42 42 -6 -6 -8
-1 -5 16 3 15 1 26 -5 26 -16 0 -25 -20 -10 -21 10 0 10 -2 0 -6 -6 -2 -9 -10
-5 -16 3 -7 3 -9 -1 -5 -4 3 -8 10 -8 15 0 4 -4 16 -9 25 -7 14 -6 16 6 12 20
-8 19 8 -2 34 -59 71 -78 96 -78 103 0 4 -10 19 -22 33 -13 15 -23 29 -23 32
0 4 -16 29 -35 55 -19 27 -35 53 -35 58 0 6 -5 13 -11 17 -7 4 -10 1 -7 -7 7
-18 -9 -49 -25 -49 -8 0 -8 3 2 9 7 5 11 13 9 17 -3 5 -2 18 2 29 8 23 -25 85
-47 85 -8 0 -11 -5 -7 -12 5 -10 4 -10 -6 -1 -13 12 -4 37 11 28 5 -4 9 -2 9
3 0 14 -12 22 -24 15 -15 -10 -40 -13 -31 -5 4 4 12 7 17 7 18 0 20 22 4 38
-8 8 -13 17 -10 19 2 3 -3 11 -13 19 -11 9 -14 10 -9 2 9 -16 -6 -17 -22 -1
-15 15 -16 32 -2 23 12 -7 13 25 1 43 -4 8 -12 14 -16 14 -4 0 -12 -6 -16 -14
-7 -10 -9 -10 -9 0 0 7 7 15 16 19 15 6 15 7 0 19 -10 7 -17 15 -17 18 3 24 0
30 -9 16 -8 -12 -10 -10 -11 10 -1 14 -1 28 0 33 0 4 -5 7 -13 7 -7 0 -16 9
-19 20 -3 13 -1 18 6 13 7 -4 5 1 -2 11 -14 17 -15 17 -23 -3 -10 -27 -13 -26
-13 3 0 13 3 22 7 20 4 -2 9 0 13 5 3 5 -3 14 -12 20 -10 6 -12 11 -6 11 15 0
-15 70 -29 70 -5 0 -6 5 -3 10 3 6 1 10 -4 10 -6 0 -10 3 -10 8 1 4 1 16 0 26
-1 16 -4 17 -13 8 -15 -15 -28 -15 -28 -1 0 5 5 7 10 4 7 -4 9 3 6 22 -2 15
-5 28 -6 28 -1 0 -3 8 -5 18 -4 22 -36 48 -49 40 -5 -4 -6 -1 -2 5 4 6 14 8
24 5 14 -5 15 -4 6 8 -6 8 -14 26 -18 42 -3 15 -11 27 -17 27 -6 0 -8 4 -4 9
6 11 -15 61 -26 61 -5 0 -6 6 -3 13 4 12 -11 62 -43 147 -11 29 -13 35 -19 68
-4 17 -12 32 -19 32 -7 0 -18 7 -25 15 -11 13 -11 18 0 28 10 10 11 9 5 -3 -7
-12 -6 -13 6 -2 12 11 11 19 -8 53 -12 21 -17 36 -11 32 8 -4 9 0 4 13 -4 10
-9 24 -10 29 -1 6 -8 21 -15 34 -8 14 -9 21 -2 17 6 -4 11 -2 11 3 0 6 -4 11
-9 11 -5 0 -7 10 -3 22 3 11 1 19 -4 15 -5 -3 -10 7 -10 21 -2 65 -4 72 -21
73 -11 0 -13 3 -5 6 18 7 15 43 -5 66 -11 12 -12 17 -4 12 12 -7 13 -1 8 31
-4 21 -10 69 -13 107 -6 63 -15 80 -29 58 -3 -5 -1 -13 5 -16 6 -4 8 -16 5
-26 -4 -11 -2 -25 3 -32 9 -12 13 -51 4 -42 -3 3 -12 -1 -21 -7 -12 -10 -12
-8 2 8 21 25 23 41 2 24 -12 -10 -13 -8 -10 10 2 12 7 31 11 42 4 13 2 18 -4
14 -13 -8 -7 35 6 43 13 9 9 116 -4 114 -14 -3 -11 40 4 45 9 3 12 152 12 593
0 427 -3 588 -11 583 -8 -4 -8 0 0 15 l12 21 2625 0 2625 0 -2 -691z m1076
-4879 c272 -25 543 -86 718 -164 l57 -25 0 -231 0 -231 -42 26 c-159 97 -353
174 -554 221 -99 22 -150 28 -300 32 -489 12 -736 -95 -775 -336 -26 -164 59
-294 273 -417 89 -52 246 -121 473 -210 453 -177 676 -300 857 -473 213 -204
312 -483 278 -782 -24 -213 -92 -368 -223 -506 -232 -245 -588 -367 -1112
-381 -432 -12 -846 55 -1152 184 l-83 35 0 279 0 279 54 -44 c158 -129 415
-235 691 -287 142 -27 456 -37 588 -19 320 43 507 191 537 425 32 252 -133
416 -585 583 -60 22 -191 70 -290 107 -225 83 -453 194 -568 276 -103 73 -223
196 -271 278 -42 73 -81 170 -103 257 -25 105 -23 323 5 437 51 206 169 365
359 483 262 164 723 244 1168 204z m-7732 -118 c122 -49 99 -19 949 -1236
l793 -1133 3 1198 2 1199 230 0 230 0 0 -1645 0 -1645 -278 0 c-349 0 -411 13
-518 112 -24 22 -384 527 -831 1165 l-788 1126 -3 -1202 -2 -1201 -228 2 -227
3 -3 1630 c-1 897 0 1636 3 1643 4 10 66 12 307 10 290 -3 306 -4 361 -26z
m3548 -1152 c5 -1255 4 -1209 53 -1348 59 -166 173 -300 316 -369 122 -59 215
-78 385 -77 164 1 239 16 362 75 120 57 214 152 277 279 102 209 105 255 106
1618 l0 1002 340 0 340 0 0 -1141 c0 -979 -2 -1156 -16 -1246 -68 -461 -317
-764 -746 -908 -208 -69 -390 -95 -675 -95 -842 0 -1319 337 -1417 1003 -14
90 -16 267 -16 1246 l0 1141 343 -2 342 -3 6 -1175z m-173 -3242 l2 -398 -55
0 -55 0 0 393 c0 217 3 397 7 401 4 4 28 6 53 4 l45 -3 3 -397z m-3728 53
l155 -283 3 286 2 286 55 0 55 0 0 -370 0 -370 -67 0 -68 0 -165 300 -165 300
-3 -300 -2 -300 -55 0 -55 0 0 370 0 371 77 -3 78 -3 155 -284z m4292 27 c3
-239 5 -267 23 -303 30 -59 75 -85 147 -85 84 0 121 20 153 83 25 51 25 53 25
309 l0 258 61 0 62 0 -5 -262 c-6 -312 -14 -345 -98 -421 -61 -55 -115 -71
-217 -65 -121 7 -188 51 -235 153 -22 48 -23 63 -26 323 l-3 272 55 0 55 0 3
-262z m-3042 62 l70 0 0 -40 0 -40 -70 0 -70 0 0 -166 0 -166 29 -29 c31 -31
53 -35 95 -19 25 9 26 9 26 -34 0 -51 -7 -56 -88 -56 -71 0 -121 25 -144 71
-15 29 -18 62 -18 217 l0 182 -60 0 -60 0 0 40 0 39 58 3 57 3 3 62 3 63 47
13 47 14 3 -78 3 -79 69 0z m7063 2 l67 -3 0 -39 0 -40 -70 0 -70 0 0 -154 c0
-168 6 -196 46 -222 21 -15 33 -16 65 -7 l39 10 0 -42 c0 -50 -8 -55 -87 -55
-38 0 -67 7 -94 22 -62 35 -69 60 -69 267 l0 181 -60 0 -60 0 0 40 0 40 60 0
60 0 0 64 0 65 48 13 47 14 5 -76 5 -75 68 -3z m-7556 -3 c41 -13 89 -68 102
-116 6 -21 11 -125 11 -230 l0 -193 -45 0 c-43 0 -45 1 -45 30 l0 30 -46 -33
c-39 -27 -55 -32 -117 -35 -121 -5 -195 48 -204 145 -13 126 98 203 292 203
l65 0 -7 33 c-9 48 -20 65 -55 83 -41 21 -129 14 -185 -15 l-41 -20 -6 22
c-13 51 -7 64 37 82 86 35 164 39 244 14z m1332 -6 c95 -38 151 -123 159 -239
11 -169 -89 -290 -247 -302 -164 -11 -283 92 -298 258 -20 214 186 365 386
283z m621 16 c31 -7 65 -23 86 -41 53 -47 64 -100 64 -320 l0 -188 -50 0 -50
0 0 154 c0 84 -4 178 -10 207 -17 95 -90 134 -173 94 -72 -34 -97 -120 -97
-332 l0 -123 -50 0 -50 0 0 270 0 270 50 0 50 0 0 -37 0 -37 34 33 c21 20 54
39 83 47 61 16 53 16 113 3z m635 -17 c90 -44 105 -92 105 -344 l0 -188 -50 0
c-49 0 -50 0 -50 31 l0 31 -35 -30 c-41 -36 -85 -47 -168 -39 -102 9 -152 62
-152 162 0 79 19 109 97 148 46 23 74 30 152 34 93 6 96 7 96 30 0 42 -27 81
-66 93 -48 16 -122 8 -173 -18 -23 -12 -44 -22 -46 -22 -3 0 -5 20 -5 43 0 41
2 45 38 61 81 36 193 40 257 8z m1965 0 c39 -19 75 -67 90 -121 5 -20 10 -120
10 -223 l0 -188 -49 0 -49 0 -4 188 c-5 200 -12 233 -60 266 -57 40 -149 6
-188 -70 -23 -44 -25 -61 -28 -216 l-4 -168 -49 0 -49 0 0 270 0 270 50 0 50
0 0 -37 c1 -32 3 -35 13 -23 61 74 174 96 267 52z m1410 2 c19 -8 45 -24 57
-35 33 -31 65 -117 71 -186 l5 -63 -192 0 c-182 0 -191 -1 -191 -19 0 -56 43
-113 105 -142 60 -28 108 -22 218 26 15 6 17 1 17 -44 l0 -50 -57 -17 c-77
-22 -202 -16 -260 14 -92 48 -139 148 -131 281 9 140 77 221 213 255 29 7 105
-4 145 -20z m563 9 c4 -2 7 -22 7 -44 l0 -39 -54 0 c-43 0 -60 -5 -84 -25 -51
-43 -64 -92 -70 -272 l-5 -163 -48 0 -49 0 0 270 0 270 50 0 c50 0 50 0 50
-32 l0 -32 29 28 c48 46 130 65 174 39z m315 6 l64 -11 -5 -40 c-3 -22 -7 -41
-9 -44 -3 -2 -30 2 -61 8 -68 14 -105 4 -126 -33 -13 -24 -13 -29 2 -53 10
-14 53 -44 97 -66 82 -41 104 -63 120 -120 20 -70 -24 -155 -97 -186 -38 -16
-142 -18 -195 -3 -37 10 -38 11 -38 58 l0 48 59 -20 c94 -30 164 -6 164 58 0
36 -16 50 -105 96 -110 58 -142 110 -119 195 14 52 59 94 118 110 61 16 55 16
131 3z m-6038 -279 l0 -270 -50 0 -50 0 0 270 0 270 50 0 50 0 0 -270z m4130
0 l0 -270 -50 0 -50 0 0 270 0 270 50 0 50 0 0 -270z m291 53 l72 -218 72 215
72 215 51 3 c29 2 52 1 52 -2 0 -4 -169 -476 -185 -519 -6 -15 -17 -17 -68
-15 l-61 3 -93 259 c-51 143 -93 263 -93 268 0 4 24 8 54 8 l54 0 73 -217z
m1939 -53 l0 -270 -55 0 -55 0 0 270 0 270 55 0 55 0 0 -270z m690 57 c37
-114 70 -210 73 -213 3 -3 37 92 77 210 l72 216 49 0 c27 0 49 -3 49 -7 0 -8
-129 -370 -197 -553 -64 -172 -103 -210 -211 -210 l-63 0 3 43 c3 42 3 42 39
39 44 -4 87 29 113 86 l18 40 -101 277 c-56 152 -101 279 -101 282 0 2 25 3
56 1 l57 -3 67 -208z m-6405 -777 c3 -5 3 -24 0 -42 -6 -31 -9 -33 -50 -33
-65 0 -88 -27 -93 -110 l-4 -65 71 0 71 0 0 -45 0 -45 -70 0 -70 0 -2 -227 -3
-228 -47 -3 -48 -3 0 230 0 231 -65 0 -65 0 0 45 0 45 65 0 65 0 0 68 c1 132
54 191 177 192 34 0 65 -4 68 -10z m695 -62 c28 -9 30 -12 24 -51 -4 -23 -9
-45 -13 -49 -3 -4 -24 -1 -46 7 -79 28 -180 11 -204 -33 -19 -35 -13 -81 13
-107 13 -13 60 -42 103 -64 142 -71 183 -123 183 -231 0 -111 -64 -187 -178
-211 -61 -12 -157 -7 -211 12 -33 12 -33 13 -27 57 3 25 8 47 9 49 2 2 26 -4
53 -12 101 -30 188 -12 224 47 44 73 14 121 -124 195 -117 62 -133 75 -157
128 -42 92 -5 205 83 251 64 33 191 39 268 12z m-1321 -194 c69 -20 141 -90
164 -159 65 -191 -48 -378 -238 -392 -196 -15 -339 175 -280 373 26 88 81 145
169 176 64 22 117 22 185 2z m2153 6 c53 -15 94 -53 115 -108 15 -40 18 -77
18 -242 l0 -195 -50 0 -50 0 -5 195 c-5 209 -11 234 -61 261 -34 18 -115 6
-146 -22 -48 -45 -57 -81 -63 -264 l-5 -170 -47 -3 -48 -3 0 276 0 276 48 -3
c45 -3 47 -4 50 -37 l3 -33 29 27 c51 49 134 66 212 45z m582 -1 c22 -6 52
-23 67 -39 l28 -27 3 31 c3 29 5 31 51 34 l48 3 -3 -308 c-3 -295 -4 -310 -25
-349 -12 -23 -36 -53 -53 -67 -65 -55 -201 -72 -325 -41 l-65 16 0 43 c0 23 3
44 6 47 3 3 31 -3 62 -14 32 -11 86 -21 122 -22 111 -2 162 46 176 170 l7 59
-32 -28 c-18 -15 -58 -34 -89 -43 -112 -33 -212 11 -266 119 -23 46 -28 70
-29 129 0 102 24 170 82 228 65 65 143 85 235 59z m678 -10 c45 -23 79 -64 93
-113 11 -36 15 -101 15 -238 l0 -189 -47 3 c-44 3 -48 5 -53 32 l-5 28 -19
-21 c-31 -35 -99 -54 -166 -48 -107 9 -161 59 -168 154 -3 49 0 64 20 93 48
70 125 100 260 100 l71 0 -6 41 c-8 62 -34 82 -110 87 -62 4 -79 -1 -170 -46
-5 -2 -7 18 -5 44 l3 49 65 23 c51 18 79 22 132 18 37 -3 77 -10 90 -17z m629
6 c98 -35 153 -129 153 -260 0 -104 -23 -174 -78 -230 -79 -82 -216 -88 -301
-13 l-35 30 0 -146 0 -146 -50 0 -50 0 2 383 3 382 48 3 47 3 0 -37 0 -37 23
20 c64 59 155 77 238 48z m651 -16 c59 -29 86 -56 115 -114 55 -108 38 -247
-40 -333 -63 -68 -107 -87 -202 -87 -92 0 -126 14 -193 78 -70 68 -100 187
-72 287 25 90 104 168 193 191 51 13 152 2 199 -22z m562 25 c11 -4 16 -19 16
-49 l0 -43 -37 5 c-55 6 -102 -23 -132 -83 -23 -45 -25 -64 -29 -216 l-5 -168
-48 0 -49 0 0 276 0 275 48 -3 c45 -3 47 -4 52 -38 5 -33 6 -34 17 -14 24 42
121 76 167 58z m464 -24 c69 -39 105 -105 118 -220 l7 -60 -197 0 -196 0 6
-27 c14 -59 50 -105 101 -132 35 -18 133 -13 182 9 24 11 47 20 52 20 5 0 9
-20 9 -46 0 -43 -2 -46 -37 -60 -20 -9 -69 -18 -108 -21 -192 -15 -307 90
-309 282 -1 141 62 236 184 276 44 15 145 3 188 -21z m-4093 -255 l0 -270 -47
-3 -48 -3 0 276 0 276 48 -3 47 -3 0 -270z"/>
<path d="M8795 16523 c-11 -2 -27 -7 -35 -10 -16 -6 -27 -9 -49 -11 -8 -1 -11
-8 -6 -19 5 -14 4 -15 -6 -6 -10 10 -15 9 -26 -5 -10 -12 -12 -12 -8 -2 4 10
2 9 -8 -2 -8 -10 -17 -15 -20 -12 -10 11 -98 -68 -93 -83 3 -8 2 -12 -3 -9 -4
3 -16 -3 -26 -14 -10 -11 -14 -20 -10 -20 5 0 1 -6 -10 -14 -10 -7 -19 -22
-20 -34 0 -11 -7 -27 -14 -36 -8 -9 -10 -16 -6 -16 4 0 2 -7 -5 -15 -10 -12
-10 -18 1 -32 8 -9 9 -14 2 -10 -13 8 -28 -27 -19 -42 3 -5 0 -9 -7 -8 -37 1
-49 -4 -43 -18 3 -8 1 -15 -4 -15 -6 0 -10 5 -10 10 0 6 -7 10 -15 10 -20 0
-40 -49 -25 -64 7 -7 10 -6 10 4 0 7 3 10 7 7 3 -4 12 -2 19 3 6 6 16 10 20 8
17 -4 84 13 84 22 0 5 10 14 23 20 20 10 20 10 5 -3 -10 -8 -18 -16 -18 -19 0
-3 33 -5 73 -6 39 0 82 -4 94 -7 16 -5 22 -2 26 12 4 16 5 16 6 -2 1 -17 3
-18 11 -5 8 13 10 13 10 -1 0 -19 33 -36 38 -20 2 6 8 11 13 11 4 0 6 -6 4
-13 -6 -15 50 -41 66 -31 7 4 9 3 6 -3 -7 -11 53 -63 71 -63 6 0 13 6 16 13 4
6 4 2 2 -10 -3 -15 11 -37 45 -74 26 -29 46 -56 43 -61 -3 -4 2 -11 10 -14 9
-3 13 -10 10 -15 -3 -5 0 -9 6 -9 8 0 8 -6 0 -22 -11 -23 -11 -23 9 1 12 13
21 20 21 16 0 -13 -56 -70 -71 -73 -10 -1 -9 2 4 11 9 8 17 18 17 22 0 4 -6 2
-13 -4 -8 -6 -17 -8 -20 -4 -4 3 -12 -8 -18 -26 -8 -23 -14 -29 -24 -21 -6 5
-15 7 -19 3 -4 -4 -4 0 0 10 3 9 13 17 22 17 14 0 14 1 0 13 -8 6 -30 34 -47
60 -26 38 -36 46 -46 37 -11 -9 -12 -7 -8 11 4 14 2 20 -5 15 -6 -3 -13 2 -16
12 -8 24 -60 54 -81 46 -9 -4 -15 -2 -13 4 2 5 0 9 -3 9 -3 -1 -13 4 -22 12
-12 9 -17 10 -17 2 0 -7 -5 -9 -10 -6 -6 4 -7 11 -4 17 4 6 -1 8 -16 3 -17 -5
-21 -4 -15 6 6 11 5 11 -5 3 -9 -9 -19 -8 -39 4 -35 20 -103 9 -99 -16 2 -10
-3 -16 -10 -14 -9 1 -11 -2 -6 -10 5 -7 9 -21 9 -32 1 -10 9 -24 18 -31 10 -7
17 -17 17 -23 0 -6 26 -36 58 -68 31 -31 51 -53 43 -49 -11 6 -13 4 -8 -8 3
-9 2 -19 -3 -22 -13 -8 -13 -35 0 -35 5 0 7 7 4 15 -4 8 -2 15 4 15 6 0 9 -8
7 -17 -2 -10 -4 -22 -4 -26 -1 -5 -6 -5 -13 -1 -7 4 -8 3 -4 -4 4 -7 11 -12
16 -12 15 0 41 31 34 41 -3 6 0 17 8 26 11 14 11 16 -2 8 -11 -6 -10 -3 3 12
9 11 17 25 17 31 0 6 13 33 29 60 19 33 26 54 20 63 -8 12 -11 12 -19 -1 -6
-10 -10 -11 -10 -2 0 6 -1 15 -2 19 -2 3 5 7 15 9 9 1 17 -2 17 -7 0 -6 4 -7
10 -4 5 3 7 0 4 -8 -3 -8 2 -17 10 -20 10 -4 14 0 11 13 -2 11 0 22 5 25 4 3
7 -3 5 -12 -3 -22 22 -73 35 -73 6 0 10 -6 10 -13 0 -24 22 -38 39 -24 9 6 5
-1 -7 -17 -16 -21 -19 -33 -12 -40 8 -8 13 -7 20 4 5 8 7 17 4 21 -2 4 0 10 5
14 19 11 1 -40 -18 -53 -11 -8 -17 -20 -14 -28 6 -15 48 -19 57 -6 3 5 19 7
36 4 17 -2 30 0 30 7 0 6 7 8 17 4 11 -4 14 -3 9 5 -4 8 -2 10 8 6 8 -3 28 2
46 11 25 13 29 19 20 30 -8 10 -8 15 1 21 8 4 9 3 5 -5 -14 -22 26 -25 45 -3
9 12 21 22 27 22 20 0 44 39 37 62 -6 21 -5 22 8 5 14 -17 16 -16 28 13 8 16
18 30 23 30 4 0 2 8 -5 17 -12 15 -12 16 4 10 12 -4 17 -1 19 11 0 9 2 23 2
30 1 7 6 16 11 20 6 4 12 18 15 32 8 42 5 194 -4 215 -5 11 -10 26 -12 33 -1
8 -5 17 -8 20 -9 9 -46 10 -40 1 2 -4 1 -10 -4 -13 -4 -2 -8 4 -9 14 -1 11 2
22 8 25 5 4 9 1 9 -6 0 -10 3 -10 11 -2 15 15 -23 79 -52 88 -11 4 -18 9 -15
12 5 6 -30 43 -54 59 -10 5 -9 2 2 -8 22 -20 22 -25 4 -25 -8 0 -14 3 -13 6 1
3 -7 18 -16 33 -19 28 -72 52 -90 41 -6 -3 -7 -1 -3 5 4 7 1 12 -9 12 -12 0
-15 -5 -11 -16 5 -14 4 -15 -9 -4 -8 7 -13 15 -11 19 3 4 -3 8 -12 9 -37 6
-128 9 -147 5z m331 -443 c22 2 56 2 78 1 35 -1 38 -3 32 -25 -3 -14 -1 -37 4
-52 8 -19 8 -30 0 -38 -8 -8 -9 -6 -5 5 4 10 2 20 -4 24 -6 3 -11 1 -11 -4 0
-6 -15 -11 -32 -11 -18 0 -50 -5 -72 -11 -21 -6 -47 -12 -58 -14 -43 -9 -53
-16 -54 -40 -1 -14 2 -25 6 -25 12 0 21 30 13 42 -3 6 -1 8 5 4 11 -6 13 -45
2 -47 -40 -10 -65 0 -40 16 6 3 10 11 10 16 0 6 -5 7 -12 3 -7 -5 -8 -3 -4 5
5 8 0 14 -13 18 -11 3 -18 10 -14 16 4 6 0 8 -10 4 -11 -4 -14 -2 -10 9 3 7 1
14 -5 14 -5 0 -12 11 -14 24 -4 17 -1 23 9 19 7 -3 19 0 27 6 7 6 16 8 19 4 4
-3 7 -1 7 6 0 8 -6 11 -16 7 -9 -3 -25 1 -37 9 -12 8 -16 15 -10 15 7 0 15 -5
18 -10 4 -7 12 -7 25 0 13 7 19 6 23 -4 5 -12 13 -12 42 -3 21 6 40 17 42 25
4 10 8 11 13 2 4 -7 25 -11 46 -10z"/>
<path d="M8412 15956 c-18 -6 -30 -15 -25 -20 4 -4 1 -7 -7 -5 -21 3 -48 -9
-101 -48 -62 -44 -85 -78 -67 -101 12 -15 11 -16 -5 -3 -20 16 -19 17 -40 -28
l-17 -34 22 18 c13 10 8 4 -10 -14 -18 -18 -30 -37 -26 -42 3 -5 9 -7 13 -5 4
3 13 0 21 -5 11 -7 7 -9 -15 -7 -24 2 -30 -1 -30 -17 0 -11 -3 -25 -7 -31 -10
-15 -6 -74 4 -68 5 4 4 -3 -3 -13 -16 -26 -4 -79 14 -64 9 7 13 5 13 -8 0 -11
-6 -17 -13 -14 -15 6 -15 -3 -3 -32 5 -11 9 -15 9 -9 1 15 50 12 56 -4 4 -10
0 -13 -14 -9 -10 2 -25 0 -32 -5 -10 -7 -9 -8 5 -4 16 5 17 4 6 -9 -10 -12 -9
-16 3 -21 9 -3 14 -11 11 -18 -6 -14 28 -56 45 -56 7 0 9 -5 6 -11 -8 -12 24
-51 36 -43 4 2 12 -3 18 -13 10 -20 71 -59 71 -46 0 4 4 2 9 -5 4 -7 14 -14
22 -15 8 -2 20 -6 27 -10 6 -5 17 -5 22 -2 6 3 10 2 10 -4 0 -5 8 -10 18 -9 9
0 32 -3 50 -7 22 -5 32 -4 32 4 0 7 -4 9 -10 6 -5 -3 -10 -2 -10 2 0 5 15 14
33 21 25 9 29 9 17 -1 -24 -19 -22 -36 3 -30 12 3 32 5 45 4 13 0 21 3 18 8
-4 5 3 7 14 4 12 -3 20 0 20 8 0 7 3 10 6 6 3 -3 16 -2 28 3 14 5 28 3 41 -6
26 -20 40 -17 24 4 -13 15 -12 16 2 4 10 -7 15 -21 12 -32 -6 -22 21 -29 33
-8 4 7 3 8 -4 4 -7 -4 -12 -3 -12 3 0 5 6 12 13 14 8 4 4 13 -13 29 -14 13
-36 39 -50 58 -13 19 -30 39 -37 43 -7 4 -13 16 -13 25 0 10 -6 26 -14 37 -7
11 -15 25 -17 30 -2 6 -10 9 -17 9 -9 -2 -10 2 -2 11 6 7 8 27 4 46 -4 19 -6
42 -6 51 0 10 -3 20 -8 23 -5 3 -7 12 -3 20 3 9 -1 15 -8 15 -11 0 -11 3 1 10
13 9 13 10 0 10 -10 0 -11 3 -4 8 6 4 11 14 11 22 0 8 3 22 7 30 5 12 -1 15
-24 14 -48 -2 -52 -3 -45 -14 4 -6 11 -7 17 -4 7 5 8 2 3 -6 -6 -10 -4 -12 9
-7 12 5 15 3 9 -6 -4 -6 -6 -19 -5 -29 2 -9 -1 -19 -7 -22 -5 -3 -7 2 -4 12 5
23 -30 64 -49 57 -8 -3 -21 2 -29 11 -13 16 -11 17 13 12 15 -3 33 -1 40 4 10
8 9 9 -4 5 -9 -3 -19 1 -22 10 -6 14 -9 14 -31 -1 -23 -15 -25 -15 -35 7 -11
21 -10 21 4 3 9 -11 17 -16 17 -10 1 5 2 16 3 24 2 21 -54 80 -70 73 -10 -4
-12 0 -7 12 4 11 0 22 -9 29 -8 6 -16 14 -17 18 -6 25 -15 38 -26 38 -7 0 -19
8 -26 18 -11 14 -11 15 1 5 17 -16 34 -17 25 -3 -11 18 14 38 57 45 29 5 37
10 29 18 -8 8 -14 8 -23 -1 -7 -7 -16 -12 -21 -12 -20 0 26 32 48 34 17 1 21
4 13 14 -12 14 -23 14 -66 -2z"/>
<path d="M5715 16355 c-119 -17 -127 -20 -123 -59 l3 -31 60 2 c307 10 348 8
426 -16 90 -27 123 -20 117 27 -2 22 -12 30 -53 45 -123 46 -260 56 -430 32z"/>
<path d="M5695 16140 c-82 -13 -105 -24 -105 -54 0 -43 20 -50 117 -35 142 21
266 17 354 -10 83 -25 116 -25 133 2 18 28 -5 50 -80 76 -59 21 -91 25 -214
27 -80 1 -172 -1 -205 -6z"/>
<path d="M5715 15926 c-120 -18 -127 -21 -123 -60 l3 -31 60 2 c307 10 348 8
426 -16 90 -27 123 -20 117 27 -3 24 -12 30 -88 56 -103 34 -253 43 -395 22z"/>
<path d="M5685 15708 c-78 -11 -95 -20 -95 -53 0 -42 21 -49 112 -34 134 21
270 18 359 -10 83 -25 116 -25 133 2 18 28 -5 50 -80 76 -59 21 -90 25 -214
27 -80 1 -176 -2 -215 -8z"/>
<path d="M6695 16353 c-38 -8 -89 -23 -113 -33 -37 -17 -43 -23 -40 -46 5 -46
26 -50 129 -20 106 30 185 33 346 14 111 -13 137 -6 131 36 -4 30 -40 43 -156
55 -134 14 -211 13 -297 -6z"/>
<path d="M6665 16130 c-111 -29 -127 -38 -123 -74 4 -41 28 -44 131 -15 94 27
229 30 359 10 89 -14 118 -5 118 34 0 32 -19 41 -113 54 -121 17 -290 13 -372
-9z"/>
<path d="M6740 15933 c-65 -11 -180 -46 -190 -58 -7 -8 -10 -24 -8 -36 6 -41
28 -44 129 -15 106 30 185 33 346 14 82 -9 105 -9 117 1 20 17 20 45 1 61 -31
25 -305 48 -395 33z"/>
<path d="M6665 15700 c-111 -29 -127 -38 -123 -74 4 -41 28 -44 131 -15 94 27
229 30 359 10 89 -14 118 -5 118 34 0 32 -19 41 -113 54 -121 17 -290 13 -372
-9z"/>
<path d="M6345 14479 c-33 -6 -85 -8 -117 -6 l-56 3 10 -25 c5 -14 16 -33 24
-42 14 -15 7 -17 -83 -21 -107 -4 -162 -23 -221 -73 l-33 -28 33 -28 c18 -16
45 -36 59 -46 l27 -16 -50 -25 c-38 -19 -56 -36 -79 -78 -17 -30 -43 -64 -59
-77 -26 -22 -27 -26 -15 -54 15 -35 60 -73 86 -73 45 0 -7 -80 -66 -102 -19
-6 -35 -15 -35 -18 0 -29 93 -90 137 -90 l35 0 -22 -36 c-12 -19 -25 -57 -29
-84 l-6 -49 -88 75 c-48 41 -98 92 -112 112 -13 20 -50 123 -81 227 -74 248
-88 275 -144 275 -18 0 -44 13 -70 35 -33 28 -51 35 -83 35 l-41 0 32 -33 c18
-18 32 -38 32 -43 0 -23 -38 -44 -77 -44 -49 0 -58 -8 -33 -29 19 -15 19 -19
5 -56 -8 -22 -14 -48 -15 -57 0 -10 -14 -21 -37 -29 l-38 -12 26 -11 c47 -20
58 -34 49 -66 -10 -33 1 -90 23 -124 9 -13 43 -45 75 -72 40 -33 68 -66 83
-99 13 -27 44 -81 69 -120 25 -38 73 -118 107 -176 54 -91 64 -118 79 -200 10
-53 17 -149 18 -221 1 -143 2 -144 68 -108 28 15 39 17 45 7 12 -20 16 -188 5
-247 -6 -30 -9 -56 -8 -58 8 -8 147 103 165 131 21 34 22 35 104 39 54 3 109
14 160 32 43 15 80 26 81 24 1 -1 16 -24 32 -50 16 -27 31 -48 34 -47 3 0 25
25 50 54 60 71 70 70 70 -5 0 -93 39 -172 160 -330 19 -25 19 -26 -20 -190
-48 -204 -82 -322 -123 -425 -25 -63 -37 -81 -57 -86 -14 -4 -83 -8 -155 -8
-130 -1 -160 -8 -225 -50 -8 -6 -31 -17 -50 -26 -33 -14 -78 -70 -67 -82 3 -2
14 0 25 6 54 29 89 -10 51 -57 -24 -32 -26 -57 -1 -47 43 18 58 17 71 -9 11
-20 12 -31 1 -56 -15 -37 -10 -44 22 -30 21 10 30 8 63 -14 58 -40 108 -35
385 36 155 40 187 64 221 166 26 81 70 168 141 282 64 102 163 187 315 270 54
30 100 55 102 57 8 6 -52 63 -66 63 -58 0 81 99 181 129 l76 23 -17 30 c-10
16 -26 36 -36 45 -16 15 -13 18 44 53 79 49 134 64 214 58 52 -5 65 -3 65 8 0
24 -28 84 -39 84 -6 0 -11 4 -11 9 0 8 81 41 101 41 5 0 29 -33 55 -72 59 -92
121 -175 194 -258 68 -78 71 -53 -37 -306 -58 -138 -82 -184 -98 -188 -11 -3
-74 -6 -140 -6 -135 0 -181 -10 -224 -45 -16 -14 -36 -25 -44 -25 -21 0 -65
-38 -82 -70 -21 -40 -19 -43 15 -25 16 8 38 15 48 15 27 0 36 -29 17 -50 -9
-10 -20 -31 -25 -48 l-9 -32 41 21 c38 20 40 20 54 2 17 -22 17 -24 -1 -47 -8
-11 -15 -28 -15 -38 0 -17 2 -17 30 -3 27 14 31 14 67 -11 35 -24 44 -26 108
-20 87 7 348 77 383 103 16 11 52 69 88 139 68 135 102 173 213 240 42 25 78
48 81 51 3 3 -10 17 -28 33 l-33 27 42 36 c36 31 77 51 149 74 21 6 -31 48
-87 69 -35 14 -46 25 -69 71 -33 69 -30 129 15 227 l31 69 45 -58 c25 -32 64
-79 88 -104 23 -26 86 -95 140 -154 l99 -107 -25 -87 c-36 -124 -81 -246 -125
-333 l-37 -75 -150 -6 c-162 -6 -172 -9 -225 -48 -19 -14 -48 -33 -64 -41 -25
-13 -72 -78 -62 -87 1 -2 20 4 41 13 31 13 39 13 46 2 13 -19 11 -27 -11 -55
-11 -14 -20 -34 -20 -44 0 -18 1 -18 36 -2 35 17 36 17 54 -5 17 -21 17 -26 4
-57 -19 -47 -18 -48 16 -30 29 15 32 15 57 -5 42 -33 122 -27 311 24 214 57
205 48 319 315 48 113 100 220 115 236 14 17 67 55 116 84 95 56 101 66 55 96
l-25 17 23 24 c26 28 133 84 161 84 10 0 18 3 18 8 0 12 -82 59 -123 70 -21 6
-50 23 -65 37 -15 15 -47 41 -72 59 -62 44 -104 110 -120 187 -7 38 -14 165
-15 314 -3 181 -8 275 -20 340 -9 50 -18 97 -19 105 -1 11 16 16 69 22 368 36
605 138 681 294 55 113 35 273 -45 353 -83 83 -213 118 -373 100 -104 -12
-162 -27 -370 -95 -390 -127 -879 -159 -1049 -67 -62 33 -83 71 -76 135 15
127 88 152 429 146 l203 -3 44 -33 c115 -84 364 -110 589 -60 50 11 80 28 48
28 -19 0 -76 48 -76 65 0 11 8 11 38 3 58 -16 148 -3 232 33 64 27 88 32 158
33 l84 1 -39 34 c-63 56 -107 71 -207 71 l-88 0 31 29 c40 38 42 66 4 56 -114
-31 -174 -31 -272 -3 -57 16 -104 21 -186 22 -126 0 -181 -16 -285 -86 l-61
-40 -77 6 c-42 4 -156 7 -252 7 -256 1 -352 -27 -434 -122 -47 -55 -66 -116
-66 -208 0 -143 70 -237 214 -290 187 -69 551 -67 900 4 67 13 195 47 285 75
365 113 505 102 519 -38 6 -64 -10 -90 -75 -129 -147 -86 -490 -127 -784 -94
-114 13 -155 13 -408 -3 -351 -23 -571 -12 -831 40 -123 25 -138 31 -150 69
-6 18 -18 39 -26 45 -23 20 -16 30 19 30 41 0 136 63 137 90 0 4 -16 12 -35
18 -36 14 -85 64 -85 88 0 8 10 14 21 14 24 0 83 57 91 88 4 13 -3 24 -21 36
-14 10 -40 43 -57 74 -24 45 -41 62 -81 83 l-50 26 26 17 c14 9 41 29 59 45
l33 28 -33 28 c-59 50 -114 69 -220 73 l-98 4 20 28 c34 48 28 55 -52 56 -40
1 -120 3 -178 5 -94 4 -110 2 -153 -19 -33 -17 -55 -37 -73 -68 -14 -24 -27
-44 -29 -44 -2 0 -15 20 -29 44 -46 78 -161 110 -311 85z"/>
<path d="M3764 4539 c-142 -32 -110 -196 34 -174 63 9 108 55 117 117 4 26 4
51 0 57 -7 13 -93 13 -151 0z"/>
<path d="M5064 4746 c-17 -8 -43 -29 -56 -47 -123 -166 15 -402 186 -319 35
17 50 32 70 73 84 168 -47 359 -200 293z"/>
<path d="M6344 4539 c-102 -23 -128 -121 -44 -164 38 -20 66 -19 117 4 50 23
73 62 73 126 l0 45 -52 -1 c-29 -1 -72 -5 -94 -10z"/>
<path d="M9693 4740 c-36 -22 -58 -52 -68 -92 l-7 -28 136 0 c134 0 136 0 136
23 0 12 -9 36 -20 54 -37 61 -116 81 -177 43z"/>
<path d="M4574 3500 c-33 -13 -82 -77 -95 -122 -23 -87 12 -200 74 -239 46
-29 146 -23 183 11 92 85 83 270 -16 338 -34 23 -104 29 -146 12z"/>
<path d="M7334 3491 c-72 -44 -101 -190 -55 -279 57 -111 197 -109 255 3 44
85 14 232 -56 275 -42 25 -103 26 -144 1z"/>
<path d="M7975 3285 c-75 -27 -99 -92 -50 -140 19 -20 34 -25 75 -25 93 0 140
45 140 135 l0 45 -62 0 c-35 -1 -81 -7 -103 -15z"/>
<path d="M8593 3489 c-100 -64 -100 -289 1 -350 43 -26 115 -25 150 2 47 37
70 95 70 179 1 124 -50 190 -146 190 -26 0 -56 -8 -75 -21z"/>
<path d="M9215 3490 c-52 -33 -80 -94 -80 -175 0 -123 58 -195 159 -195 96 0
154 62 164 175 4 56 1 72 -22 119 -17 34 -39 63 -60 75 -44 27 -120 28 -161 1z"/>
<path d="M10253 3490 c-34 -20 -63 -66 -63 -100 0 -19 6 -20 135 -20 150 0
147 -2 116 67 -32 70 -120 95 -188 53z"/>
</g>
</svg>
