<?xml version="1.0" standalone="no"?>
<!DOCTYPE svg PUBLIC "-//W3C//DTD SVG 20010904//EN"
 "http://www.w3.org/TR/2001/REC-SVG-20010904/DTD/svg10.dtd">
<svg version="1.0" xmlns="http://www.w3.org/2000/svg"
 width="200.000000pt" height="200.000000pt" viewBox="0 0 200.000000 200.000000"
 preserveAspectRatio="xMidYMid meet">
<metadata>
Created by potrace 1.13, written by Peter Selinger 2001-2015
</metadata>
<g transform="translate(0.000000,200.000000) scale(0.100000,-0.100000)"
fill="#000000" stroke="none">
<path d="M505 1372 c-3 -3 -5 -173 -5 -378 0 -371 0 -373 22 -394 17 -16 35
-20 90 -20 l68 0 0 -105 c0 -83 -3 -105 -14 -105 -7 0 -19 -6 -25 -14 -10 -12
-8 -17 9 -26 12 -6 19 -14 17 -17 -3 -2 -17 3 -31 12 -14 10 -26 13 -26 7 0
-6 5 -14 10 -17 6 -3 10 -11 10 -17 0 -6 -8 -4 -18 5 -26 24 -33 21 -26 -10
l6 -28 -17 23 c-20 27 -40 20 -25 -9 12 -22 -4 -27 -17 -5 -7 12 -17 12 -73
-1 -107 -25 -115 -28 -118 -45 -3 -13 10 -18 65 -25 87 -10 423 -11 486 0 46
8 47 9 47 45 0 62 -10 85 -34 78 -12 -3 -42 -10 -68 -17 -41 -11 -53 -10 -88
6 -22 10 -40 22 -40 27 0 4 43 8 95 8 l94 0 3 113 3 112 87 3 87 3 3 -113 3
-113 98 -3 c53 -1 97 -7 97 -11 0 -10 -73 -41 -98 -41 -9 0 -39 8 -65 17 -58
21 -67 13 -67 -58 0 -59 -1 -59 206 -66 161 -6 394 11 394 27 0 20 -34 40 -68
40 -20 1 -55 7 -77 15 -35 13 -41 13 -51 0 -16 -22 -27 -18 -14 4 12 24 -3 36
-20 16 -7 -8 -17 -15 -22 -15 -6 0 -5 7 2 15 19 23 3 31 -20 10 -11 -10 -22
-16 -25 -13 -3 3 1 11 10 18 25 20 17 34 -10 16 -34 -22 -45 -20 -15 3 l24 19
-27 13 c-27 12 -27 13 -27 116 l0 103 69 0 c63 0 71 2 90 27 21 25 21 34 19
396 l-3 371 -86 3 -87 2 -156 -111 c-138 -98 -157 -114 -152 -134 4 -13 2 -25
-2 -28 -14 -8 -27 8 -27 33 0 24 -28 47 -233 191 -62 43 -65 44 -147 46 -46 1
-87 -1 -90 -4z"/>
<path d="M842 1371 c5 -15 143 -190 149 -191 8 0 138 166 146 186 4 12 -19 14
-147 14 -83 0 -150 -4 -148 -9z"/>
<path d="M274 1360 c-12 -4 -31 -21 -43 -36 -19 -25 -21 -38 -21 -185 0 -86 3
-164 6 -173 5 -13 25 -16 115 -16 l109 0 0 164 c0 91 -4 176 -10 190 -19 51
-99 79 -156 56z"/>
<path d="M1614 1360 c-12 -4 -31 -21 -43 -36 -20 -25 -21 -38 -21 -200 l0
-174 109 0 109 0 7 163 c4 107 3 171 -4 189 -20 53 -99 82 -157 58z"/>
</g>
</svg>
