<?xml version="1.0" standalone="no"?>
<!DOCTYPE svg PUBLIC "-//W3C//DTD SVG 20010904//EN"
 "http://www.w3.org/TR/2001/REC-SVG-20010904/DTD/svg10.dtd">
<svg version="1.0" xmlns="http://www.w3.org/2000/svg"
 width="185.000000pt" height="185.000000pt" viewBox="0 0 185.000000 185.000000"
 preserveAspectRatio="xMidYMid meet">
<metadata>
Created by potrace 1.13, written by Peter Selinger 2001-2015
</metadata>
<g transform="translate(0.000000,185.000000) scale(0.100000,-0.100000)"
fill="#000000" stroke="none">
<path d="M0 1618 c0 -154 4 -228 10 -218 8 12 10 12 11 -5 0 -11 3 -14 6 -7 8
21 23 13 23 -13 0 -14 5 -25 10 -25 6 0 10 -11 10 -25 0 -16 -6 -25 -15 -25
-23 0 -18 -19 8 -30 16 -7 10 -8 -22 -3 -35 5 -43 3 -39 -8 2 -8 19 -15 36
-17 26 -3 32 -8 32 -28 0 -15 -6 -24 -15 -24 -8 0 -15 -6 -15 -14 0 -8 -3 -21
-6 -30 -4 -11 -1 -16 10 -16 10 0 16 -9 16 -25 0 -16 -6 -25 -15 -25 -8 0 -15
-4 -15 -10 0 -5 -7 -7 -15 -4 -9 4 -15 0 -15 -10 0 -9 7 -16 15 -16 8 0 15 -7
15 -16 0 -8 4 -12 10 -9 6 4 10 -7 10 -24 0 -20 -5 -30 -13 -28 -7 1 -13 -10
-15 -25 -2 -20 1 -28 12 -28 11 0 16 -9 16 -29 0 -16 6 -32 13 -35 6 -4 -5 -4
-25 -2 l-38 5 0 -40 c0 -39 0 -39 40 -39 38 0 40 -2 40 -30 0 -31 -22 -50 -59
-50 -17 0 -21 -6 -21 -36 0 -36 0 -36 36 -32 l37 4 -7 -155 c-12 -298 -17
-343 -35 -337 -14 5 -14 5 -1 -6 8 -7 14 -23 12 -35 -3 -19 -6 -21 -23 -13
-18 10 -19 7 -17 -35 l1 -45 38 0 c31 0 37 3 32 16 -4 12 -2 15 8 12 8 -3 13
-10 12 -15 -1 -6 19 -11 45 -11 43 -1 45 0 28 14 -11 7 -25 14 -30 14 -6 0 -4
5 4 11 12 9 12 10 -3 5 -10 -3 -29 -3 -42 0 l-24 6 5 162 c6 170 20 398 27
430 5 23 32 29 47 11 9 -10 18 -11 37 -4 14 5 28 7 30 5 5 -5 -12 -400 -24
-573 -5 -72 -3 -83 11 -83 14 0 16 14 16 98 0 117 17 460 26 520 6 43 20 55
31 26 3 -9 0 -20 -8 -25 -9 -6 3 -9 35 -9 l49 0 -7 -163 c-4 -89 -12 -202 -17
-252 -14 -138 -12 -195 6 -195 8 0 15 9 15 19 0 11 9 36 21 55 12 20 18 36 15
36 -3 0 -12 -12 -21 -27 -15 -26 -16 -16 -10 152 9 282 16 365 31 365 9 0 14
-11 14 -29 0 -17 5 -33 11 -36 6 -5 8 -22 4 -46 -6 -32 -2 -48 21 -86 l27 -47
-6 -155 c-4 -86 -9 -166 -13 -178 -5 -17 -2 -23 10 -23 11 0 16 10 17 33 1 17
3 55 4 82 4 96 3 92 34 93 28 1 29 -1 24 -36 -3 -20 -9 -53 -14 -72 -5 -19 -9
-50 -9 -68 l0 -33 570 2 c318 1 571 5 571 10 1 5 2 15 3 22 1 16 87 72 157
102 l36 16 -4 92 c-5 100 -13 131 -13 49 0 -85 -19 -59 -23 30 l-3 83 -2 -87
c-2 -87 -12 -113 -31 -81 -9 16 -10 14 -11 -9 0 -16 -4 -28 -10 -28 -6 0 -11
35 -12 83 l-1 82 -6 -87 c-9 -126 -27 -133 -34 -13 l-3 60 -2 -72 c-2 -60 -5
-73 -18 -73 -15 0 -16 15 -10 158 4 86 9 172 13 190 11 63 23 31 25 -65 2 -90
2 -92 5 -23 4 88 10 120 23 120 6 0 11 -30 12 -67 l2 -68 3 60 c4 64 23 103
23 46 0 -19 4 -30 10 -26 6 3 10 17 10 31 0 14 4 23 10 19 5 -3 7 -12 4 -20
-3 -7 -1 -22 5 -32 9 -15 10 -11 11 22 0 61 18 29 23 -40 2 -39 4 -22 5 47 1
77 -1 108 -10 111 -10 4 -10 6 0 6 15 1 17 147 2 156 -5 3 -10 13 -10 21 0 8
5 12 10 9 7 -5 10 29 9 103 -1 102 -2 109 -20 105 -10 -3 -17 -8 -15 -12 3 -4
-3 -7 -12 -7 -9 -1 -25 -5 -35 -9 -17 -7 -18 -6 -6 13 7 11 16 19 20 16 4 -2
21 1 37 7 29 10 31 14 30 54 0 36 -3 42 -19 38 -10 -3 -16 -9 -13 -14 3 -5 -1
-6 -9 -4 -7 3 -30 -1 -50 -10 -32 -13 -36 -13 -31 0 4 8 14 15 24 15 11 0 22
5 25 10 4 6 10 8 15 5 5 -3 11 -1 15 5 3 5 14 10 23 10 13 0 18 10 20 46 1 28
-2 43 -8 39 -5 -3 -10 -1 -10 4 0 6 6 11 13 11 8 0 7 4 -3 10 -8 5 -10 10 -4
10 7 0 11 23 12 60 l0 60 -73 0 c-66 0 -98 11 -81 27 3 3 40 5 81 4 l76 -2 -2
61 -2 60 -46 0 c-33 0 -42 3 -31 10 8 5 30 10 48 10 l32 0 0 140 0 140 -660 0
-659 0 -3 -57 -3 -58 -100 2 c-81 1 -94 -1 -65 -9 19 -5 68 -8 108 -6 57 3 72
0 72 -11 0 -11 -10 -12 -46 -7 -26 3 -80 6 -120 6 -59 0 -74 3 -74 15 0 8 5
15 10 15 6 0 10 25 10 55 l0 55 -160 0 -160 0 0 -232z m1229 167 c48 -19 95
-35 102 -35 19 0 192 -70 199 -80 3 -5 38 -23 78 -40 88 -40 89 -51 1 -16 -34
15 -64 26 -66 26 -2 0 -3 -9 -3 -20 0 -33 -22 -33 -116 2 -86 32 -89 35 -102
74 -12 39 -16 42 -107 79 -52 21 -95 40 -95 42 0 8 26 0 109 -32z m-724 -311
c197 -6 259 -15 239 -34 -5 -4 -76 -4 -159 0 -82 5 -224 12 -315 15 -91 4
-168 9 -172 12 -5 2 -8 9 -8 15 0 8 31 9 103 5 56 -4 196 -10 312 -13z m1063
-34 c22 0 32 -5 32 -15 0 -8 -6 -15 -12 -16 -26 -1 -215 2 -288 5 -41 2 -110
4 -152 5 -65 1 -78 4 -78 18 0 15 20 16 233 10 127 -4 247 -7 265 -7z m-634
-39 c16 -18 20 -18 51 -5 45 18 45 18 45 -13 0 -43 14 -58 34 -38 19 19 20 37
4 53 -9 9 -9 12 -1 12 20 0 23 -33 9 -75 -10 -27 -20 -40 -33 -40 -20 0 -52
-49 -53 -81 0 -12 7 -27 15 -34 8 -7 15 -16 15 -21 0 -8 -69 -59 -81 -59 -4 0
-7 18 -7 41 -1 32 5 46 26 65 24 21 25 22 6 18 -12 -3 -32 0 -45 6 -20 11 -20
13 -5 22 15 8 14 11 -6 29 l-23 20 35 -5 c19 -4 37 -11 38 -16 2 -6 8 -8 13
-4 14 9 10 60 -6 74 -13 11 -14 8 -9 -18 6 -28 4 -30 -15 -25 -24 6 -26 14 -9
31 9 9 7 12 -9 12 -28 0 -35 13 -27 45 7 30 15 31 38 6z m496 -841 c0 -16 5
-30 10 -30 6 0 10 11 10 25 0 46 27 28 36 -22 4 -30 9 -40 12 -28 2 11 9 23
16 27 8 6 7 8 -1 8 -7 0 -13 9 -13 20 0 11 7 20 15 20 10 0 15 -10 15 -30 0
-16 5 -30 10 -30 6 0 10 11 10 25 0 14 4 25 10 25 6 0 7 -74 4 -197 -5 -205
-8 -243 -23 -243 -5 0 -7 80 -6 178 l3 177 -9 -174 c-8 -157 -16 -201 -38
-201 -3 0 -5 80 -5 177 l2 178 -9 -175 c-9 -188 -11 -200 -32 -200 -11 0 -13
35 -10 188 2 103 5 199 6 214 2 15 0 25 -5 22 -4 -3 -9 -71 -9 -152 -2 -214
-10 -286 -32 -290 -16 -3 -17 10 -12 195 7 262 13 323 31 323 9 0 14 -11 14
-30z m-55 -262 c-4 -112 -7 -211 -7 -220 1 -12 -7 -18 -21 -18 -22 0 -22 0
-17 162 4 126 9 172 23 202 9 21 17 47 17 57 0 11 3 19 7 19 3 0 3 -91 -2
-202z"/>
</g>
</svg>
