<?xml version="1.0" standalone="no"?>
<!DOCTYPE svg PUBLIC "-//W3C//DTD SVG 20010904//EN"
 "http://www.w3.org/TR/2001/REC-SVG-20010904/DTD/svg10.dtd">
<svg version="1.0" xmlns="http://www.w3.org/2000/svg"
 width="900.000000pt" height="496.000000pt" viewBox="0 0 900.000000 496.000000"
 preserveAspectRatio="xMidYMid meet">
<metadata>
Created by potrace 1.13, written by Peter Selinger 2001-2015
</metadata>
<g transform="translate(0.000000,496.000000) scale(0.100000,-0.100000)"
fill="#000000" stroke="none">
<path d="M0 3835 c0 -951 2 -1125 14 -1125 7 0 16 -10 20 -22 9 -34 8 -37 -14
-31 -11 3 -20 0 -20 -6 0 -7 32 -11 93 -12 50 -1 104 -3 120 -5 15 -1 27 1 27
6 0 11 56 19 173 25 60 2 97 0 97 -6 0 -6 6 -7 16 -1 20 11 71 3 77 -12 3 -8
-28 -11 -112 -9 -159 2 -244 -6 -237 -23 3 -8 1 -14 -4 -14 -6 0 -10 5 -10 10
0 6 -18 10 -40 10 -34 0 -40 -3 -41 -22 -1 -21 -2 -21 -6 -3 -8 31 -22 42 -33
25 -7 -10 -10 -11 -10 -2 0 8 -17 12 -53 12 l-54 0 -2 -385 -1 -385 35 0 c32
0 35 2 35 30 0 17 5 30 11 30 7 0 10 -12 7 -30 l-5 -30 138 0 c76 0 145 -3
155 -7 13 -5 15 -3 9 7 -5 9 -4 11 3 6 6 -4 101 -7 209 -8 113 0 183 -4 163
-8 -19 -4 -198 -6 -397 -5 l-363 3 0 -924 0 -924 125 0 c102 0 125 3 125 14 0
8 8 17 17 19 13 3 10 5 -7 6 l-25 2 25 11 c23 9 24 11 6 17 -19 7 -19 8 2 13
26 7 30 28 5 28 -15 0 -15 1 2 13 16 13 15 14 -13 9 -21 -3 -32 0 -32 7 0 7 4
10 9 6 5 -3 12 -1 15 4 3 5 15 7 26 4 31 -8 24 7 -9 18 -42 15 -47 36 -7 32
25 -2 27 -1 11 6 l-20 8 20 5 c16 5 14 6 -7 7 -34 1 -45 17 -17 24 35 9 11 27
-36 27 -24 0 -46 4 -49 8 -3 5 15 7 40 6 24 -2 44 2 44 7 0 6 -5 7 -10 4 -14
-9 -13 8 2 23 9 9 3 12 -28 13 -27 1 -31 3 -14 6 32 6 80 43 56 43 -10 0 -15
4 -11 9 3 5 -3 12 -12 14 -10 3 -3 5 15 6 30 1 32 2 18 17 -9 8 -21 12 -27 8
-8 -5 -9 -3 -4 6 6 9 1 10 -16 5 -17 -4 -20 -3 -10 3 7 5 10 15 7 21 -5 7 2
11 18 11 27 0 36 24 13 33 -6 3 2 6 20 6 59 2 46 31 -13 31 -31 0 -22 20 9 21
16 1 17 3 5 6 -10 2 -15 10 -11 19 4 10 -4 14 -28 15 l-34 2 35 7 c23 5 27 8
13 9 -19 1 -21 4 -13 25 5 15 5 27 -3 35 -6 6 -7 11 -1 11 5 0 10 11 10 25 1
14 -2 25 -7 25 -4 0 -6 7 -3 15 4 11 0 15 -17 15 -25 0 -17 14 9 15 9 1 30 2
46 3 38 3 30 10 -20 18 -42 6 -58 14 -30 14 14 0 16 6 11 29 -6 30 -6 30 32
26 34 -4 35 -4 8 4 -16 4 -46 15 -65 24 -29 13 -31 16 -12 16 26 1 28 16 7 38
-12 12 -13 18 -4 29 8 10 8 14 0 14 -21 0 -11 20 12 21 19 1 20 2 3 6 -18 5
-18 6 5 19 16 9 19 13 8 14 -9 0 -22 6 -28 14 -10 11 -8 17 6 25 16 9 15 10
-8 11 -44 0 -46 37 -4 55 19 7 19 8 -5 15 -21 7 -19 8 15 9 27 1 36 4 26 10
-7 5 -10 14 -7 20 4 6 1 11 -6 11 -8 1 -7 4 4 10 10 6 14 18 11 30 -3 12 0 20
8 20 8 0 6 5 -5 13 -16 12 -14 14 24 26 39 11 41 13 23 26 -17 14 -17 14 3 15
12 0 21 7 21 15 0 8 -10 16 -21 16 -17 1 -18 2 -3 6 18 5 24 23 6 23 -5 0 -7
5 -4 10 3 6 0 10 -7 10 -8 0 -6 5 5 11 18 10 18 11 0 24 -16 12 -14 14 20 20
20 4 40 11 43 16 3 5 20 9 39 9 19 0 37 5 40 10 3 6 17 10 31 10 14 0 23 4 20
9 -3 4 -53 11 -110 13 -87 5 -110 10 -132 27 l-27 21 28 0 c24 0 26 2 14 16
-7 9 -22 20 -34 24 -19 7 -18 9 8 19 16 6 38 11 50 12 14 0 8 5 -18 13 l-40
13 30 13 c17 8 73 15 125 17 143 5 163 17 40 23 -72 4 -36 6 115 6 143 0 185
-2 120 -5 -55 -3 -95 -8 -90 -11 6 -3 64 -7 130 -9 66 -2 124 -7 130 -12 5 -5
29 -9 55 -10 35 -1 39 -3 20 -8 -22 -6 -23 -8 -7 -14 10 -4 29 -7 41 -7 12 0
31 -7 42 -16 10 -8 14 -13 7 -10 -6 3 -22 2 -35 -3 -21 -9 -21 -10 -3 -11 20
-1 20 -1 1 -15 -19 -14 -18 -15 10 -17 22 -1 18 -3 -16 -8 -35 -5 -38 -7 -15
-9 40 -2 71 -21 34 -21 -14 0 -29 -3 -33 -8 -4 -4 -29 -12 -54 -18 -44 -11
-45 -12 -14 -13 19 -1 31 -5 27 -11 -3 -5 4 -10 17 -11 23 -1 23 -1 -2 -9
l-25 -7 30 -8 c26 -7 27 -9 10 -16 -14 -5 -15 -8 -5 -9 8 -1 -3 -7 -25 -15
l-40 -13 40 -2 40 -2 -38 -12 c-39 -12 -38 -24 3 -39 12 -4 12 -6 -2 -6 -11
-1 -15 -7 -11 -21 4 -15 0 -20 -13 -20 -17 0 -16 -1 2 -15 10 -8 27 -15 37
-15 10 0 15 -5 12 -10 -3 -6 5 -10 19 -10 32 0 45 -20 14 -21 -13 0 -17 -3
-10 -6 6 -2 12 -16 12 -29 0 -13 5 -24 11 -24 6 0 8 -7 5 -16 -4 -12 -2 -15 9
-10 8 3 15 3 15 0 0 -2 -10 -9 -22 -14 l-23 -9 22 0 c28 -1 41 -21 14 -21 -12
0 -21 -4 -21 -10 0 -5 5 -10 10 -10 6 0 10 -5 10 -11 0 -6 -9 -9 -20 -6 -11 3
-20 1 -20 -4 0 -5 7 -9 15 -9 8 0 15 -7 15 -15 0 -8 -9 -15 -19 -15 -11 0 -23
-5 -26 -10 -3 -5 1 -10 10 -10 9 0 14 -4 10 -9 -3 -5 -20 -8 -38 -7 -17 2 -21
1 -8 -1 19 -4 21 -7 10 -14 -10 -6 -4 -9 21 -10 l35 -1 -35 -13 c-22 -8 -28
-14 -16 -14 10 -1 25 -9 32 -18 10 -15 10 -21 -3 -35 -9 -10 -28 -19 -42 -19
-18 -1 -14 -4 14 -9 l40 -7 -34 -8 c-31 -7 -33 -9 -16 -22 14 -9 15 -13 4 -13
-12 0 -12 -2 1 -10 13 -8 12 -10 -3 -10 -24 0 -53 -29 -41 -40 5 -4 17 -10 27
-12 18 -3 18 -4 0 -24 -10 -11 -25 -23 -33 -27 -8 -3 1 -6 20 -7 35 -1 35 -1
11 -14 -26 -14 -15 -29 16 -21 10 3 7 0 -7 -7 -27 -14 -38 -37 -17 -39 6 -1 1
-5 -13 -9 -22 -7 -20 -8 15 -10 l40 -2 -39 -11 -39 -12 29 -14 29 -14 -33 -7
c-51 -12 -50 -20 4 -21 50 -1 50 -2 -1 -14 l-30 -7 29 -12 30 -12 -45 -21 -44
-22 45 -2 c25 -1 35 -4 23 -6 -27 -5 -30 -20 -5 -26 13 -4 12 -5 -4 -6 -12 0
-24 -8 -28 -16 -3 -8 -4 -15 -3 -15 1 0 17 4 34 9 31 9 54 -1 33 -14 -5 -3
-10 -14 -10 -25 0 -20 -26 -35 -35 -20 -3 5 -13 6 -21 3 -14 -5 -12 -8 7 -18
13 -7 30 -10 38 -7 9 3 12 1 8 -6 -4 -6 1 -13 10 -15 12 -3 8 -5 -9 -6 -15 0
-30 -6 -34 -13 -5 -8 0 -9 14 -6 12 4 22 1 22 -4 0 -6 -12 -8 -30 -4 -17 3
-30 2 -30 -3 0 -13 25 -20 52 -15 20 4 19 2 -5 -9 -29 -14 -25 -26 13 -40 8
-3 3 -6 -13 -6 -16 -1 -26 3 -22 9 3 6 1 10 -4 10 -6 0 -11 -4 -11 -10 0 -5
-8 -10 -17 -11 -12 -1 -10 -4 7 -9 21 -7 22 -8 5 -10 -13 -1 -5 -6 20 -14 43
-14 43 -14 -30 -29 -11 -3 -2 -5 20 -6 56 -2 78 -17 40 -27 -17 -4 -36 -13
-43 -21 -11 -11 -9 -13 15 -13 l28 -1 -30 -14 c-24 -11 -26 -14 -10 -14 18 -2
19 -2 3 -12 -10 -5 -18 -14 -18 -19 0 -6 1535 -10 4090 -10 l4090 0 0 794 0
794 -77 -1 c-100 -1 -213 12 -213 25 0 6 53 8 145 6 l145 -3 0 60 0 60 -108
-3 c-59 -2 -118 1 -132 7 -19 7 9 10 108 10 l132 1 0 50 c0 45 -2 50 -22 51
-22 1 -22 1 -2 7 19 7 21 15 23 120 l3 113 -61 -2 c-34 -1 -64 1 -68 4 -3 4
24 7 61 7 59 0 67 2 64 18 -3 15 -16 17 -126 15 -75 -2 -122 1 -122 7 0 6 50
10 126 10 114 0 125 2 122 18 -3 15 -15 17 -123 14 -66 -2 -123 -6 -127 -8 -4
-3 -5 2 -2 10 5 13 28 16 133 17 80 0 119 4 106 9 -17 7 -17 9 -2 9 20 1 24
41 5 41 -9 0 -8 4 2 10 12 8 13 11 1 19 -11 7 -11 9 0 14 8 2 -34 4 -94 3 -59
0 -107 2 -107 7 0 4 47 7 105 7 l105 0 0 31 0 31 -125 -4 c-69 -3 -125 -1
-125 4 0 4 41 8 92 8 50 0 88 3 84 7 -4 4 -48 6 -98 5 -61 -2 -88 0 -83 7 3 6
1 11 -4 11 -6 0 -11 5 -11 12 0 9 3 9 12 0 8 -8 53 -12 135 -12 103 0 123 2
123 15 0 12 -15 15 -75 15 -41 0 -75 4 -75 9 0 5 12 9 28 8 15 -1 50 1 77 3
l50 3 -60 7 -60 7 58 1 c31 1 57 5 57 10 0 4 -22 6 -48 4 -43 -3 -48 -1 -48
17 0 18 6 21 41 20 l40 -2 -35 -7 -35 -7 42 -2 42 -1 0 156 1 156 -117 -6
c-65 -3 -124 -6 -130 -6 -8 0 -13 -15 -13 -41 l0 -41 85 3 c47 2 85 1 85 -2 0
-4 -38 -10 -85 -14 -64 -5 -85 -10 -85 -21 0 -12 17 -14 96 -10 53 2 92 1 88
-4 -5 -5 -48 -10 -96 -12 l-88 -3 -1 -80 c-1 -44 -1 -82 -1 -85 0 -3 -18 -3
-41 0 l-42 5 38 3 38 3 -2 72 c-2 40 -7 75 -13 80 -8 5 -7 9 1 15 9 6 12 71
13 242 1 129 0 237 0 240 -1 3 -3 29 -4 58 -2 47 0 53 20 58 12 3 33 4 45 1
16 -3 12 -5 -13 -6 -32 -1 -38 -4 -38 -23 1 -21 2 -21 13 -7 10 13 36 18 112
22 61 4 88 3 70 -2 -16 -5 -57 -10 -90 -11 -51 -2 -55 -4 -25 -9 28 -5 31 -8
17 -14 -10 -4 -36 -7 -58 -7 -37 0 -39 -2 -39 -30 l0 -30 93 6 c50 4 110 10
132 15 39 8 39 8 -10 5 -37 -3 -52 0 -62 12 -11 16 -12 16 -13 0 0 -14 -9 -18
-39 -18 -22 0 -46 -3 -55 -6 -9 -3 -16 -1 -16 5 0 6 19 11 44 11 25 0 48 5 52
12 5 7 3 8 -6 3 -9 -5 -11 -4 -6 3 9 15 46 16 46 2 0 -5 23 -10 50 -10 50 0
50 0 48 30 -1 17 -8 30 -16 30 -7 0 -10 5 -7 10 4 6 11 8 16 5 5 -4 9 -1 9 6
0 8 -10 9 -30 5 -19 -3 -29 -2 -25 4 3 6 18 10 33 11 23 0 24 2 7 8 -19 8 -19
8 0 20 14 8 15 11 4 7 -31 -9 -255 -16 -229 -7 l25 9 -25 2 c-14 1 -19 4 -12
7 6 2 12 9 12 14 0 6 -5 7 -12 3 -6 -4 -8 -3 -5 3 4 6 52 14 106 17 55 4 113
12 128 17 23 7 20 8 -17 5 -25 -3 -86 -8 -137 -12 -83 -6 -92 -9 -97 -28 -2
-12 -4 130 -4 314 1 184 3 339 6 344 2 4 7 4 11 -1 5 -9 113 -2 176 11 11 3
34 5 52 5 l32 1 1 455 1 455 -4501 0 -4500 0 0 -1125z m1251 652 c1 -70 6
-130 11 -133 4 -3 8 -35 8 -72 0 -63 -2 -69 -31 -95 -39 -34 -64 -36 -55 -4 3
12 6 60 6 106 0 46 3 81 7 77 4 -4 6 -25 4 -46 -2 -31 1 -40 13 -40 13 0 16
13 16 73 0 80 11 269 16 264 1 -1 4 -60 5 -130z m78 -119 c1 -45 5 -78 11 -78
6 0 10 21 10 47 0 86 13 34 17 -67 l3 -101 -60 3 c-33 1 -59 6 -57 11 1 5 6 8
11 7 17 -3 25 25 25 88 0 35 3 88 7 118 3 30 8 69 9 87 2 17 4 43 5 57 4 39
18 -86 19 -172z m7151 -781 c0 -24 5 -48 12 -55 7 -7 9 -12 5 -12 -4 0 11 -35
32 -77 33 -65 37 -81 29 -105 -10 -29 -28 -47 -28 -28 0 6 4 20 10 30 6 11 6
28 1 41 l-8 23 -13 -23 c-9 -18 -9 -25 0 -31 9 -5 9 -9 1 -14 -6 -4 -11 -2
-11 4 0 6 -4 9 -9 6 -5 -3 -11 3 -14 13 -3 14 -1 18 9 14 16 -6 18 6 4 27 -7
11 -10 11 -10 2 0 -10 -5 -10 -20 -2 -16 9 -20 8 -20 -5 0 -8 -5 -15 -11 -15
-7 0 -9 10 -4 28 4 15 9 34 11 42 2 8 6 26 10 40 4 14 4 23 1 20 -11 -10 -71
-135 -69 -144 2 -4 -6 -15 -16 -25 -11 -9 -23 -27 -27 -41 -4 -14 -13 -28 -19
-32 -6 -5 0 -8 14 -8 23 -1 23 -2 7 -11 -33 -19 -41 4 -18 50 12 22 19 41 16
41 -2 0 13 29 34 64 64 104 81 143 81 186 0 22 5 40 10 40 6 0 10 -19 10 -43z
m-7828 0 c63 -11 118 -44 118 -70 0 -5 9 -20 20 -34 21 -27 30 -130 10 -118
-5 3 -10 -1 -10 -11 0 -24 -51 -69 -60 -53 -13 20 -17 -22 -6 -58 12 -40 8
-45 -32 -37 -35 7 -47 43 -14 40 11 -1 16 5 14 17 -2 10 2 25 9 33 6 8 8 14 3
15 -5 0 -29 3 -53 5 -49 6 -61 -4 -61 -50 0 -21 3 -26 13 -18 7 5 21 6 32 1
17 -6 17 -8 3 -8 -10 -1 -18 -7 -18 -14 0 -10 -14 -12 -54 -9 -47 3 -56 1 -65
-17 -7 -13 -21 -20 -34 -20 l-22 2 23 4 c34 7 27 26 -8 21 -17 -3 -34 0 -37 5
-3 6 -1 7 4 4 16 -10 25 21 13 43 -5 10 -7 25 -4 34 3 9 -3 19 -16 26 -29 16
-60 92 -60 148 0 111 102 152 292 119z m1738 -202 l4 90 3 -73 c3 -56 9 -78
25 -97 21 -24 35 -115 18 -115 -6 0 -9 6 -7 13 1 8 -15 13 -51 15 -40 2 -52 0
-46 -9 5 -8 3 -9 -6 -4 -7 4 -16 2 -21 -6 -7 -12 -19 -15 -77 -18 -16 -1 -13
-92 4 -98 7 -2 9 8 6 27 -3 21 0 32 12 36 9 3 13 10 10 15 -3 5 1 9 10 9 8 0
21 3 30 6 11 4 16 1 16 -11 0 -9 -4 -13 -10 -10 -5 3 -10 0 -10 -7 0 -9 -3 -9
-10 2 -8 13 -10 12 -10 -4 0 -13 5 -17 20 -13 11 3 20 1 20 -4 0 -5 -9 -9 -20
-9 -32 0 -24 -30 8 -31 24 0 25 -1 7 -9 -15 -6 -16 -9 -4 -9 26 -1 18 -31 -8
-31 -21 0 -23 -4 -22 -42 2 -30 3 -35 6 -15 3 17 10 27 21 26 11 0 12 -3 5 -6
-16 -6 -17 -33 -2 -33 5 0 7 5 3 12 -5 7 -3 8 6 3 10 -6 9 -11 -5 -22 -11 -7
-23 -13 -28 -13 -4 0 -6 -4 -3 -9 3 -5 16 -7 28 -3 14 3 19 2 14 -6 -4 -7 -16
-12 -27 -12 -10 0 -19 -7 -19 -15 0 -8 5 -14 11 -13 6 2 14 -3 16 -10 3 -7 1
-12 -4 -11 -23 4 -33 -3 -33 -22 0 -19 4 -21 30 -15 25 5 30 2 30 -14 0 -11
-5 -20 -11 -20 -6 0 -9 6 -6 13 4 10 -2 13 -21 9 -24 -5 -24 -6 -7 -13 17 -6
17 -8 5 -13 -9 -4 -17 -21 -18 -38 -3 -40 -12 -51 -12 -15 0 28 -6 32 -35 21
-13 -5 -14 -8 -3 -15 10 -7 11 -9 0 -9 -7 0 -11 -4 -8 -8 2 -4 1 -14 -5 -22
-6 -11 -9 -5 -9 20 0 19 -4 30 -8 24 -4 -6 -17 -13 -30 -17 -23 -5 -23 -4 -20
61 l3 67 35 6 35 6 -32 2 -32 1 0 120 c1 116 1 120 22 121 22 2 22 2 1 6 -18
3 -21 12 -23 55 -1 44 1 49 13 39 22 -18 32 -7 40 39 3 22 11 40 16 40 6 0 10
28 10 63 0 34 4 68 9 76 18 29 31 -2 31 -75 0 -71 1 -75 26 -84 58 -23 61 -19
70 98 l9 107 6 -95 5 -95 4 90z m6055 -169 c-4 -30 -2 -33 15 -29 18 5 18 7 6
17 -13 10 -13 13 1 31 12 15 14 16 10 3 -4 -12 -2 -15 8 -12 11 5 13 -2 10
-33 -3 -25 -2 -33 4 -24 5 8 7 20 4 27 -2 6 1 15 7 19 6 4 10 -4 10 -22 -2
-79 2 -113 13 -113 14 0 -33 -34 -51 -36 -8 -2 -11 3 -8 12 4 10 -2 14 -21 14
-24 0 -25 1 -10 13 15 10 7 11 -43 9 -33 -2 -60 -8 -60 -14 0 -6 11 -8 25 -6
14 3 25 1 25 -3 0 -5 -12 -9 -26 -9 -14 0 -34 -5 -45 -10 -18 -10 -19 -7 -18
72 1 60 4 75 9 53 l8 -30 2 28 c4 42 4 45 13 54 5 4 7 1 5 -7 -1 -8 4 -14 12
-15 8 0 14 -7 12 -14 -2 -8 3 -11 13 -8 18 8 20 -15 4 -45 -10 -18 -9 -20 5
-15 9 4 16 2 16 -3 0 -5 -10 -11 -22 -13 -13 -2 -4 -5 19 -6 23 0 45 4 49 11
5 7 2 9 -8 6 -12 -5 -15 4 -14 55 1 51 8 76 23 77 1 0 0 -15 -2 -34z m-4217
-98 c-7 -14 -4 -18 11 -18 10 0 21 -7 25 -15 4 -13 2 -14 -14 -5 -18 9 -20 8
-20 -15 0 -21 -5 -25 -29 -25 -35 0 -46 -13 -26 -30 12 -10 15 -9 15 4 0 9 8
16 20 16 11 0 19 -3 19 -7 -4 -22 2 -43 10 -38 5 3 12 1 16 -5 3 -5 1 -10 -4
-10 -6 0 -12 -12 -12 -27 l-2 -28 -4 28 c-4 26 -6 27 -61 26 -51 -1 -53 -2
-22 -9 19 -4 30 -8 24 -9 -6 0 -26 -4 -44 -8 -24 -4 -31 -3 -26 5 5 9 -7 12
-41 13 -39 2 -32 4 42 14 73 10 81 13 42 14 -29 0 -46 5 -42 11 3 6 1 10 -4
10 -6 0 -11 -7 -11 -15 0 -9 -9 -15 -22 -14 -22 0 -22 1 -3 9 16 7 12 9 -19 9
-58 1 -37 12 34 18 44 3 60 2 56 -6 -5 -7 2 -11 16 -11 13 0 18 3 12 8 -21 14
-12 42 14 42 21 0 23 3 17 27 -9 36 -20 42 -75 44 -30 1 -36 3 -17 6 15 2 27
8 27 12 0 5 -19 5 -42 0 -24 -4 -52 -8 -63 -8 -17 -1 -17 1 -5 9 11 7 11 10 2
10 -7 0 -10 5 -7 10 3 6 23 9 43 9 23 -1 29 -3 15 -6 -13 -2 -23 -8 -23 -12 0
-5 19 -5 42 -1 29 6 46 5 51 -3 5 -7 6 -2 2 11 -6 19 -3 22 22 22 22 0 25 2
13 10 -9 6 -10 10 -3 10 6 0 19 -7 27 -16 15 -14 16 -13 17 8 1 13 5 5 8 -17
4 -22 3 -48 -1 -57z m78 -21 c1 -56 2 -108 3 -115 1 -8 11 -12 27 -10 l26 3
-1 -190 c0 -104 0 -196 0 -203 -1 -10 -6 -8 -18 4 -13 13 -14 19 -5 22 14 4
17 22 4 22 -5 0 -14 -10 -20 -22 -10 -22 -11 -22 -13 7 -1 17 -1 33 0 38 0 4
-3 7 -9 7 -5 0 -11 -12 -12 -27 -1 -16 -4 8 -7 52 -6 87 0 199 12 211 4 4 10
4 15 -1 4 -4 1 -10 -5 -12 -16 -6 -17 -43 -2 -43 5 0 8 4 5 9 -3 4 1 17 9 27
14 18 14 18 15 -8 0 -16 5 -28 10 -28 6 0 10 18 10 40 0 36 -13 54 -22 31 -1
-5 -15 -7 -29 -4 -23 4 -26 9 -21 36 2 18 7 85 9 151 2 65 7 115 11 111 4 -4
8 -52 8 -108z m2460 -65 c-3 -5 13 -9 36 -10 23 -1 44 -5 47 -8 3 -4 -11 -5
-31 -2 -21 2 -38 0 -38 -4 0 -14 68 -9 83 7 19 18 31 7 14 -13 -11 -13 -9 -14
11 -1 21 13 24 12 35 -6 16 -29 15 -85 -2 -85 -9 0 -11 -7 -8 -21 8 -30 -2
-52 -18 -39 -9 8 -17 6 -29 -5 -14 -15 -16 -15 -16 -1 0 9 7 16 16 16 11 0 14
6 9 22 -6 17 -4 20 9 15 9 -4 16 -2 16 3 0 14 -147 34 -154 21 -2 -3 0 -15 5
-26 5 -14 8 -15 8 -5 1 10 12 17 31 18 32 2 33 2 24 -22 -5 -12 -21 -16 -65
-16 -37 0 -59 4 -59 11 0 6 9 9 20 6 15 -4 20 0 20 14 0 21 -26 26 -33 7 -2
-7 -6 -1 -9 13 -4 22 -2 25 17 21 17 -3 24 2 29 23 4 14 4 31 0 36 -4 7 2 6
16 -1 20 -10 21 -10 11 8 -6 11 -7 22 -4 26 9 9 15 7 9 -2z m-5169 -117 c0 -9
-6 -14 -14 -11 -9 4 -11 2 -6 -7 4 -6 8 -15 8 -19 0 -3 4 -10 8 -15 5 -4 7 -3
5 2 -1 6 2 12 7 14 16 6 46 -66 56 -133 15 -102 17 -106 44 -106 23 0 24 3 28
73 l3 72 2 -89 c2 -70 -1 -86 -10 -78 -15 12 -68 4 -68 -9 0 -5 -9 -9 -21 -9
-29 0 -59 -18 -59 -35 0 -8 -4 -15 -10 -15 -5 0 -10 -11 -10 -25 0 -16 6 -25
16 -25 8 0 13 -4 10 -9 -7 -10 18 -34 26 -25 3 3 9 1 13 -5 3 -6 1 -11 -4 -11
-6 0 -11 -4 -11 -10 0 -5 15 -10 33 -11 30 -1 31 -1 7 -9 -14 -4 -19 -8 -11
-9 8 -1 11 -4 8 -7 -4 -4 -13 -2 -21 5 -11 9 -15 6 -19 -21 -2 -18 -4 -34 -3
-35 4 -5 144 -12 296 -15 l165 -3 -4 -110 c-4 -128 -16 -153 -69 -152 -29 1
-31 3 -17 13 9 7 12 15 6 18 -5 3 -11 2 -13 -2 -1 -5 -19 -4 -38 1 -19 5 -29
12 -22 14 18 7 14 22 -5 18 -10 -1 -26 2 -35 6 -10 5 -19 5 -22 0 -4 -5 -17
-8 -31 -6 -14 1 -28 -2 -31 -7 -3 -4 -11 -5 -17 -1 -7 4 -38 8 -70 9 -33 0
-52 -3 -45 -8 9 -5 6 -8 -10 -8 -13 0 -20 4 -17 10 3 6 -1 10 -9 10 -8 0 -18
4 -21 10 -3 5 0 7 8 4 8 -3 18 -1 22 5 3 7 -2 11 -14 11 -17 0 -21 7 -23 38
l-1 37 -7 -45 c-6 -35 -7 -26 -7 45 0 63 2 80 7 55 5 -23 8 -27 9 -12 1 13 8
22 19 23 16 0 16 1 -1 8 -10 4 -18 11 -18 16 1 11 -2 11 -81 13 -87 3 -71 22
17 22 59 0 75 3 75 14 0 22 -19 30 -26 12 -9 -23 -20 -19 -20 7 -1 147 -4 169
-23 174 -11 3 -22 12 -26 21 -5 14 -8 14 -15 3 -5 -9 -3 -20 6 -29 8 -8 12
-17 9 -20 -3 -3 -12 4 -21 16 -14 21 -42 32 -29 13 3 -5 0 -13 -6 -17 -7 -4
-9 -3 -6 2 3 6 2 16 -4 24 -5 10 -9 -16 -9 -74 0 -73 2 -87 15 -83 8 4 17 2
20 -3 4 -6 1 -10 -5 -10 -6 0 -8 -5 -4 -12 6 -10 4 -10 -8 0 -9 7 -22 11 -29
10 -9 -2 -13 4 -11 17 2 18 2 19 -8 2 -9 -13 -15 -15 -30 -7 -24 13 -33 13
-25 0 3 -5 1 -10 -4 -10 -6 0 -11 6 -11 13 0 9 -2 9 -8 0 -10 -16 -43 -10 -56
10 -14 22 1 34 24 20 17 -11 19 -8 22 57 l3 70 -45 0 c-33 0 -41 3 -30 10 8 5
23 7 32 4 10 -3 25 -1 33 4 13 7 14 10 3 19 -7 6 -22 13 -33 17 -11 3 -5 4 13
2 17 -1 32 2 32 7 0 5 -34 7 -75 5 -41 -2 -75 0 -75 5 0 4 34 7 75 7 58 0 75
3 75 14 0 8 -6 17 -12 20 -10 5 -10 7 0 12 23 11 12 24 -20 25 -31 2 -31 2 7
8 32 5 41 11 43 29 3 20 -1 22 -50 24 -29 0 -59 1 -65 1 -7 -1 -13 4 -13 9 0
6 26 8 64 5 45 -4 66 -2 69 6 3 9 8 9 17 0 8 -7 22 -8 42 -2 38 10 47 5 42
-24 -3 -13 2 -8 13 13 12 26 18 31 20 18 3 -10 9 -18 15 -18 5 0 8 7 4 15 -8
21 6 19 32 -6 12 -11 20 -24 17 -30 -4 -5 -1 -9 4 -9 7 0 11 27 11 69 0 58 3
70 18 74 9 3 17 5 18 6 0 0 1 -6 1 -14z m4206 7 c15 7 22 7 28 -3 6 -10 9 -11
9 -1 0 6 11 12 25 12 14 0 25 -6 25 -12 0 -8 3 -9 8 -3 10 14 134 16 125 2 -4
-6 2 -8 16 -4 14 3 24 -1 31 -13 12 -22 13 -40 2 -24 -4 6 -33 13 -64 16 -54
4 -57 3 -64 -21 l-7 -26 -7 25 c-7 23 -10 19 -14 -19 -1 -17 -32 -38 -42 -29
-3 4 -3 15 1 25 7 17 8 17 15 -2 7 -16 9 -13 9 15 1 26 -2 31 -9 20 -9 -13
-11 -13 -20 0 -7 11 -10 6 -10 -22 0 -21 -4 -38 -9 -38 -5 0 -9 14 -9 30 1 17
-2 33 -5 37 -4 3 -7 -11 -8 -33 l-1 -39 -11 35 -11 35 -6 -35 c-5 -23 -8 -27
-9 -12 0 12 -5 22 -11 22 -5 0 -7 -6 -4 -14 3 -8 1 -17 -5 -21 -7 -4 -11 4
-11 19 0 15 7 26 18 29 12 3 11 5 -6 6 -19 1 -21 4 -13 20 6 10 9 21 7 23 -1
3 2 2 7 -3 6 -4 19 -3 30 3z m1477 -42 c0 -5 7 -7 16 -3 15 6 37 -15 142 -135
26 -30 48 -49 50 -42 6 17 31 -21 32 -48 0 -20 5 -23 28 -20 17 2 26 -2 25 -9
-2 -8 8 -6 28 5 24 13 33 14 36 5 3 -7 21 -14 41 -14 31 -2 32 -3 9 -6 -15 -2
-25 -8 -22 -12 2 -5 -9 -7 -25 -5 -17 2 -30 -1 -30 -6 0 -6 5 -10 11 -10 5 0
7 -4 4 -10 -3 -5 -1 -10 4 -10 6 0 11 3 11 8 0 4 14 7 30 6 l31 -1 0 -139 c1
-79 5 -144 11 -151 6 -7 7 -13 2 -13 -5 0 -10 -43 -11 -96 -1 -53 -4 -98 -7
-101 -2 -3 -23 -6 -45 -7 l-41 -2 -1 40 c0 23 0 76 0 119 0 57 -4 77 -14 77
-14 0 -29 30 -19 39 4 3 9 0 11 -6 11 -30 23 -9 22 37 l-2 49 -46 3 c-39 3
-46 6 -43 23 1 11 3 28 4 38 1 10 8 15 15 13 7 -3 13 -1 13 4 0 6 -6 10 -14
10 -8 0 -18 4 -21 10 -4 6 1 7 10 3 10 -3 21 0 26 8 7 12 12 12 30 1 11 -7 24
-11 27 -8 3 3 -1 6 -9 6 -11 0 -11 2 -1 9 9 5 2 8 -18 9 -18 0 -35 4 -39 8 -3
4 6 5 21 2 15 -3 33 -1 40 3 9 6 4 9 -14 9 -16 0 -28 4 -28 10 0 5 7 7 15 4 8
-4 15 -1 15 5 0 6 -12 11 -27 11 -22 0 -25 2 -13 10 12 8 11 10 -6 10 -11 0
-29 7 -40 16 -10 8 -13 13 -6 9 14 -7 17 31 2 40 -12 7 -64 -74 -62 -98 0 -9
-3 -15 -9 -12 -5 4 -9 2 -9 -3 0 -14 -36 -52 -49 -52 -9 0 -9 5 -1 20 6 11 8
20 4 20 -3 0 4 9 17 20 l24 19 -48 1 c-40 0 -46 2 -35 14 7 8 18 11 23 8 27
-17 61 -6 83 26 l23 33 -25 32 c-14 18 -52 61 -86 97 l-60 65 5 -40 5 -40 -13
34 -13 33 -57 -87 c-53 -81 -56 -89 -42 -105 12 -14 26 -17 56 -13 25 4 39 2
39 -6 0 -6 -16 -11 -36 -11 -21 0 -33 -4 -29 -10 3 -5 26 -10 50 -10 24 0 47
-5 51 -11 3 -6 -1 -10 -12 -9 -55 6 -57 1 -17 -45 21 -24 44 -44 52 -45 11 0
11 -3 1 -15 -11 -13 -7 -15 26 -15 29 0 35 -3 24 -10 -13 -8 -12 -10 3 -10 9
0 17 5 17 10 0 6 20 10 45 10 35 0 43 -3 39 -15 -4 -9 -19 -15 -36 -15 -16 0
-27 4 -24 9 4 5 -5 4 -19 -2 -23 -11 -20 -12 33 -18 l57 -6 -65 -3 -65 -3 63
-6 c74 -7 86 -24 22 -32 l-45 -5 40 -6 c24 -4 10 -5 -37 -4 -43 1 -78 -2 -78
-7 0 -5 38 -7 85 -5 47 2 85 0 85 -4 0 -5 -30 -9 -67 -10 l-68 -1 60 -7 60 -7
-62 -1 c-34 -1 -65 3 -68 8 -8 13 -25 3 -25 -13 0 -7 4 -6 10 3 6 9 10 10 10
3 0 -8 24 -13 73 -15 97 -4 88 -22 -15 -29 l-83 -5 85 -4 85 -4 -80 -6 -80 -6
80 -4 c46 -2 67 -5 50 -8 l-30 -5 30 -7 c21 -6 5 -8 -55 -10 l-85 -3 75 -8
c41 -4 78 -5 82 -3 5 3 8 -6 8 -20 0 -26 -1 -26 -82 -28 l-83 -2 85 -6 85 -6
-85 -4 -85 -4 85 -6 85 -6 -85 -4 -85 -4 80 -5 c67 -5 81 -9 83 -24 3 -17 -5
-18 -80 -17 -93 1 -148 -7 -148 -22 0 -6 7 -7 15 -4 19 7 36 -32 24 -55 -4 -9
-6 -19 -3 -22 3 -3 -3 -10 -15 -16 -15 -9 -22 -8 -28 4 -9 15 -53 10 -53 -7 0
-5 -4 -6 -10 -3 -5 3 -10 1 -10 -5 0 -6 -4 -8 -10 -5 -5 3 -7 0 -4 -8 3 -8 1
-18 -5 -22 -7 -4 -11 4 -11 20 0 22 -3 25 -22 20 -17 -6 -20 -4 -14 11 4 10 1
21 -6 26 -10 8 -10 11 0 15 6 2 12 11 12 19 0 9 4 13 9 9 5 -3 13 0 17 6 5 9
11 7 21 -6 7 -11 13 -13 13 -7 0 7 9 12 20 12 11 0 20 5 20 11 0 5 5 7 10 4 6
-3 10 0 10 8 0 10 -11 15 -32 16 -60 1 -68 4 -68 23 0 10 -7 21 -15 24 -8 4
-12 11 -9 16 4 6 9 6 13 1 3 -5 20 -6 36 -2 l30 7 -30 2 c-23 2 -18 5 20 10
l50 7 -47 1 c-44 2 -48 4 -48 27 0 21 5 25 33 27 l32 1 -35 6 c-24 4 -6 7 60
11 l95 6 -95 2 c-66 2 -90 5 -80 12 13 9 13 10 0 12 -8 1 28 5 80 8 l95 6 -95
4 -95 4 90 6 90 6 -93 2 c-54 1 -91 6 -87 11 3 5 -3 12 -12 14 -10 3 16 6 57
8 l75 2 -60 7 c-46 5 -52 7 -25 10 l35 3 -35 7 c-32 7 -29 8 25 10 l60 3 -60
7 c-59 7 -59 7 28 8 48 1 87 5 87 10 0 4 -46 6 -102 6 -75 -1 -89 0 -53 5 49
7 49 7 15 12 -34 6 -34 6 10 9 l45 3 -45 7 -45 7 60 3 60 3 -60 7 -60 7 65 2
c36 1 74 6 85 10 11 5 -17 7 -65 5 -73 -2 -77 -1 -30 5 l55 8 -55 3 -55 3 63
7 c58 6 97 20 58 20 -9 0 -15 4 -12 8 3 5 -19 7 -49 4 -46 -4 -55 -2 -55 12 0
12 9 16 34 16 19 0 37 4 40 9 4 5 -13 7 -36 5 -32 -3 -38 -2 -23 5 l20 10 -20
1 c-17 2 -16 3 5 10 25 8 25 8 2 9 -13 1 -20 5 -17 11 3 6 -1 7 -9 4 -9 -3
-16 -11 -16 -18 0 -6 -5 -3 -11 7 -12 21 -4 38 16 30 26 -9 16 6 -13 21 -15 8
-41 12 -57 9 -28 -5 -29 -4 -11 9 19 15 66 13 66 -3 0 -5 8 -9 18 -9 14 0 15
2 2 10 -12 8 -12 10 5 10 19 1 75 76 75 101 0 5 4 9 9 9 10 0 27 39 23 53 -1
5 2 6 8 2 5 -3 10 -1 10 4 0 6 5 11 10 11 6 0 10 -4 10 -10z m338 -48 c-29 -2
-48 -8 -52 -18 -3 -7 -1 -14 4 -14 6 0 10 4 10 10 0 6 9 6 25 0 16 -6 25 -6
25 0 0 6 5 10 11 10 5 0 8 -4 5 -8 -3 -5 1 -9 9 -9 8 0 11 5 8 10 -4 6 0 8 10
4 8 -3 32 -9 51 -13 31 -5 36 -4 36 13 0 18 8 20 90 22 80 1 90 -1 90 -16 0
-15 -2 -16 -10 -3 -6 10 -10 11 -10 3 0 -17 -67 -17 -72 -1 -2 6 -12 9 -21 5
-10 -4 -14 -12 -11 -22 3 -8 3 -26 0 -39 -4 -18 -11 -23 -26 -19 -30 8 -24 -6
7 -18 22 -8 24 -12 13 -19 -10 -7 -11 -10 -2 -10 6 0 12 -8 11 -17 0 -11 -3
-13 -6 -5 -2 6 -9 12 -14 12 -6 0 -7 -4 -4 -10 3 -5 -3 -10 -14 -10 -12 0 -21
7 -21 15 0 8 -4 15 -8 15 -5 0 -9 7 -9 15 0 9 6 14 14 11 19 -8 16 0 -11 27
-14 14 -22 28 -19 31 4 3 1 6 -5 6 -15 0 -15 -6 -2 -31 8 -14 7 -19 -2 -19 -9
0 -9 -3 2 -10 13 -9 12 -13 -5 -26 -20 -16 -20 -16 2 -11 13 3 26 1 29 -4 3
-5 -22 -9 -56 -9 -38 0 -59 4 -55 10 10 16 -15 12 -31 -5 -21 -20 -29 -19 -42
8 -6 12 -11 16 -11 10 -1 -7 -7 -13 -13 -13 -9 0 -13 20 -13 65 0 55 3 65 18
65 9 0 17 4 17 9 0 11 67 19 90 11 8 -3 -6 -6 -32 -8z m-706 -40 c-3 -29 0
-32 25 -33 l28 -2 -27 -4 c-20 -3 -28 -10 -28 -24 0 -10 6 -19 14 -19 8 0 23
-3 33 -6 14 -4 15 -4 4 4 -21 15 17 24 54 13 l30 -9 -35 -1 c-25 -1 -31 -4
-21 -10 12 -8 12 -12 2 -25 -11 -13 -11 -16 2 -16 9 0 18 10 20 23 2 12 5 -20
6 -71 0 -54 -3 -91 -8 -88 -5 3 -7 15 -4 26 4 16 0 20 -18 20 -19 0 -21 2 -9
9 8 6 17 8 20 6 4 -2 7 11 7 30 0 30 -4 35 -24 35 -15 0 -23 -6 -23 -17 -1
-10 -1 -65 -1 -123 0 -97 -1 -103 -15 -80 -14 25 -14 24 -9 -12 4 -29 2 -36
-9 -32 -7 3 -16 -2 -19 -10 -4 -11 -1 -16 11 -16 15 0 15 -2 2 -10 -13 -9 -13
-10 0 -10 12 0 13 -2 1 -9 -8 -5 -11 -16 -6 -30 5 -17 2 -21 -14 -21 -12 0
-21 -6 -21 -14 0 -9 8 -12 24 -9 21 4 24 2 19 -16 -6 -23 -28 -28 -36 -8 -3 6
-6 2 -6 -10 -1 -15 4 -21 13 -17 10 4 15 -6 18 -33 3 -21 4 -41 2 -45 -6 -9
-44 3 -44 14 0 5 5 6 10 3 6 -3 10 4 10 17 0 18 -2 20 -10 8 -7 -11 -10 -3
-10 29 0 41 -1 43 -25 39 -14 -3 -28 -1 -31 3 -3 5 9 9 27 9 31 0 32 0 26 41
-6 47 -13 57 -28 42 -12 -12 -39 -6 -39 8 0 5 16 9 35 9 23 0 35 5 34 13 -5
37 2 57 20 57 11 0 22 -6 24 -12 3 -7 6 -3 6 9 1 17 -3 20 -20 16 -19 -5 -20
-3 -14 18 4 13 13 27 19 31 8 6 7 8 -1 8 -7 0 -17 9 -23 20 -8 15 -7 26 7 47
13 19 14 28 5 31 -9 3 -9 9 -1 24 10 18 7 24 -12 40 -16 13 -18 18 -7 14 10
-3 20 0 24 6 4 7 3 8 -4 4 -7 -4 -12 -3 -12 3 0 5 -9 12 -19 16 -13 4 -18 11
-14 22 6 15 7 15 13 -1 6 -18 7 -18 24 -1 16 16 16 19 2 27 -9 5 -20 7 -25 3
-5 -3 -12 -1 -16 5 -3 5 2 10 12 10 10 0 25 5 33 10 12 8 12 12 2 18 -15 10
-5 45 12 39 6 -2 10 -18 8 -35z m1271 11 c-24 -9 -13 -23 20 -24 17 0 41 -5
52 -10 16 -7 14 -8 -15 -8 -117 3 -169 -2 -184 -17 -12 -12 -16 -12 -17 -2 0
10 -2 10 -6 1 -2 -7 -9 -13 -14 -13 -6 0 -7 5 -4 11 5 7 -18 9 -68 8 -56 -1
-74 -5 -70 -15 3 -7 -5 -14 -19 -17 -21 -4 -20 -4 5 -6 18 -1 27 4 27 14 0 8
5 15 11 15 5 0 7 -4 4 -10 -6 -9 14 -14 43 -11 6 1 12 -3 12 -9 0 -8 -75 -16
-111 -12 -3 1 -4 -10 -1 -23 4 -21 0 -25 -19 -25 -18 0 -20 3 -11 12 7 7 12
21 12 33 0 12 5 26 12 33 9 9 8 12 -5 12 -9 0 -17 5 -17 10 0 6 15 10 33 10
37 0 62 13 53 28 -4 6 2 8 14 5 11 -3 20 -9 20 -14 0 -5 7 -9 15 -9 8 0 12 6
9 13 -3 8 3 13 15 13 15 0 17 -3 9 -13 -9 -11 2 -13 55 -12 36 1 71 5 78 10 8
5 10 9 4 9 -5 0 -3 5 5 10 8 5 26 9 40 9 14 0 19 -3 13 -6z m-6253 -73 c0 -18
7 -20 60 -20 33 0 60 4 60 10 0 6 -12 10 -27 10 -16 0 -35 5 -43 10 -12 8 -11
10 6 10 44 0 85 -13 80 -25 -2 -7 9 -25 25 -41 16 -15 29 -32 29 -36 0 -5 -70
-8 -155 -7 -146 1 -154 2 -145 19 8 14 6 20 -8 24 -9 3 -5 4 10 2 32 -4 64 25
55 49 -5 11 1 15 23 15 23 0 30 -4 30 -20z m6168 -54 c-4 -18 0 -22 20 -21 14
0 27 6 30 13 2 6 18 12 35 11 27 0 29 -2 12 -8 -11 -5 -23 -7 -27 -4 -5 2 -8
0 -8 -4 0 -5 26 -10 57 -11 69 -3 84 -12 20 -12 -32 0 -46 -4 -44 -12 1 -9
-14 -14 -43 -16 -24 -2 -48 -9 -52 -15 -6 -9 -8 -8 -8 2 0 11 -15 13 -80 8
-60 -5 -80 -3 -80 6 0 9 -3 8 -9 -1 -11 -18 -143 -20 -149 -2 -4 10 -6 10 -12
0 -5 -8 -15 -10 -26 -6 -18 7 -18 8 0 18 14 8 24 8 38 -1 15 -9 18 -8 19 6 0
15 2 15 9 -2 7 -18 8 -19 15 -2 5 11 19 17 44 18 20 0 30 3 24 6 -7 2 -13 14
-12 26 0 21 1 21 9 2 7 -17 9 -17 9 -2 1 13 9 17 34 17 32 -1 32 -1 8 -14 -14
-8 -19 -16 -13 -20 6 -3 13 -2 17 4 3 5 11 10 17 10 6 0 6 -6 -2 -15 -11 -13
-10 -14 4 -9 9 3 16 10 16 15 0 5 14 9 31 9 17 0 28 -4 24 -10 -4 -6 6 -10 24
-10 33 0 51 18 30 30 -16 10 -32 3 -24 -11 4 -5 1 -9 -4 -9 -6 0 -11 9 -11 19
0 15 7 19 31 19 26 -1 30 -4 27 -22z m-7552 -98 c4 -13 7 -41 6 -64 0 -29 4
-41 14 -41 8 0 14 4 14 8 0 4 9 5 20 2 13 -4 20 0 20 10 0 10 -9 13 -32 11
-26 -3 -30 -1 -18 7 11 8 12 12 3 16 -7 2 -13 9 -13 14 0 6 6 7 13 2 6 -4 17
-8 22 -9 6 0 16 -2 23 -2 15 -2 17 -82 1 -82 -5 0 -7 5 -3 11 5 8 1 8 -14 0
-11 -6 -23 -16 -25 -23 -4 -10 -8 -9 -16 2 -9 13 -11 12 -11 -4 0 -13 5 -17
20 -13 11 3 20 1 20 -5 0 -6 7 -8 15 -5 8 4 17 2 20 -4 4 -6 -48 -9 -142 -7
-124 1 -140 3 -95 10 49 9 68 27 42 43 -5 3 -10 24 -10 46 0 25 4 38 10 34 6
-3 14 4 19 17 7 17 10 19 10 6 1 -10 6 -18 11 -18 6 0 11 8 11 18 1 16 2 16 6
0 7 -27 20 -21 27 12 7 36 22 39 32 8z m3577 -25 c-7 -2 -13 -15 -13 -27 0
-12 -5 -27 -12 -34 -9 -9 -1 -12 38 -12 l50 0 -5 -42 c-3 -40 -4 -41 -13 -18
-6 15 -12 20 -15 13 -3 -7 -11 -13 -18 -13 -7 0 -15 -7 -19 -15 -3 -8 -1 -15
4 -15 5 0 7 -8 3 -17 -5 -16 -4 -16 9 0 10 14 21 17 41 12 15 -4 27 -11 27
-16 0 -5 -12 -4 -27 1 -25 9 -26 8 -10 -4 24 -19 22 -46 -3 -41 -11 2 -20 -1
-20 -6 0 -6 17 -8 45 -3 29 4 45 3 45 -4 0 -6 -12 -13 -27 -15 -21 -3 -17 -4
12 -5 22 -1 49 5 59 13 17 13 18 15 3 15 -9 0 -17 5 -17 11 0 6 7 9 15 5 8 -3
15 -1 15 4 0 5 -9 11 -19 15 -10 3 -21 15 -24 26 -6 21 -3 21 163 17 166 -3
169 -3 164 -24 -5 -21 -4 -21 127 -16 100 3 130 2 124 -7 -4 -7 -21 -11 -39
-10 -17 1 -53 1 -81 0 -38 -2 -45 -4 -30 -11 18 -8 17 -9 -8 -9 -16 -1 -26 3
-22 9 4 6 -10 10 -34 10 -39 0 -41 -2 -41 -30 0 -21 5 -30 18 -31 16 -1 16 -2
0 -6 -24 -6 -26 -93 -3 -93 8 0 15 -4 15 -8 0 -5 -16 -8 -36 -7 -20 0 -38 -5
-41 -11 -3 -9 -12 -10 -32 -3 -15 5 -38 7 -51 5 -14 -2 -33 -5 -43 -5 -9 -1
-16 -7 -15 -13 2 -9 -12 -14 -39 -16 -41 -3 -62 -22 -25 -22 11 0 18 -7 18
-21 0 -17 -5 -19 -36 -15 -19 3 -47 5 -62 6 -16 0 -28 5 -28 11 0 7 10 9 25 7
17 -4 25 -1 25 9 0 8 4 12 9 8 5 -3 12 -1 16 5 3 5 -2 11 -12 11 -17 1 -17 2
0 6 9 2 17 9 17 15 0 5 -7 8 -15 4 -12 -4 -15 4 -16 37 -1 23 -1 45 0 50 0 4
-17 7 -39 7 -39 0 -40 -1 -40 -34 0 -34 1 -35 35 -29 27 4 35 2 35 -9 0 -11
-8 -14 -30 -12 -16 2 -32 -1 -35 -6 -3 -5 8 -7 25 -5 16 2 30 0 30 -5 0 -6
-14 -10 -31 -10 -23 0 -30 -4 -25 -15 4 -11 -1 -14 -19 -13 -13 1 -23 6 -22
11 1 5 -4 12 -11 14 -8 3 -10 -1 -6 -11 3 -9 2 -16 -4 -16 -5 0 -13 17 -17 38
-6 31 -9 34 -15 17 -4 -11 -4 -21 0 -23 9 -4 1 -42 -9 -42 -4 0 -7 10 -7 22 1
17 -5 24 -24 26 -39 5 -53 5 -87 -1 -19 -2 -33 0 -33 6 0 5 -7 4 -15 -3 -12
-10 -15 -10 -15 1 0 11 -2 11 -10 -1 -7 -11 -10 2 -10 43 0 31 4 57 8 57 4 0
8 16 8 35 0 19 -4 35 -8 35 -4 0 -8 5 -8 11 0 5 4 8 8 5 4 -2 9 9 10 27 3 34
12 49 19 30 3 -7 12 -13 21 -13 15 0 15 2 2 10 -13 8 -13 10 2 10 9 0 18 -4
20 -9 2 -5 10 -2 18 7 13 14 12 15 -2 9 -9 -3 -22 1 -28 9 -10 11 -9 14 9 14
25 0 28 15 5 24 -31 12 -44 6 -44 -19 0 -14 -4 -25 -10 -25 -5 0 -10 5 -10 11
0 5 -4 7 -10 4 -6 -4 -10 7 -10 25 0 17 4 29 9 26 5 -3 8 2 7 12 0 10 5 16 14
14 41 -10 90 -10 90 -2 0 6 -4 10 -9 10 -5 0 -11 14 -13 30 l-5 30 81 -1 c45
0 75 -3 69 -6z m-421 -59 c70 -4 125 -10 123 -15 -3 -4 -46 -5 -96 -2 -69 5
-93 3 -99 -7 -7 -12 -76 -16 -292 -19 -16 -1 -28 -5 -28 -11 0 -5 -7 -10 -15
-10 -8 0 -15 5 -15 11 0 6 -9 9 -20 6 -11 -3 -20 -1 -20 4 0 5 27 10 60 10 33
1 65 3 70 4 6 1 51 3 102 4 50 0 88 4 85 7 -3 4 -77 7 -164 7 -94 0 -138 2
-108 6 78 10 277 13 417 5z m1313 -43 c-3 -6 3 -10 12 -10 52 0 167 -11 172
-17 3 -3 -33 -4 -82 -2 -48 1 -87 0 -87 -4 0 -5 6 -8 13 -8 9 0 11 -27 10
-109 -3 -120 -2 -121 60 -113 19 3 25 8 18 16 -7 8 1 10 30 8 21 -2 39 -8 39
-13 0 -6 -6 -9 -12 -8 -35 4 -38 -5 -3 -11 31 -6 22 -8 -43 -7 -62 0 -86 -4
-93 -14 -5 -8 -9 -9 -9 -4 0 6 -5 2 -11 -7 -5 -10 -15 -18 -22 -18 -8 0 -8 3
2 9 9 6 10 11 2 15 -6 4 -9 12 -6 17 4 5 1 9 -6 9 -10 0 -10 3 -1 12 9 9 9 15
-1 27 -9 12 -9 13 1 7 6 -4 12 -2 12 3 0 6 -6 11 -12 11 -10 0 -9 3 1 9 25 16
-19 29 -81 24 -36 -4 -58 -2 -58 5 0 5 28 10 67 11 37 0 70 6 73 12 4 6 6 41
5 77 -2 65 0 82 11 82 3 0 3 -4 -1 -9z m-1441 -12 c31 -1 59 -6 62 -10 2 -4
-5 -6 -16 -4 -11 2 -20 0 -20 -6 0 -15 84 -10 108 7 20 14 26 12 23 -9 -3 -17
31 -19 43 -2 7 10 19 15 27 12 10 -4 9 -6 -3 -6 -10 -1 -18 -6 -18 -12 0 -6 9
-9 20 -6 17 4 20 0 19 -31 -1 -21 -3 -30 -6 -21 -3 12 -18 16 -66 17 -38 0
-65 -4 -69 -11 -6 -9 -8 -9 -8 1 0 6 -7 12 -16 12 -8 0 -13 -4 -10 -9 6 -10
-24 -25 -32 -16 -3 3 0 5 6 5 21 0 13 16 -8 17 -11 1 -18 -2 -15 -8 4 -5 1 -9
-4 -9 -6 0 -11 4 -11 9 0 5 -20 11 -44 12 -28 3 -42 0 -38 -6 3 -5 -1 -5 -9 1
-16 12 -99 7 -99 -7 0 -5 -10 -9 -22 -9 -21 1 -21 2 -5 11 9 5 17 19 17 29 0
17 7 20 50 20 51 0 69 15 28 23 -15 3 -13 4 5 2 15 -1 30 2 33 7 3 5 9 6 13 4
4 -3 33 -6 65 -7z m3155 -29 c70 3 69 3 62 -32 -6 -31 -9 -33 -45 -30 l-38 4
2 -94 c5 -167 8 -158 -50 -158 -43 0 -49 -2 -38 -14 9 -10 17 -11 26 -3 9 7
16 7 25 -2 9 -9 9 -14 -3 -21 -13 -8 -12 -10 3 -10 10 0 15 -4 12 -10 -3 -5 2
-10 12 -11 11 0 13 -3 5 -6 -6 -2 -10 -9 -6 -14 3 -5 0 -9 -6 -9 -6 0 -10 -8
-8 -17 1 -10 -1 -24 -5 -30 -6 -9 -1 -13 17 -13 36 0 32 -15 -4 -17 -17 -1
-30 2 -30 8 0 6 -4 8 -9 4 -5 -3 -12 3 -14 12 -3 12 -5 9 -6 -8 -1 -16 5 -29
15 -33 9 -3 132 -6 275 -6 142 0 259 -3 259 -7 0 -5 10 -8 23 -9 12 0 31 -4
41 -9 14 -6 17 -5 12 3 -5 9 8 12 46 11 42 -1 48 -3 28 -9 -21 -7 -22 -8 -5
-10 68 -5 121 -12 124 -16 2 -2 -43 -3 -100 -3 -57 1 -108 0 -114 -1 -31 -7
-175 1 -175 10 0 5 13 8 29 6 16 -2 35 1 43 5 8 5 -21 9 -72 10 -174 3 -300
-1 -300 -10 0 -4 65 -5 145 -3 96 3 145 1 145 -6 0 -7 -42 -12 -107 -14 -155
-4 -193 0 -193 20 -1 16 -1 16 -11 0 -7 -12 -22 -18 -49 -18 -29 0 -40 -4 -40
-15 0 -10 -10 -15 -29 -15 -42 0 -48 18 -9 23 18 2 -29 5 -105 5 -127 2 -139
4 -144 21 -4 16 -15 19 -94 19 -50 0 -93 2 -96 6 -4 3 96 6 220 6 145 0 227 4
227 10 0 6 -8 10 -17 10 -17 1 -17 1 -1 14 11 8 15 20 11 35 -5 20 -7 21 -29
6 -13 -8 -25 -11 -29 -6 -3 5 0 13 6 16 5 4 8 13 5 20 -3 8 0 16 7 19 7 3 6 5
-3 5 -9 1 -16 10 -16 20 0 11 4 17 8 15 4 -3 8 2 8 12 0 13 3 14 13 5 11 -9
14 -1 13 44 -1 63 -13 74 -19 18 -2 -21 -4 13 -5 75 -2 81 -5 112 -14 113 -10
0 -10 2 0 6 6 2 12 17 12 31 0 21 2 24 10 12 6 -9 10 -10 10 -3 0 6 17 13 38
15 l37 4 -35 11 c-25 8 -29 12 -15 13 11 1 23 2 28 1 4 0 7 4 7 10 0 6 7 3 16
-6 11 -11 32 -16 63 -15z m1385 5 c-4 -15 -1 -32 7 -42 11 -13 11 -15 1 -9 -9
5 -13 3 -11 -5 3 -28 -1 -39 -16 -39 -8 0 -15 -4 -15 -10 0 -5 6 -10 13 -10 8
0 7 -3 -3 -10 -25 -16 -4 -22 78 -22 43 0 85 -4 93 -9 8 -5 -58 -9 -171 -10
-102 -1 -170 -4 -152 -6 62 -8 31 -23 -45 -22 -43 1 -68 4 -55 6 12 2 22 8 22
13 0 4 -9 6 -20 3 -18 -5 -20 -1 -19 38 1 34 3 38 8 20 6 -22 8 -23 23 -7 9 9
19 12 22 7 4 -5 0 -16 -8 -24 -12 -12 -9 -14 29 -13 29 1 41 5 38 14 -3 6 -1
12 5 12 5 0 12 -6 15 -12 6 -18 114 -11 121 7 4 10 -4 13 -29 11 -38 -4 -85 3
-85 13 0 3 21 6 48 5 26 -1 41 1 35 3 -27 10 -11 23 27 23 34 0 39 2 28 14 -9
10 -15 11 -20 2 -6 -8 -8 -8 -8 2 0 8 -16 12 -46 12 -25 0 -43 -4 -39 -9 3 -5
0 -13 -6 -17 -6 -3 -15 -1 -19 6 -5 9 -8 8 -12 -2 -4 -9 -20 -12 -52 -10 -59
5 -60 22 -2 22 25 0 48 5 51 10 3 6 15 10 26 10 10 0 19 7 19 15 0 20 20 19
37 -2 8 -10 11 -12 7 -4 -9 17 13 30 43 25 15 -3 26 1 29 11 10 24 15 17 8
-10z m-1921 -44 c-2 -15 5 -23 25 -28 15 -4 33 -6 40 -5 6 2 12 -2 12 -8 0 -5
-17 -10 -37 -11 -31 0 -34 -2 -18 -9 11 -5 14 -9 8 -9 -7 -1 -13 -5 -13 -11 0
-6 30 -10 70 -10 70 0 70 0 71 -27 0 -16 3 -22 6 -15 2 6 9 12 14 12 14 0 6
-24 -11 -32 -11 -5 -9 -7 8 -7 16 -1 22 5 22 19 0 11 6 20 13 21 10 0 10 2 0
6 -18 7 -16 23 2 23 12 0 15 -16 15 -80 l0 -80 -29 0 c-16 0 -47 -7 -70 -15
-22 -8 -41 -10 -41 -5 0 6 8 10 18 10 15 1 15 2 -2 15 -20 15 -20 15 0 16 15
0 16 2 4 7 -17 8 -19 20 -6 41 6 10 5 12 -2 7 -8 -5 -12 1 -12 14 0 12 4 19 9
16 5 -4 4 5 -2 19 -9 19 -19 24 -44 23 l-32 -1 1 -74 c0 -48 4 -73 11 -73 7 0
5 -5 -3 -10 -12 -8 -11 -10 8 -10 12 0 22 -4 22 -9 0 -4 -12 -6 -27 -4 -20 3
-24 2 -15 -5 19 -13 -31 -22 -119 -22 l-69 0 -2 33 -1 32 -4 -31 c-4 -29 -7
-31 -41 -30 -20 1 -40 -3 -44 -9 -4 -5 -8 27 -8 73 l0 82 39 0 c36 0 40 -3 46
-30 4 -16 4 -34 0 -40 -4 -6 11 -10 39 -10 30 0 46 4 46 13 0 8 4 7 10 -3 8
-12 10 -12 11 5 1 11 0 36 -2 55 -1 19 -2 44 -2 55 -1 11 -5 23 -11 27 -15 10
-2 20 18 12 13 -5 16 -21 16 -83 0 -53 3 -71 10 -61 5 8 10 10 10 5 0 -6 -5
-16 -11 -22 -19 -19 -2 -63 24 -62 12 0 16 3 10 6 -17 6 -17 24 -1 21 7 -2 12
5 11 15 0 9 -1 38 -2 65 -1 34 -4 43 -11 32 -5 -8 -10 -10 -10 -4 0 5 4 14 9
20 6 5 12 42 14 82 l3 72 -31 0 c-30 0 -31 -1 -29 -40 1 -22 -3 -40 -8 -40 -6
0 -8 9 -5 20 4 14 0 20 -11 20 -15 0 -15 2 -2 10 8 5 16 14 16 20 1 5 2 13 3
18 0 4 18 6 38 6 32 -1 38 -5 36 -23z m-5519 13 c10 -4 16 -18 16 -35 0 -27 3
-29 40 -29 32 0 38 3 33 16 -3 9 -9 12 -12 7 -13 -17 -31 -12 -32 10 -1 21 -1
21 -9 -3 l-8 -25 -1 28 c-1 22 3 27 24 27 14 0 25 -6 26 -12 0 -10 2 -10 6 0
2 6 12 12 20 12 11 0 14 -8 11 -30 -3 -21 0 -30 10 -30 10 0 13 9 10 30 -3 20
0 30 9 30 9 0 13 -17 12 -62 -1 -40 -4 -54 -8 -37 -6 24 -9 25 -93 27 -49 1
-88 -1 -88 -5 0 -3 8 -12 18 -19 16 -13 16 -14 0 -8 -12 4 -18 1 -18 -10 0 -9
8 -16 20 -16 14 0 20 7 20 22 0 17 3 19 12 10 7 -7 17 -8 29 -2 14 8 16 6 12
-9 -3 -13 1 -21 14 -24 11 -4 6 -6 -12 -5 -16 0 -34 -1 -40 -2 -5 -1 -20 -1
-32 0 -13 1 -23 -3 -23 -9 0 -12 7 -14 65 -12 26 1 35 -1 27 -7 -7 -5 -25 -7
-39 -4 -19 4 -24 1 -21 -9 2 -8 24 -17 49 -20 l44 -7 -50 0 c-71 0 -75 -1 -75
-12 0 -5 10 -11 23 -11 l22 -2 -22 -4 c-14 -3 -23 -13 -26 -31 -2 -15 -5 39
-6 119 -1 162 1 169 43 153z m1564 -11 c0 -5 3 -17 8 -28 9 -21 23 -25 89 -26
70 -1 85 -7 85 -34 0 -16 6 -25 16 -25 13 0 14 -3 4 -15 -6 -8 -11 -29 -9 -47
5 -77 6 -76 -68 -74 -38 1 -73 -2 -80 -6 -6 -5 -14 -5 -18 2 -3 5 -24 10 -46
10 -22 0 -38 4 -34 9 3 5 0 15 -7 23 -16 17 -22 42 -8 33 6 -4 10 11 10 39 0
33 -4 46 -14 46 -8 0 -18 5 -21 10 -10 15 22 42 48 40 38 -3 48 0 41 11 -4 8
-9 7 -15 -2 -6 -10 -9 -10 -9 -2 0 7 -8 10 -17 7 -10 -2 -8 1 5 7 12 7 22 16
22 21 0 4 5 8 10 8 6 0 9 -3 8 -7z m3235 -100 l-2 -73 63 0 63 0 2 -58 2 -58
-51 0 c-27 0 -50 4 -50 8 0 4 8 8 18 8 11 0 18 8 19 20 1 11 -3 20 -8 20 -6 0
-8 -4 -4 -9 7 -12 -25 -30 -42 -24 -6 2 -15 -1 -19 -8 -5 -9 -2 -10 9 -6 10 3
17 3 17 -2 0 -5 -12 -11 -27 -13 -16 -3 -37 -9 -47 -13 -14 -6 -17 -5 -12 3 4
7 3 12 -3 12 -6 0 -21 11 -35 25 -16 16 -37 25 -58 26 -18 0 -27 3 -20 6 6 2
12 16 12 29 0 19 -5 24 -27 24 -16 0 -35 5 -43 10 -11 7 -4 10 26 10 33 0 43
4 47 20 3 10 0 21 -6 23 -6 2 13 2 42 1 55 -3 63 8 9 12 -17 2 -35 7 -39 11
-5 5 7 8 29 6 l37 -2 -32 11 c-24 8 -33 17 -33 34 0 22 3 22 83 21 l82 -2 -2
-72z m-2693 -42 l146 -1 -2 -27 c-1 -16 -3 -46 -3 -68 -1 -25 -4 -35 -9 -27
-5 7 -16 10 -25 6 -13 -5 -17 -1 -15 14 2 12 -1 21 -7 21 -5 1 -10 -6 -10 -13
0 -8 -4 -18 -8 -22 -4 -4 -7 5 -7 19 0 15 -5 27 -11 27 -6 0 -9 -9 -6 -20 3
-11 1 -20 -4 -20 -5 0 -9 7 -9 15 0 8 -4 15 -10 15 -5 0 -10 -6 -10 -12 0 -9
-3 -9 -8 -3 -8 13 -52 17 -52 6 0 -5 -11 -11 -25 -13 -16 -4 -25 -1 -25 8 0 7
-5 16 -11 19 -6 4 -10 1 -8 -6 4 -35 0 -42 -18 -28 -15 12 -16 12 -11 -7 5
-19 1 -22 -28 -22 -27 0 -34 4 -34 20 0 10 -4 16 -10 13 -5 -3 -10 -1 -10 4 0
6 5 11 10 11 6 0 10 5 10 11 0 5 -4 8 -9 5 -5 -3 -11 5 -13 19 -4 17 -1 25 8
25 8 0 14 5 14 10 0 6 -3 9 -7 9 -5 -1 -19 0 -33 1 -21 2 -19 4 10 10 19 4 49
6 65 5 17 -2 95 -3 175 -4z m2830 -342 c-101 -16 -180 -20 -180 -9 0 5 -4 10
-9 10 -5 0 -7 -9 -4 -21 6 -20 3 -21 -60 -17 -37 3 -70 8 -74 12 -5 4 20 5 55
3 49 -4 62 -2 62 9 0 12 -76 14 -482 17 -446 2 -435 2 132 3 382 1 594 -2 560
-7z m2855 0 c5 -8 -317 -16 -378 -9 -10 1 -26 -4 -35 -12 -11 -9 -14 -10 -8 0
7 12 -33 18 -109 14 -146 -6 -308 -3 -316 5 -7 7 130 11 415 11 252 0 428 -3
431 -9z m-6839 -131 c18 -19 -20 -23 -209 -23 -213 0 -314 13 -207 26 73 9
406 6 416 -3z m-81 -58 l30 -8 -30 -2 c-29 -2 -30 -2 -5 -9 l25 -8 -25 -5
c-24 -5 -24 -5 3 -7 16 0 26 -5 23 -10 -3 -4 6 -13 19 -19 16 -7 23 -17 19
-27 -3 -8 -10 -13 -14 -10 -5 3 -11 1 -15 -5 -7 -11 -179 -14 -262 -4 -29 4
-50 11 -47 15 3 5 -5 10 -18 10 -17 1 -18 3 -5 6 9 2 17 10 17 17 0 8 11 14
25 14 35 0 41 8 20 28 -14 14 -18 15 -25 3 -7 -11 -12 -11 -21 -2 -9 9 -4 13
22 17 94 16 216 18 264 6z m-39 -185 c-19 -14 -18 -15 17 -15 25 0 39 -6 46
-19 9 -17 5 -19 -42 -26 l-52 -8 50 -12 c28 -7 43 -14 35 -15 -11 -1 -11 -3
-2 -7 17 -7 15 -21 -5 -25 -15 -3 -15 -4 1 -20 17 -17 16 -18 -11 -18 -41 -1
-10 -16 52 -25 48 -8 49 -9 23 -19 -33 -12 -36 -22 -8 -31 11 -4 18 -11 15
-16 -4 -5 3 -9 14 -9 12 0 21 -4 21 -10 0 -5 -6 -10 -12 -10 -9 0 -8 -4 2 -10
12 -8 10 -10 -10 -11 -14 0 -20 -3 -13 -5 8 -4 8 -12 -3 -32 -19 -37 -18 -52
6 -52 11 0 20 -4 20 -10 0 -5 -7 -10 -15 -10 -8 0 -15 -4 -15 -10 0 -5 5 -10
11 -10 8 0 8 -4 0 -14 -9 -11 -9 -19 1 -37 10 -17 10 -23 1 -26 -7 -3 -13 -11
-13 -19 0 -8 -7 -14 -16 -14 -8 0 -22 -7 -30 -15 -9 -8 -25 -16 -37 -17 -12
-1 2 -4 32 -7 l53 -6 -28 -29 c-27 -27 -27 -29 -7 -24 22 6 22 5 5 -18 -9 -13
-26 -24 -37 -25 -17 -1 -17 -2 -2 -6 9 -2 17 -8 17 -13 0 -5 7 -7 15 -4 9 4
15 0 15 -10 0 -12 -10 -16 -37 -17 l-38 -1 33 -8 c46 -11 51 -20 11 -21 -27 0
-30 -2 -14 -8 16 -6 12 -9 -20 -15 l-40 -8 47 -21 c52 -24 60 -43 26 -57 -21
-8 -19 -9 12 -10 31 -2 32 -3 11 -9 -33 -9 -37 -25 -9 -39 21 -10 20 -11 -15
-11 -25 -1 -36 -5 -31 -12 4 -8 -1 -9 -17 -4 -17 4 -20 3 -10 -3 12 -9 12 -11
0 -15 -8 -2 -4 -2 9 0 26 4 29 -5 5 -22 -14 -10 -10 -13 28 -20 40 -7 42 -8
19 -15 -14 -5 -41 -9 -60 -10 -25 -2 -28 -4 -12 -7 12 -2 22 -9 22 -14 0 -5 7
-9 15 -9 8 0 28 -8 45 -19 l31 -18 -33 -8 c-29 -6 -31 -8 -13 -15 11 -5 14 -9
7 -9 -7 -1 -11 -5 -8 -10 8 -12 -18 -21 -64 -21 -38 0 -68 -19 -33 -21 10 -1
-2 -7 -27 -14 l-45 -13 41 -1 c48 -1 57 -7 44 -32 -6 -11 -25 -19 -48 -22 -29
-3 -25 -4 17 -5 94 -3 43 -20 -79 -26 -93 -4 -108 -3 -80 6 34 11 35 11 10 18
l-25 8 28 1 c33 1 34 7 5 32 l-23 20 23 -6 c26 -8 44 22 21 36 -11 7 -9 9 7 9
12 0 24 7 28 15 3 8 2 14 -2 14 -4 -1 -23 -1 -42 1 -29 1 -31 3 -15 10 18 7
19 8 2 15 -9 4 -26 5 -38 2 -16 -4 -18 -3 -8 9 6 7 14 12 18 10 4 -3 22 -1 41
4 32 7 30 8 -25 10 -33 1 -53 4 -45 7 8 2 22 7 30 10 13 4 12 6 -3 18 -16 12
-14 14 28 31 40 17 42 20 22 26 -12 3 -40 7 -62 8 -39 2 -39 2 -13 12 23 8 26
13 18 28 -5 10 -7 25 -4 33 3 8 -2 17 -10 20 -34 13 -13 27 42 28 57 2 57 2
14 8 -45 8 -104 51 -69 51 9 0 17 5 17 10 0 6 7 10 16 10 8 0 13 4 10 9 -4 5
0 12 6 15 7 3 3 3 -9 1 -12 -3 -24 -1 -27 4 -4 6 10 13 31 17 l38 8 -50 11
-50 12 48 7 c40 7 46 11 36 23 -7 7 -17 12 -23 10 -6 -2 -19 5 -29 15 -17 18
-17 19 5 28 l23 9 -22 0 c-39 1 -25 28 20 38 l42 11 -55 2 c-44 2 -50 4 -30
10 21 7 22 8 5 9 -17 1 -17 3 -5 11 10 6 11 10 3 10 -7 0 -13 5 -13 10 0 6 9
10 20 10 11 0 20 5 20 10 0 6 -4 10 -10 10 -5 0 -10 5 -10 10 0 6 7 10 15 10
8 0 15 5 15 10 0 6 -10 10 -23 10 -24 0 -58 39 -35 41 10 0 10 2 0 6 -10 4 -8
8 5 18 17 13 17 14 -6 23 -15 5 -20 11 -13 16 6 4 9 13 5 21 -3 8 -1 15 4 15
5 0 9 12 8 28 0 20 -6 28 -23 30 -31 5 -22 25 14 33 16 4 22 7 14 8 -9 1 -1 9
17 21 18 10 41 28 53 40 18 18 18 20 3 21 -10 1 -22 1 -26 0 -5 -1 -7 4 -5 11
3 7 -2 18 -11 25 -13 9 -7 13 34 19 28 4 69 8 92 9 22 0 39 3 36 8 -2 4 -26 7
-54 7 -27 0 -49 5 -49 10 0 6 -15 11 -32 12 l-33 1 34 4 c26 3 31 7 20 14 -9
5 16 9 71 10 57 0 78 3 65 9 -15 6 -7 9 30 9 46 0 48 -1 31 -14z"/>
<path d="M8949 3966 c-2 -2 -35 -6 -74 -9 -38 -4 -87 -9 -107 -13 l-38 -7 0
-119 0 -120 71 7 c39 4 83 11 97 16 27 8 -30 5 -120 -6 -21 -3 -38 -1 -38 4 0
13 169 24 185 11 7 -6 26 -9 42 -7 27 3 28 6 31 67 2 44 -1 66 -10 71 -7 5 -8
9 -2 9 6 0 11 21 11 50 0 45 -3 50 -22 50 -12 0 -24 -2 -26 -4z"/>
<path d="M8880 3699 c-41 -4 -91 -9 -110 -11 l-35 -3 -2 -82 -1 -81 29 8 c16
5 29 5 29 0 0 -5 -12 -10 -26 -12 -24 -3 -26 -7 -29 -56 l-3 -52 61 6 c34 3
94 10 132 14 65 8 63 8 -25 4 -52 -3 -110 -8 -129 -11 -22 -4 -32 -2 -28 4 4
6 53 14 109 17 152 11 148 9 146 67 0 34 -5 49 -14 49 -8 0 -14 5 -14 10 0 6
8 10 18 10 14 0 15 2 2 10 -8 5 -10 10 -5 10 6 0 11 25 13 55 4 63 15 59 -118
44z"/>
<path d="M8985 3125 c-5 -2 -63 -7 -127 -10 -100 -6 -118 -9 -118 -23 0 -15
12 -17 82 -15 68 1 76 0 43 -7 -22 -5 -59 -9 -82 -9 l-43 -1 0 -65 c0 -37 4
-65 10 -65 6 0 10 -5 10 -11 0 -5 -4 -7 -10 -4 -5 3 -10 -3 -10 -14 0 -15 8
-21 33 -24 l32 -4 -32 -1 c-25 -2 -33 -7 -33 -21 0 -17 7 -18 68 -14 89 5 164
10 180 12 20 2 16 79 -5 84 -17 4 -17 5 0 6 9 0 17 4 17 9 0 4 -33 6 -72 6
-40 -1 -59 0 -41 3 24 3 31 8 27 21 -5 15 -4 15 5 1 7 -10 21 -14 45 -11 35 4
36 6 36 44 l0 40 -117 -5 c-116 -5 -116 -5 -33 4 155 18 150 16 150 49 0 17
-1 30 -2 29 -2 0 -7 -2 -13 -4z"/>
</g>
</svg>
